<?xml version="1.0" encoding="utf-8"?>
<!-- Generator: Adobe Illustrator 25.0.1, SVG Export Plug-In . SVG Version: 6.00 Build 0)  -->
<svg version="1.1" id="Layer_1" xmlns="http://www.w3.org/2000/svg" xmlns:xlink="http://www.w3.org/1999/xlink" x="0px" y="0px"
	 viewBox="0 0 100 105" style="enable-background:new 0 0 100 105;" xml:space="preserve">
<style type="text/css">
	.st0{fill:#FFFFFF;}
</style>
<g>
	<path class="st0" d="M49.8,92.9c-23.5,0-42.7-19.2-42.7-42.7S26.3,7.5,49.8,7.5s42.7,19.2,42.7,42.7S73.4,92.9,49.8,92.9z
		 M49.8,15.6c-19.1,0-34.6,15.5-34.6,34.6s15.5,34.6,34.6,34.6s34.6-15.5,34.6-34.6S68.9,15.6,49.8,15.6z"/>
</g>
<g>
	<g>
		<g>
			<path class="st0" d="M44.7,36.6v27.1c0,2-1.6,3.7-3.7,3.7s-3.7-1.6-3.7-3.7V36.6c0-2,1.6-3.7,3.7-3.7S44.7,34.6,44.7,36.6z"/>
		</g>
	</g>
	<g>
		<g>
			<path class="st0" d="M62.3,36.6v27.1c0,2-1.6,3.7-3.7,3.7c-2,0-3.7-1.6-3.7-3.7V36.6c0-2,1.6-3.7,3.7-3.7
				C60.7,33,62.3,34.6,62.3,36.6z"/>
		</g>
	</g>
</g>
</svg>
