<svg width="25" height="28" viewBox="0 0 25 28" fill="none" xmlns="http://www.w3.org/2000/svg">
<circle cx="5" cy="23" r="5" fill="black"/>
<path d="M5.36127 20.0582H7.50107C7.61697 20.0582 7.7418 20.0499 7.88445 20.0416C8.0271 20.0332 8.11626 20.0249 8.15193 20.0249C8.1965 20.0249 8.22325 20.0332 8.23217 20.0416C8.24108 20.0499 8.25 20.0748 8.25 20.0997C8.24108 20.1164 8.24108 20.1413 8.23217 20.1745L8.1965 20.3241C8.16976 20.4156 8.07168 20.5402 7.89337 20.6815C7.83096 20.7314 7.77746 20.7729 7.7418 20.8062L6.01213 22.3438C6.38659 22.3521 6.6719 22.4601 6.88588 22.6596C7.09986 22.859 7.19793 23.125 7.19793 23.4658C7.19793 23.7317 7.1266 23.9977 6.98395 24.2719C6.8413 24.5462 6.63623 24.8122 6.36876 25.0615C5.96755 25.4355 5.53067 25.7264 5.06705 25.9342C4.60342 26.142 4.14872 26.25 3.71184 26.25C3.24822 26.25 2.847 26.142 2.5082 25.9176C2.1694 25.6932 2 25.4521 2 25.1779C2 25.0366 2.09807 24.9119 2.29422 24.7872C2.35663 24.754 2.40121 24.7207 2.42796 24.7041L2.96291 24.3301L2.98074 24.3218C3.10556 24.2387 3.19472 24.1971 3.24822 24.1971H3.28388L3.41762 24.2221C3.44437 24.2304 3.47111 24.2387 3.48894 24.247C3.50678 24.2553 3.51569 24.2719 3.51569 24.2886C3.51569 24.3135 3.43545 24.4049 3.26605 24.5545C3.09665 24.7041 3.01641 24.8537 3.01641 24.995C3.01641 25.1862 3.1234 25.3524 3.32846 25.4854C3.53352 25.6184 3.79208 25.6848 4.10414 25.6848C4.40727 25.6848 4.71041 25.6184 4.99572 25.4937C5.28103 25.369 5.5485 25.1779 5.78923 24.9368C5.95863 24.7706 6.08345 24.5795 6.17261 24.38C6.26177 24.1805 6.30635 23.9727 6.30635 23.765C6.30635 23.5073 6.23502 23.3078 6.09237 23.1666C5.94971 23.0253 5.74465 22.9588 5.47718 22.9588C5.47718 22.9588 5.45043 22.9588 5.39693 22.9671C5.34344 22.9754 5.29886 22.9754 5.25428 22.9754C5.22753 22.9754 5.19187 22.9671 5.16512 22.9588C5.13837 22.9505 5.11163 22.9338 5.08488 22.9255L4.95114 22.8341C4.93331 22.8175 4.91548 22.8009 4.90656 22.7926C4.89765 22.7759 4.88873 22.7676 4.88873 22.751C4.88873 22.7261 4.90656 22.7011 4.94223 22.6596C4.97789 22.618 5.0403 22.5598 5.13837 22.485L7.13552 20.748H5.67332C5.32561 20.748 5.05813 20.7729 4.88873 20.8311C4.71933 20.8893 4.56776 20.989 4.42511 21.122C4.39836 21.1553 4.3627 21.1968 4.3092 21.255C4.22896 21.3713 4.14872 21.4378 4.07739 21.4628L3.89907 21.5209C3.89016 21.5293 3.87233 21.5293 3.87233 21.5293C3.87233 21.5293 3.85449 21.5293 3.83666 21.5293C3.81883 21.5293 3.80991 21.5293 3.801 21.5209C3.79208 21.5126 3.79208 21.5043 3.79208 21.4877C3.79208 21.4711 3.83666 21.3797 3.92582 21.2217C4.01498 21.0638 4.09522 20.8976 4.16655 20.748C4.21113 20.64 4.27354 20.507 4.33595 20.3491C4.39836 20.1828 4.44294 20.0914 4.4786 20.0748L4.55884 20.0249C4.56776 20.0166 4.57668 20.0166 4.59451 20.0083C4.61234 20 4.62125 20 4.63909 20L4.67475 20.0083C4.87981 20.0332 5.10271 20.0582 5.36127 20.0582Z" fill="white"/>
<circle cx="20" cy="23" r="5" fill="black"/>
<path d="M21.3427 21.6809L20.6541 23.5427H20.6776C20.9515 23.5427 21.2019 23.49 21.4288 23.3844C21.6557 23.2789 21.7731 23.2261 21.7809 23.2261L21.8905 23.2337C21.9139 23.2337 21.9296 23.2412 21.9296 23.2487C21.9374 23.2563 21.9452 23.2638 21.9452 23.2864C21.9452 23.3317 21.867 23.4146 21.7183 23.5503C21.6244 23.6256 21.5462 23.6859 21.4914 23.7387L21.4836 23.7462C21.2175 23.9874 20.9593 24.1156 20.6854 24.1156C20.6385 24.1156 20.5759 24.108 20.482 24.1005C20.4664 24.1005 20.4585 24.093 20.4585 24.093L20.3255 24.4699L20.2942 24.5603C20.1612 24.9296 20.0986 25.1784 20.0986 25.3065C20.0986 25.4045 20.1142 25.4799 20.1534 25.5251C20.1847 25.5779 20.2473 25.6231 20.3412 25.6533C20.4038 25.6759 20.4898 25.6985 20.5915 25.7136C20.6933 25.7286 20.748 25.7437 20.748 25.7739C20.748 25.7965 20.748 25.804 20.748 25.8116C20.748 25.8191 20.7402 25.8191 20.7402 25.8266L20.6072 25.9322C20.5837 25.9472 20.5524 25.9623 20.5133 25.9698C20.4742 25.9774 20.4272 25.9849 20.3725 25.9849C20.3646 25.9849 20.2394 25.9774 20.0125 25.9548C19.7856 25.9322 19.5509 25.9246 19.3318 25.9246C19.1753 25.9246 18.9875 25.9397 18.784 25.9623C18.5728 25.9849 18.4476 26 18.3928 26C18.3459 26 18.3067 25.9925 18.2833 25.9849C18.2598 25.9699 18.2441 25.9548 18.2441 25.9322C18.2441 25.9171 18.2441 25.9096 18.252 25.902C18.252 25.8945 18.2598 25.8869 18.2676 25.8794L18.3772 25.7513C18.4006 25.7211 18.471 25.6985 18.5806 25.6834C18.6901 25.6683 18.7684 25.6533 18.8153 25.6307C18.9484 25.5779 19.0657 25.5025 19.1596 25.3894C19.2535 25.2764 19.3396 25.1181 19.4178 24.9221L19.7308 24.093H17.2817C17.2191 24.093 17.18 24.0854 17.1565 24.0704C17.133 24.0553 17.1095 24.0251 17.0861 23.9799L17.0235 23.8442C17.0156 23.8291 17.0156 23.8141 17.0078 23.799C17.0078 23.7839 17 23.7613 17 23.7387C17 23.6633 17.1487 23.5201 17.446 23.309C17.7199 23.1131 17.939 22.9397 18.1189 22.7965C19.2144 21.892 20.1221 21.093 20.8419 20.3844C20.8654 20.3618 20.8732 20.3543 20.8811 20.3467C20.9984 20.2337 21.1706 20.1658 21.4053 20.1357C21.4288 20.1357 21.4444 20.1281 21.4523 20.1281C21.5462 20.1131 21.6401 20.0829 21.7496 20.0528C21.8513 20.0226 21.9139 20 21.9296 20C21.9452 20 21.9609 20.0151 21.9765 20.0377C21.9922 20.0603 22 20.0905 22 20.1206C22 20.1357 21.9218 20.3166 21.7653 20.6633C21.6244 20.9874 21.4757 21.3342 21.3427 21.6809ZM20.9906 20.7462C20.5133 21.191 20.0125 21.6508 19.4961 22.1181C18.9797 22.5854 18.4397 23.0603 17.892 23.5503H19.9343L20.9906 20.7462Z" fill="white"/>
<circle cx="5" cy="5" r="5" fill="black"/>
<path d="M6.65446 2H6.68631C6.70223 2 6.71815 2.00814 6.73408 2.01628C6.74204 2.02441 6.75 2.04069 6.75 2.0651C6.75 2.08138 6.67038 2.27669 6.50318 2.65918C6.33599 3.03353 6.18471 3.42415 6.04936 3.82292L5.07006 6.64681C5.00637 6.84212 4.95064 7.02116 4.91083 7.19206C4.87102 7.36296 4.84713 7.48503 4.84713 7.55013C4.84713 7.65593 4.87102 7.73731 4.91879 7.79427C4.96656 7.85124 5.04618 7.89193 5.1656 7.92448C5.19745 7.93262 5.23726 7.94076 5.29299 7.94889C5.41242 7.96517 5.46815 7.99772 5.46815 8.03841C5.46815 8.04655 5.46815 8.05469 5.46019 8.06283C5.46019 8.07096 5.45223 8.0791 5.44427 8.08724L5.31688 8.19303C5.29299 8.20931 5.26911 8.22559 5.2293 8.23372C5.18949 8.24186 5.14172 8.25 5.09395 8.25C5.0621 8.25 4.93471 8.24186 4.71975 8.21745C4.50478 8.19303 4.31369 8.1849 4.13853 8.1849C3.96338 8.1849 3.77229 8.19303 3.54936 8.21745C3.32643 8.24186 3.19904 8.25 3.15127 8.25C3.1035 8.25 3.06369 8.24186 3.03981 8.23372C3.01592 8.22559 3 8.20117 3 8.17676C3 8.16048 3 8.15234 3.00796 8.14421C3.01592 8.13607 3.01592 8.12793 3.01592 8.12793L3.12739 8.00586C3.15127 7.97331 3.22293 7.94889 3.32643 7.93262C3.42994 7.9082 3.50955 7.89193 3.55732 7.86751C3.67675 7.81055 3.78822 7.72917 3.88376 7.6071C3.9793 7.48503 4.05892 7.3304 4.13057 7.13509L5.18949 4.15658C5.2293 4.05078 5.25318 3.94499 5.27707 3.84733C5.29299 3.74967 5.30892 3.66829 5.30892 3.58691C5.30892 3.47298 5.28503 3.38346 5.23726 3.3265C5.18949 3.26953 5.11783 3.23698 5.02229 3.23698C4.8949 3.23698 4.76752 3.25325 4.6242 3.28581C4.5844 3.29394 4.56051 3.30208 4.55255 3.30208C4.52866 3.30208 4.51274 3.29394 4.49681 3.28581C4.48089 3.27767 4.48089 3.26139 4.48089 3.24512C4.48089 3.23698 4.48089 3.23698 4.48089 3.22884C4.48089 3.2207 4.48089 3.2207 4.48885 3.20443L4.56051 3.06608C4.60828 2.9847 4.74363 2.92773 4.96656 2.87891C5.19745 2.83008 5.38057 2.78125 5.53185 2.72428C5.76274 2.63477 5.97771 2.49642 6.17675 2.31738C6.3758 2.13835 6.50319 2.04069 6.55892 2.03255L6.65446 2Z" fill="white"/>
<circle cx="20" cy="5" r="5" fill="black"/>
<path d="M18.099 7.27778H19.9867C20.3412 7.27778 20.6248 7.24603 20.8375 7.1746C21.0502 7.10317 21.2363 6.98413 21.4047 6.80952C21.449 6.7619 21.5022 6.70635 21.5643 6.62698C21.6795 6.48413 21.7858 6.40476 21.8744 6.38889L22.0428 6.36508H22.0606C22.0871 6.36508 22.1049 6.37302 22.1226 6.38095C22.1403 6.38889 22.1492 6.40476 22.1492 6.42063C22.1492 6.43651 22.0783 6.54762 21.9365 6.75397C21.7947 6.96032 21.6706 7.16667 21.5643 7.37302C21.5554 7.38889 21.5377 7.42064 21.5288 7.45238C21.4136 7.68254 21.3072 7.81746 21.2097 7.87302C21.1654 7.89683 21.1034 7.92064 21.0236 7.93651C20.9439 7.95238 20.8287 7.96032 20.6691 7.96032H20.3855H18.1256C17.8242 7.96032 17.5318 7.96826 17.257 7.99207C17.2127 7.99207 17.1861 8 17.1773 8C17.1152 8 17.0709 7.99206 17.0443 7.97619C17.0089 7.96032 17 7.92857 17 7.89683C17 7.76191 17.1418 7.54762 17.4165 7.2381C17.6913 6.92857 18.0458 6.63492 18.4623 6.33333C18.8346 6.07936 19.384 5.75397 20.1285 5.35714C20.4564 5.18254 20.6957 5.05556 20.8552 4.96825C21.2541 4.7381 21.5465 4.5 21.7415 4.25397C21.9365 4.00794 22.034 3.7381 22.034 3.46032C22.034 3.19048 21.9365 2.96825 21.7504 2.80952C21.5643 2.65079 21.3072 2.56349 20.9882 2.56349C20.7489 2.56349 20.5362 2.60317 20.3501 2.68254C20.164 2.7619 20.0044 2.88889 19.8538 3.06349C19.8183 3.10317 19.774 3.15079 19.7297 3.22222C19.6145 3.37302 19.517 3.45238 19.4372 3.46825L19.2511 3.51587H19.2334C19.2157 3.51587 19.2068 3.51587 19.1979 3.50794C19.1891 3.5 19.1891 3.49206 19.1891 3.48413C19.1891 3.45238 19.2422 3.35714 19.3397 3.19841C19.4372 3.03968 19.517 2.90476 19.5879 2.78571C19.6588 2.65873 19.7208 2.51587 19.7917 2.34921C19.8538 2.18254 19.9069 2.09524 19.9335 2.07937L20.0133 2.03175C20.031 2.02381 20.0487 2.02381 20.0665 2.01587C20.0842 2.00794 20.0931 2.00793 20.0931 2.00793C20.0931 2.00793 20.1108 2.01587 20.1374 2.02381C20.2526 2.07143 20.3678 2.09524 20.5007 2.09524C20.5982 2.09524 20.7578 2.07936 20.9793 2.04762C21.192 2.01587 21.3604 2 21.4668 2C21.9276 2 22.291 2.12698 22.5746 2.38095C22.8582 2.63492 23 2.96032 23 3.36508C23 3.53968 22.9734 3.70635 22.9114 3.86508C22.8582 4.02381 22.7696 4.18254 22.6544 4.3254C22.3264 4.7619 21.5022 5.29365 20.1817 5.93651C19.9867 6.03175 19.836 6.10318 19.7297 6.15873C19.3486 6.34921 19.0207 6.54762 18.7459 6.74603C18.4357 6.90476 18.2319 7.09524 18.099 7.27778Z" fill="white"/>
</svg>
