<svg width="779" height="163" viewBox="0 0 779 163" fill="none" xmlns="http://www.w3.org/2000/svg">
<path d="M213.2 60.3L202.6 88.3C204.8 86.6 207.7 84.3 211.3 81.3C222.6 72.2 230.4 67.7 234.8 67.7C240.7 67.7 245.4 69.8 248.8 74.1C252.2 78.4 254 84.2 254 91.6C254 98.1 252.7 104.8 250.1 111.7C247.5 118.6 243.7 125.6 238.6 132.6C231.9 141.8 224.5 149.2 216.5 154.6C208.5 160.1 201.2 162.8 194.7 162.8C192.6 162.8 190.4 162.3 188 161.4C185.6 160.5 183.3 159.1 181 157.4C179.9 156.6 178.5 155.6 176.8 154.3C173.8 151.9 171.7 150.6 170.6 150.6C169.4 150.6 167.9 151.1 166.3 152C164.6 152.9 163.6 153.4 163.1 153.4C162.8 153.4 162.6 153.3 162.4 153.1C162.2 152.9 162.1 152.6 162.1 152.2L161.9 149C161.9 148.9 163.6 145.9 167.1 140.2C170.6 134.4 173.6 127.7 176.2 120.2L197.5 60.9C198.6 57.9 199.5 55 200.1 52.2C200.7 49.5 201.1 47.3 201.1 45.6C201.1 43.9 200.7 42.5 199.9 41.6C199.1 40.7 197.9 40.2 196.3 40.2C195.3 40.2 194.1 40.3 192.7 40.6C191.4 40.9 190.5 41 190.2 41C189.7 41 189.3 40.9 189 40.8C188.7 40.7 188.6 40.4 188.6 40.1C188.6 39.9 188.6 39.7 188.6 39.6C188.6 39.5 188.7 39.4 188.8 39.4L190 37C190.7 35.7 192.8 34.6 196.2 33.9C198.5 33.4 200.5 32.9 202 32.4C203.8 31.8 206.1 30.9 208.8 29.7C211.5 28.5 213.5 27.9 214.6 27.9C216.3 27.9 217.7 28.6 218.8 30C219.8 31.4 220.3 33.3 220.3 35.8C220.3 37.5 219.8 40.1 218.8 43.6C217.9 47.1 216 52.7 213.2 60.3ZM186.9 133.6C186.3 135.1 185.9 136.6 185.6 137.9C185.3 139.2 185.2 140.4 185.2 141.4C185.2 144.3 186.7 147 189.7 149.3C192.7 151.7 196.2 152.8 200.2 152.8C204.7 152.8 209 151 213.1 147.5C217.2 144 221.4 138.4 225.6 130.7C229.4 124.1 232.3 117.5 234.3 111.2C236.3 104.8 237.3 99 237.3 93.8C237.3 89.8 236.4 86.7 234.7 84.5C233 82.3 230.5 81.1 227.4 81.1C221.3 81.1 214.9 84.5 208.4 91.3C201.8 98.1 196.6 106.9 192.7 117.8L186.9 133.6Z" fill="black"/>
<path d="M356 78.6L351.5 84.2C351.1 84.7 350.6 85.1 350.1 85.5C349.6 85.8 349.1 86 348.7 86C348.4 86 348.1 86 347.9 85.9C347.6 85.8 347.4 85.8 347.2 85.6C341 94.9 336.4 103.5 333.4 111.5C330.4 119.5 328.9 127.2 328.9 134.5C328.9 138.9 329.6 142.4 331.1 144.9C332.6 147.4 334.6 148.7 337.1 148.7C338.6 148.7 340.3 148.2 342.1 147.2C343.9 146.2 345.1 145.7 345.5 145.7C345.8 145.7 346.1 145.8 346.3 146C346.5 146.2 346.6 146.5 346.6 146.7V147V147.4L345.6 150.1C345.2 151.4 344.1 152.6 342.3 153.7C342 153.9 341.8 154 341.6 154.1C340.5 154.9 339 156 337.1 157.4C333 160.6 330 162.2 327.9 162.2C324 162.2 320.8 160.1 318.4 155.8C316 151.5 314.8 145.9 314.8 138.9C314.8 137.9 314.8 136.8 314.9 135.4C315 134.1 315.1 132.7 315.3 131.2C311.7 135.6 308.3 139.9 305.1 144.3C301.9 148.7 298.9 153 296.2 157.2C294.5 159 292.6 160.4 290.5 161.3C288.4 162.2 286.1 162.7 283.5 162.7C276.7 162.7 271.2 160.2 267 155.1C262.8 150 260.7 143.3 260.7 134.9C260.7 128 262.2 120.9 265.2 113.7C268.2 106.5 272.6 99.7 278.3 93.1C285.6 84.8 293.6 78.5 302.3 74.1C311 69.7 319.9 67.5 328.9 67.5C336.1 67.5 342.5 68.5 348.3 70.5C354.1 72.5 357 74.4 357 76.3C357 76.8 356.7 77.3 356.2 77.9C356.3 78.3 356.1 78.5 356 78.6ZM336.1 79.5C333.5 78.5 331 77.6 328.6 77.1C326.2 76.5 323.9 76.3 321.7 76.3C316.2 76.3 310.8 77.9 305.6 81.1C300.4 84.3 295.4 89.1 290.8 95.4C286.5 101.1 283.1 107.2 280.7 113.9C278.3 120.6 277.1 127 277.1 133.2C277.1 138.3 278.1 142.4 280 145.4C282 148.4 284.6 149.9 287.8 149.9C294.3 149.9 305.2 135.8 320.4 107.7C327 95.9 332.2 86.5 336.1 79.5Z" fill="black"/>
<path d="M408.3 60.3L384.9 125.4C383.7 128.7 382.7 131.8 382 134.7C381.3 137.6 381 139.9 381 141.7C381 144 381.5 145.8 382.5 147C383.5 148.2 385 148.8 386.9 148.8C388.2 148.8 389.8 148.3 391.7 147.4C393.6 146.5 394.9 146 395.5 146C395.8 146 396.1 146.1 396.4 146.3C396.7 146.5 396.7 146.8 396.7 147V147.4L396 150C395.7 151.2 394.3 152.4 391.9 153.6C390.7 154.2 389.8 154.7 389.2 155.1C388.1 155.8 386.6 156.9 384.7 158.3C381.1 161.2 378.3 162.6 376.2 162.6C372.8 162.6 370 161 367.6 157.9C365.3 154.8 364.1 150.9 364.1 146.2C364.1 144 364.4 141.5 365 138.9C365.6 136.2 366.8 132.6 368.5 128L391.1 65.9C392.7 61.5 393.9 57.6 394.8 54.2C395.7 50.8 396.1 48.2 396.1 46.4C396.1 44.3 395.7 42.7 394.9 41.6C394.1 40.5 393 39.9 391.6 39.9C391 39.9 390 40 388.6 40.2C387.3 40.4 386.3 40.5 385.6 40.5C385.1 40.5 384.7 40.4 384.4 40.3C384.1 40.2 384 39.9 384 39.6C384 39.4 384 39.3 384 39.3C384 39.2 384.1 39.2 384.1 39.1L385.1 36.7C385.8 35.4 387.9 34.3 391.3 33.6C393.6 33.1 395.4 32.6 396.9 32.1C398.6 31.5 401 30.6 403.8 29.4C406.7 28.2 408.6 27.6 409.7 27.6C411.4 27.6 412.8 28.3 413.9 29.6C414.9 30.9 415.4 32.8 415.4 35.3C415.4 37 414.9 39.5 414 42.7C413.2 46.3 411.2 52.1 408.3 60.3Z" fill="black"/>
<path d="M507.7 78.6L503.2 84.2C502.8 84.7 502.3 85.1 501.8 85.5C501.3 85.8 500.9 86 500.4 86C500.1 86 499.8 86 499.6 85.9C499.3 85.8 499.1 85.8 498.9 85.6C492.7 94.9 488.1 103.5 485.1 111.5C482.1 119.5 480.6 127.2 480.6 134.5C480.6 138.9 481.3 142.4 482.8 144.9C484.3 147.4 486.3 148.7 488.8 148.7C490.3 148.7 492 148.2 493.8 147.2C495.6 146.2 496.8 145.7 497.2 145.7C497.5 145.7 497.8 145.8 498 146C498.2 146.2 498.3 146.5 498.3 146.7V147V147.4L497.3 150.1C496.9 151.4 495.8 152.6 494 153.7C493.7 153.9 493.5 154 493.3 154.1C492.2 154.9 490.7 156 488.8 157.4C484.7 160.6 481.7 162.2 479.6 162.2C475.7 162.2 472.5 160.1 470.1 155.8C467.7 151.5 466.5 145.9 466.5 138.9C466.5 137.9 466.5 136.8 466.6 135.4C466.7 134.1 466.8 132.7 467 131.2C463.4 135.6 460 139.9 456.8 144.3C453.6 148.7 450.6 153 447.9 157.2C446.2 159 444.3 160.4 442.2 161.3C440.1 162.2 437.8 162.7 435.2 162.7C428.4 162.7 422.9 160.2 418.7 155.1C414.5 150 412.4 143.3 412.4 134.9C412.4 128 413.9 120.9 416.9 113.7C419.9 106.5 424.3 99.7 430 93.1C437.3 84.8 445.3 78.5 454 74.1C462.7 69.7 471.6 67.5 480.6 67.5C487.8 67.5 494.2 68.5 500 70.5C505.8 72.5 508.7 74.4 508.7 76.3C508.7 76.8 508.4 77.3 507.9 77.9C507.9 78.3 507.8 78.5 507.7 78.6ZM487.8 79.5C485.2 78.5 482.7 77.6 480.3 77.1C477.9 76.5 475.6 76.3 473.4 76.3C467.9 76.3 462.5 77.9 457.3 81.1C452.1 84.3 447.1 89.1 442.5 95.4C438.2 101.1 434.8 107.2 432.4 113.9C430 120.6 428.8 127 428.8 133.2C428.8 138.3 429.8 142.4 431.7 145.4C433.7 148.4 436.3 149.9 439.5 149.9C446 149.9 456.9 135.8 472.1 107.7C478.7 95.9 483.9 86.5 487.8 79.5Z" fill="black"/>
<path d="M599.2 103.4L589.8 125.4C588.2 129.1 587 132.3 586.3 134.8C585.6 137.4 585.2 139.6 585.2 141.4C585.2 143.7 585.8 145.5 586.9 146.8C588 148.1 589.6 148.7 591.5 148.7C592.9 148.7 594.5 148.2 596.4 147.3C598.3 146.4 599.5 145.9 600 145.9C600.5 145.9 600.9 146 601.1 146.2C601.3 146.4 601.4 146.6 601.4 147V147.4L600.7 150C600.4 151.2 599 152.4 596.6 153.7C595.5 154.3 594.6 154.7 594.1 155.1C592.9 155.8 591.3 156.9 589.3 158.4C585.7 161.2 582.9 162.6 580.9 162.6C577.5 162.6 574.6 161 572.3 157.9C570 154.8 568.9 150.7 568.9 145.7C568.9 143.3 569.2 140.6 569.9 137.8C570.6 135 571.7 131.7 573.2 128L583.8 102.5C585 99.6 586 97 586.6 94.7C587.2 92.4 587.6 90.5 587.6 88.9C587.6 86.5 586.8 84.5 585.3 83C583.8 81.5 581.9 80.7 579.5 80.7C572.9 80.7 565.6 84.9 557.6 93.3C549.6 101.7 543.5 112 539.4 124.4L528.8 155.8C528.2 157.8 527.5 159 527 159.5C526.4 160 525.6 160.2 524.6 160.2H519H515.2C514.2 160.2 513.4 160 512.8 159.7C512.2 159.4 511.9 158.9 511.9 158.2C511.9 158.1 512 157.8 512.1 157.5C512.2 157.1 512.4 156.7 512.5 156.2L530.5 107.4C532.4 102.4 533.7 98.3 534.6 95C535.5 91.8 535.9 89.1 535.9 87.1C535.9 85.1 535.5 83.6 534.6 82.5C533.8 81.4 532.6 80.9 531.1 80.9C530.6 80.9 529.7 81 528.5 81.3C527.3 81.6 526.3 81.7 525.5 81.7C525 81.7 524.6 81.6 524.3 81.4C524 81.2 523.8 81 523.8 80.8C523.8 80.6 523.8 80.4 523.8 80.2C523.8 80.1 523.9 79.9 523.9 79.8L525.1 77.7C525.8 76.3 528 75.2 531.8 74.3C534.4 73.7 536.5 73.1 538.1 72.6C539.9 72 542.2 71 544.9 69.6C547.6 68.2 549.6 67.5 550.7 67.5C552.2 67.5 553.4 68.2 554.3 69.5C555.2 70.8 555.7 72.6 555.7 74.7C555.7 76.3 555.4 78.3 554.8 80.7C554.2 83.1 553.3 86 551.9 89.5C560.8 81.9 568.3 76.3 574.2 72.8C580.2 69.2 585.1 67.5 588.9 67.5C593 67.5 596.6 69.2 599.4 72.5C602.3 75.9 603.7 80 603.7 85.1C603.7 87.5 603.3 90.2 602.6 93C602.1 96 600.9 99.4 599.2 103.4Z" fill="black"/>
<path d="M696.5 68.6L699.8 68.1H700.4C700.7 68.2 700.9 68.3 701.1 68.4C701.3 68.5 701.4 68.7 701.4 68.8C701.4 69.4 700.6 71.3 699 74.4C697.4 77.5 696.1 80.4 695.1 83.1C694.6 84.5 694 86.3 693.4 88.4C692.4 91.8 691.2 93.8 689.8 94.3L687.1 95.4C687 95.4 687 95.4 686.8 95.5C686.7 95.6 686.6 95.6 686.5 95.6C686.2 95.6 686 95.5 685.8 95.3C685.6 95.1 685.5 94.8 685.5 94.5C685.5 94.2 685.7 93.1 686.2 91.4C686.7 89.7 686.9 88.1 686.9 86.7C686.9 83.7 685.9 81.3 683.8 79.7C681.7 78.1 678.7 77.3 674.8 77.3C670.3 77.3 665.8 78.5 661.4 80.9C656.9 83.3 652.8 86.7 649 91.2C644.5 96.6 640.9 102.7 638.3 109.5C635.7 116.3 634.5 123.1 634.5 129.8C634.5 136.2 635.9 141.1 638.8 144.5C641.7 147.9 645.7 149.7 651 149.7C654.1 149.7 657.2 149.1 660.4 147.9C663.6 146.7 667.2 144.7 671.3 141.8C673.1 140.6 675.2 139 677.6 136.9C680 134.9 681.5 133.9 682.2 133.9C682.5 133.9 682.8 134 683 134.2C683.3 134.4 683.4 134.7 683.4 134.9C683.3 135.1 683.2 135.5 683.1 135.9L681.7 140.8C681.3 142.3 679.3 144.1 675.8 146.2C674.8 146.8 673.9 147.4 673.3 147.8C671.6 148.9 669.1 150.6 665.9 152.9C656.4 159.5 648.9 162.9 643.4 162.9C636.2 162.9 630.3 160.1 625.6 154.5C620.9 148.9 618.6 141.8 618.6 133.2C618.6 125.4 620.5 117.4 624.4 109.3C628.2 101.2 633.7 93.7 640.8 86.7C647.2 80.5 653.7 75.7 660.4 72.5C667 69.3 673.6 67.7 680 67.7C683 67.7 686 68 689.1 68.5C692.2 69.1 693.7 69.3 693.9 69.3C694.3 69.3 694.8 69.2 695.3 69.1C695.6 69 696.1 68.8 696.5 68.6Z" fill="black"/>
<path d="M716.6 120.9C716.1 123 715.8 124.9 715.6 126.5C715.4 128.2 715.3 129.6 715.3 130.7C715.3 136.9 716.5 141.5 719 144.7C721.5 147.8 725.1 149.4 730 149.4C733.3 149.4 736.6 148.8 739.8 147.7C743 146.5 746.9 144.5 751.3 141.6C753.2 140.4 755.3 138.8 757.6 136.8C759.9 134.8 761.4 133.9 762.1 133.9C762.3 133.9 762.6 134 762.9 134.2C763.2 134.4 763.3 134.7 763.3 134.9C763.2 135.1 763.1 135.5 763 135.9L761.5 140.8C761 142.3 759 144.1 755.3 146.4C754.4 147 753.7 147.4 753.2 147.7C751.9 148.6 750 149.8 747.6 151.4C736 159 727.2 162.9 721.3 162.9C714.7 162.9 709.2 160.3 704.9 155.1C700.6 149.9 698.5 143.2 698.5 135.1C698.5 127.8 700.3 120.2 703.8 112.4C707.3 104.6 712.4 97.0999 719 89.9999C725.4 83.0999 732.4 77.5999 740.2 73.6999C748 69.7999 755.5 67.7999 762.7 67.7999C767.6 67.7999 771.4 68.9999 774.2 71.4999C776.9 73.9999 778.3 77.4999 778.3 81.9999C778.3 88.8999 774.3 95.0999 766.2 100.5C758.2 105.8 741.6 112.6 716.6 120.9ZM718.7 112.5C734 108.9 745 104.9 751.8 100.6C758.6 96.2999 761.9 91.0999 761.9 84.9999C761.9 82.3999 761.1 80.3999 759.6 78.8999C758.1 77.3999 756 76.5999 753.4 76.5999C747.6 76.5999 741.5 79.8999 734.9 86.5999C728.3 93.2999 723 101.8 718.7 112.5Z" fill="black"/>
<path d="M12.8 5.50007C13.7 6.00007 14.1 6.70007 14.1 7.70007C14.1 9.00007 14.0001 10.0001 13.9001 10.6001C13.8001 11.2001 13.5001 11.5001 13.2001 11.5001C12.8001 11.5001 12.5 11.2001 12.5 10.7001C12.4 10.2001 12.2001 9.50007 11.7001 8.70007C10.8001 7.10007 9.50005 6.30007 8.00005 6.30007C6.90005 6.30007 6.00005 6.60007 5.40005 7.20007C4.70005 7.80007 4.40005 8.60007 4.40005 9.60007C4.40005 10.2001 4.50005 10.8001 4.80005 11.2001C5.10005 11.6001 5.40005 12.0001 5.90005 12.4001C6.40005 12.8001 7.00005 13.1001 7.70005 13.5001C8.40005 13.9001 9.20005 14.3001 10 14.7001C11.8 15.7001 13.2 16.8001 14.1 18.0001C15 19.2001 15.4001 20.7001 15.4001 22.6001C15.4001 24.0001 15.2 25.3001 14.8 26.4001C14.4 27.5001 13.8 28.5001 13 29.2001C12.2 30.0001 11.3001 30.6001 10.2001 31.0001C9.10005 31.4001 8.00005 31.6001 6.70005 31.6001C5.40005 31.6001 4.30005 31.5001 3.30005 31.2001C2.30005 30.9001 1.50005 30.6001 1.00005 30.3001C0.70005 30.1001 0.500049 29.9001 0.400049 29.6001C0.300049 29.3001 0.300049 28.9001 0.300049 28.4001V27.0001C0.300049 25.5001 0.300049 24.3001 0.400049 23.6001C0.500049 22.9001 0.70005 22.6001 1.10005 22.6001C1.40005 22.6001 1.60005 22.7001 1.70005 22.9001C1.80005 23.1001 1.90005 23.4001 2.00005 23.7001C2.10005 24.1001 2.20005 24.5001 2.30005 25.0001C2.40005 25.5001 2.60005 26.1001 2.90005 26.7001C4.00005 29.0001 5.50005 30.1001 7.40005 30.1001C8.60005 30.1001 9.60005 29.7001 10.4001 28.9001C11.2001 28.1001 11.6 27.0001 11.6 25.6001C11.6 24.9001 11.5001 24.3001 11.2001 23.7001C11.0001 23.2001 10.6 22.7001 10.1 22.2001C9.60005 21.8001 9.10005 21.4001 8.40005 21.0001C7.70005 20.6001 7.00005 20.2001 6.10005 19.7001C5.20005 19.2001 4.30005 18.7001 3.60005 18.3001C2.90005 17.8001 2.30005 17.3001 1.80005 16.8001C1.30005 16.3001 0.90005 15.6001 0.70005 14.9001C0.50005 14.2001 0.300049 13.4001 0.300049 12.4001C0.300049 10.1001 1.00005 8.20007 2.50005 6.80007C3.90005 5.40007 5.80005 4.70007 8.10005 4.70007C10.3 4.80007 11.9 5.00007 12.8 5.50007Z" fill="black"/>
<path d="M25.1 5.10005C25.1 5.60005 25.3 5.80005 25.8 5.80005H30C30.3 5.80005 30.5 5.80005 30.6 5.90005C30.7 6.00005 30.7001 6.10005 30.7001 6.40005V7.50005C30.7001 7.80005 30.7 8.00005 30.6 8.10005C30.5 8.20005 30.3 8.30005 30 8.30005H25.7001C25.2001 8.30005 25 8.50005 25 9.00005V23.3C25 25.1 25.2 26.4001 25.5 27.2001C25.8 28.0001 26.4 28.4001 27.3 28.4001C27.7 28.4001 28.1001 28.3001 28.4001 28.2001C28.7001 28.1001 29 27.9001 29.3 27.7001C29.6 27.5001 29.8 27.3001 30 27.2001C30.2 27.0001 30.4 27 30.6 27C31 27 31.2001 27.3 31.2001 27.8C31.2001 28.1 31.0001 28.4001 30.7001 28.9001C30.4001 29.4001 29.9 29.8 29.3 30.3C28.7 30.8 28 31.1 27.3 31.5C26.5 31.8 25.7001 32 24.9001 32C22.0001 32 20.5 29.6 20.5 24.8V22.4001L20.6 10C20.6 9.50005 20.6 9.00005 20.5 8.70005C20.4 8.40005 20.2 8.20005 19.8 8.20005H18.8C18.1 8.20005 17.8 8.00005 17.8 7.50005C17.8 7.30005 17.9 7.10005 18.1 6.90005C18.3 6.70005 18.6001 6.50005 18.9001 6.30005C19.2001 6.10005 19.6 5.80005 20.1 5.50005C20.5 5.20005 21 4.70005 21.5 4.10005C22.4 3.00005 23 2.10005 23.5 1.40005C23.9 0.600049 24.3 0.300049 24.6 0.300049C24.9 0.300049 25 0.40005 25.1 0.70005C25.2 0.90005 25.2001 1.30005 25.2001 1.70005V5.10005H25.1Z" fill="black"/>
<path d="M49 24.3001C49 25.5001 49.0999 26.4001 49.1999 27.0001C49.3999 27.6001 49.7 27.9001 50.4 27.9001C50.8 27.9001 51.2 27.7001 51.5 27.3001C51.8 26.9001 52.2 26.7001 52.5 26.7001C53 26.7001 53.1999 27.0001 53.1999 27.5001C53.1999 27.8001 52.9999 28.2001 52.6999 28.6001C52.3999 29.0001 52 29.5001 51.5 29.9001C51 30.3001 50.5 30.7001 50 31.0001C49.5 31.3001 49 31.5001 48.5 31.5001C47.5 31.5001 46.6999 31.2001 46.0999 30.5001C45.4999 29.9001 44.9 28.9001 44.5 27.6001H44.1999L43 28.6001C42 29.4001 41.0999 30.1001 40.1999 30.7001C39.2999 31.3001 38.3999 31.6001 37.2999 31.6001C36.0999 31.6001 35.1 31.2001 34.4 30.4001C33.7 29.6001 33.2999 28.5001 33.2999 27.0001C33.2999 25.8001 33.5 24.7001 33.9 23.7001C34.3 22.8001 34.9 21.9001 35.7 21.1001C36.5 20.3001 37.3999 19.6001 38.5999 18.9001C39.6999 18.2001 41 17.5001 42.3 16.9001L43.6999 16.2001C43.9999 16.0001 44.1999 15.9001 44.1999 15.7001C44.2999 15.5001 44.3 15.2001 44.3 14.8001V10.8001C44.3 9.2001 44.2 8.1001 43.9 7.4001C43.7 6.7001 42.9999 6.3001 42.0999 6.3001C41.0999 6.3001 40.3 6.6001 39.8 7.3001C39.2 8.0001 38.7 8.9001 38.2 10.1001C37.8 11.0001 37.2999 11.8001 36.7999 12.5001C36.2999 13.2001 35.4999 13.5001 34.2999 13.5001C33.9999 13.5001 33.7 13.4001 33.5 13.2001C33.3 13.0001 33.2 12.8001 33.2 12.5001C33.2 11.7001 33.5 10.8001 34 9.9001C34.5 9.0001 35.2 8.1001 36.2 7.3001C37.1 6.5001 38.2 5.9001 39.5 5.4001C40.8 4.9001 42.0999 4.6001 43.5999 4.6001C44.7999 4.6001 45.8 4.7001 46.5 5.0001C47.2 5.3001 47.7999 5.7001 48.1999 6.2001C48.5999 6.7001 48.8 7.4001 48.9 8.2001C49 9.0001 49.0999 9.9001 49.0999 11.0001V24.3001H49ZM44 17.9001C43.9 17.9001 43.7 18.0001 43.4 18.1001L41.5 19.0001C39.3 20.1001 38.2 22.0001 38.2 24.6001C38.2 25.7001 38.3999 26.5001 38.7999 27.1001C39.1999 27.7001 39.7 27.9001 40.3 27.9001C40.8 27.9001 41.1999 27.8001 41.6999 27.5001C42.1999 27.3001 42.6 26.9001 42.9 26.5001C43.2 26.1001 43.6 25.5001 43.8 24.9001C44 24.3001 44.1999 23.6001 44.1999 22.9001V18.4001C44.2999 18.2001 44.2 17.9001 44 17.9001Z" fill="black"/>
<path d="M61.3 5.10005C61.3 5.60005 61.5 5.80005 62 5.80005H66.2C66.5 5.80005 66.7 5.80005 66.8 5.90005C66.9 6.00005 66.9 6.10005 66.9 6.40005V7.50005C66.9 7.80005 66.9 8.00005 66.8 8.10005C66.7 8.20005 66.5 8.30005 66.2 8.30005H61.9C61.4 8.30005 61.2 8.50005 61.2 9.00005V23.3C61.2 25.1 61.4 26.4001 61.7 27.2001C62 28.0001 62.6 28.4001 63.5 28.4001C63.9 28.4001 64.3 28.3001 64.6 28.2001C64.9 28.1001 65.2 27.9001 65.5 27.7001C65.8 27.5001 66 27.3001 66.2 27.2001C66.4 27.0001 66.6 27 66.8 27C67.2 27 67.4 27.3 67.4 27.8C67.4 28.1 67.2 28.4001 66.9 28.9001C66.6 29.4001 66.1 29.8 65.5 30.3C64.9 30.8 64.2 31.1 63.5 31.5C62.7 31.8 61.9 32 61.1 32C58.2 32 56.7 29.6 56.7 24.8V22.4001L56.8 10C56.8 9.50005 56.8 9.00005 56.7 8.70005C56.6 8.40005 56.4 8.20005 56 8.20005H55C54.3 8.20005 54 8.00005 54 7.50005C54 7.30005 54.1 7.10005 54.3 6.90005C54.5 6.70005 54.8 6.50005 55.1 6.30005C55.4 6.10005 55.8 5.80005 56.3 5.50005C56.7 5.20005 57.2 4.70005 57.7 4.10005C58.6 3.00005 59.2 2.10005 59.7 1.40005C60.1 0.600049 60.5 0.300049 60.8 0.300049C61.1 0.300049 61.2 0.40005 61.3 0.70005C61.4 0.90005 61.4 1.30005 61.4 1.70005V5.10005H61.3Z" fill="black"/>
<path d="M74.7 14.7001C74.4 14.7001 74.2 14.8001 74.1 14.9001C74 15.0001 74 15.3001 74 15.6001V17.0001C74 20.5001 74.7 23.3001 76.2 25.3001C77.7 27.3001 79.6 28.3001 82 28.3001C83.1 28.3001 84 28.1001 84.7 27.8001C85.5 27.5001 86.1 27.1001 86.6 26.7001C87.1 26.3001 87.5 25.9001 87.8 25.6001C88.1 25.3001 88.3 25.1001 88.4 25.1001C88.7 25.1001 88.9 25.3001 88.9 25.7001C88.9 26.1001 88.7 26.7001 88.2 27.3001C87.7 28.0001 87.1 28.6001 86.3 29.3001C85.5 30.0001 84.4 30.5001 83.3 31.0001C82.1 31.5001 80.8 31.7001 79.4 31.7001C77.9 31.7001 76.5 31.4001 75.2 30.8001C73.9 30.2001 72.9 29.3001 72 28.1001C71.1 26.9001 70.4 25.5001 69.9 23.9001C69.4 22.2001 69.2 20.4001 69.2 18.3001C69.2 16.2001 69.5 14.4001 70 12.7001C70.5 11.0001 71.3 9.60007 72.3 8.40007C73.3 7.20007 74.4 6.30007 75.8 5.70007C77.1 5.10007 78.6 4.70007 80.2 4.70007C81.6 4.70007 82.8 4.90007 83.9 5.40007C85 5.90007 86 6.50007 86.8 7.30007C87.6 8.10007 88.2 9.00007 88.6 10.1001C89 11.2001 89.2 12.3001 89.2 13.5001C89.2 14.0001 89 14.3001 88.7 14.5001C88.4 14.6001 87.9 14.7001 87.2 14.7001H74.7V14.7001ZM82.9 12.4001C83.7 12.0001 84.2 11.2001 84.2 9.90007C84.2 9.00007 83.8 8.10007 83 7.30007C82.2 6.50007 81.2 6.10007 80 6.10007C78.7 6.10007 77.5 6.60007 76.6 7.60007C75.6 8.60007 75 9.90007 74.7 11.4001L74.5 12.3001V12.4001C74.5 12.7001 74.7 12.9001 75.2 12.9001H78.9C80.7 13.0001 82.1 12.8001 82.9 12.4001Z" fill="black"/>
<path d="M109.3 37.9H109.7C109.9 37.9 110.1 38 110.3 38.1C110.4 38.2 110.5 38.4 110.5 38.7C110.5 38.9 109.5 41.3 107.4 46C105.3 50.6 103.4 55.4 101.7 60.3L89.3999 95C88.5999 97.4 87.8999 99.6 87.3999 101.7C86.8999 103.8 86.5999 105.3 86.5999 106.1C86.5999 107.4 86.8999 108.4 87.4999 109.1C88.0999 109.8 89.0999 110.3 90.5999 110.7C90.9999 110.8 91.4999 110.9 92.1999 111C93.6999 111.2 94.3999 111.6 94.3999 112.1C94.3999 112.2 94.3999 112.3 94.2999 112.4C94.2999 112.5 94.1999 112.6 94.0999 112.7L92.4999 114C92.1999 114.2 91.8999 114.4 91.3999 114.5C90.8999 114.6 90.2999 114.7 89.6999 114.7C89.2999 114.7 87.6999 114.6 84.9999 114.3C82.2999 114 79.8999 113.9 77.6999 113.9C75.4999 113.9 73.0999 114 70.2999 114.3C67.4999 114.6 65.8999 114.7 65.2999 114.7C64.6999 114.7 64.1999 114.6 63.8999 114.5C63.5999 114.4 63.3999 114.1 63.3999 113.8C63.3999 113.6 63.3999 113.5 63.4999 113.4C63.5999 113.3 63.5999 113.2 63.5999 113.2L64.9999 111.7C65.2999 111.3 66.1999 111 67.4999 110.8C68.7999 110.5 69.7999 110.3 70.3999 110C71.8999 109.3 73.2999 108.3 74.4999 106.8C75.6999 105.3 76.6999 103.4 77.5999 101L90.8999 64.4C91.3999 63.1 91.6999 61.8 91.9999 60.6C92.1999 59.4 92.3999 58.4 92.3999 57.4C92.3999 56 92.0999 54.9 91.4999 54.2C90.8999 53.5 89.9999 53.1 88.7999 53.1C87.1999 53.1 85.5999 53.3 83.7999 53.7C83.2999 53.8 82.9999 53.9 82.8999 53.9C82.5999 53.9 82.3999 53.8 82.1999 53.7C81.9999 53.6 81.9999 53.4 81.9999 53.2C81.9999 53.1 81.9999 53.1 81.9999 53C81.9999 52.9 81.9999 52.9 82.0999 52.7L82.9999 51C83.5999 50 85.2999 49.3 88.0999 48.7C90.9999 48.1 93.2999 47.5 95.1999 46.8C98.0999 45.7 100.8 44 103.3 41.8C105.8 39.6 107.4 38.4 108.1 38.3L109.3 37.9Z" fill="black"/>
<path d="M88.5 19.2C120.3 19.2 146.1 45 146.1 76.8" stroke="black" stroke-width="2.6249"/>
</svg>
