<svg width="539" height="161" viewBox="0 0 539 161" fill="none" xmlns="http://www.w3.org/2000/svg">
<path d="M240.8 66.5L244.1 66H244.7C245 66.1 245.2 66.2 245.4 66.3C245.6 66.4 245.7 66.6 245.7 66.7C245.7 67.3 244.9 69.2 243.3 72.3C241.7 75.4 240.4 78.3 239.4 81C238.9 82.4 238.3 84.2 237.7 86.3C236.7 89.7 235.5 91.6 234.1 92.2L231.4 93.3C231.3 93.3 231.3 93.3 231.1 93.4C231 93.5 230.9 93.5 230.8 93.5C230.5 93.5 230.3 93.4 230.1 93.2C229.9 93 229.8 92.7 229.8 92.4C229.8 92.1 230 91 230.5 89.3C231 87.6 231.2 86 231.2 84.6C231.2 81.6 230.2 79.3 228.1 77.6C226 75.9 223 75.2 219.1 75.2C214.6 75.2 210.2 76.4 205.7 78.8C201.3 81.2 197.1 84.6 193.4 89.1C188.9 94.4 185.3 100.5 182.8 107.3C180.2 114.1 179 120.8 179 127.5C179 133.8 180.4 138.7 183.3 142.2C186.1 145.6 190.2 147.3 195.4 147.3C198.5 147.3 201.6 146.7 204.7 145.5C207.8 144.3 211.5 142.3 215.6 139.4C217.4 138.2 219.5 136.6 221.9 134.6C224.3 132.6 225.8 131.6 226.5 131.6C226.8 131.6 227.1 131.7 227.3 131.9C227.6 132.1 227.7 132.4 227.7 132.6C227.6 132.8 227.5 133.2 227.4 133.6L226 138.5C225.6 140 223.6 141.8 220.1 143.9C219.1 144.5 218.2 145.1 217.6 145.5C215.9 146.6 213.4 148.3 210.2 150.6C200.7 157.2 193.2 160.5 187.8 160.5C180.6 160.5 174.7 157.7 170.1 152.1C165.4 146.5 163.1 139.4 163.1 130.8C163.1 123 165 115.1 168.9 107C172.7 98.9 178.2 91.4 185.3 84.5C191.7 78.3 198.2 73.6 204.8 70.4C211.4 67.2 217.9 65.6 224.4 65.6C227.4 65.6 230.4 65.9 233.4 66.4C236.5 67 238 67.2 238.2 67.2C238.6 67.2 239.1 67.1 239.6 67C239.9 66.9 240.3 66.7 240.8 66.5Z" fill="white"/>
<path d="M329.2 101.2L319.9 123.2C318.3 126.9 317.1 130.1 316.4 132.6C315.7 135.2 315.3 137.4 315.3 139.2C315.3 141.5 315.9 143.3 317 144.6C318.1 145.9 319.6 146.5 321.6 146.5C323 146.5 324.6 146.1 326.5 145.1C328.4 144.2 329.6 143.7 330.1 143.7C330.6 143.7 331 143.8 331.2 144C331.4 144.2 331.5 144.4 331.5 144.8V145.2L330.8 147.8C330.5 149 329.1 150.2 326.7 151.5C325.6 152.1 324.7 152.5 324.2 152.9C323 153.6 321.4 154.7 319.4 156.2C315.8 159 313 160.4 311 160.4C307.6 160.4 304.7 158.8 302.5 155.7C300.2 152.6 299.1 148.5 299.1 143.6C299.1 141.2 299.4 138.5 300.1 135.7C300.8 132.9 301.9 129.6 303.4 125.9L314 100.4C315.2 97.5 316.1 94.9 316.8 92.6C317.4 90.3 317.8 88.4 317.8 86.8C317.8 84.4 317 82.5 315.5 80.9C314 79.4 312.1 78.6 309.7 78.6C303.1 78.6 295.8 82.8 287.8 91.1C279.8 99.4 273.7 109.8 269.6 122.1L259 153.5C258.4 155.5 257.7 156.7 257.2 157.2C256.6 157.7 255.8 157.9 254.8 157.9H249.2H245.4C244.4 157.9 243.6 157.7 243 157.4C242.4 157.1 242.1 156.6 242.1 155.9C242.1 155.8 242.2 155.5 242.3 155.2C242.4 154.8 242.6 154.4 242.7 153.9L260.7 105.2C262.6 100.2 263.9 96.1 264.8 92.9C265.7 89.7 266.1 87 266.1 85C266.1 83 265.7 81.5 264.8 80.4C264 79.3 262.8 78.8 261.3 78.8C260.8 78.8 259.9 78.9 258.7 79.2C257.5 79.5 256.5 79.6 255.7 79.6C255.2 79.6 254.8 79.5 254.5 79.3C254.2 79.1 254 78.9 254 78.7C254 78.5 254 78.3 254 78.1C254 78 254.1 77.8 254.1 77.7L255.3 75.6C256 74.2 258.2 73.1 262 72.2C264.6 71.6 266.7 71 268.3 70.5C270.1 69.9 272.4 68.9 275.1 67.5C277.8 66.1 279.8 65.4 280.9 65.4C282.4 65.4 283.5 66.1 284.5 67.4C285.4 68.7 285.9 70.5 285.9 72.5C285.9 74.1 285.6 76.1 285 78.5C284.4 80.9 283.5 83.8 282.1 87.3C291 79.7 298.4 74.2 304.4 70.6C310.4 67.1 315.3 65.3 319.1 65.3C323.2 65.3 326.7 67 329.6 70.3C332.5 73.6 333.9 77.8 333.9 82.8C333.9 85.2 333.5 87.9 332.8 90.7C332.1 93.8 330.9 97.2 329.2 101.2Z" fill="white"/>
<path d="M402.3 49.7L393.6 70.8H394.1C399.4 71 403.4 71.1 405.9 71.1C408.3 71.1 410.9 70.6 413.5 69.6C416.1 68.6 417.6 68.1 417.9 68.1C418.4 68.1 418.8 68.3 419.1 68.6C419.4 68.9 419.6 69.3 419.6 69.7C419.6 71.7 418.3 73.9 415.6 76.5C413 79 410 80.3 406.7 80.3C405.1 80.3 402.9 80.2 400.2 80C397.5 79.8 394.4 79.5 390.9 79.1L372.3 128.7C371.5 130.7 371 132.5 370.6 134.2C370.2 135.9 370 137.5 370 138.9C370 141.8 370.7 144 372 145.6C373.4 147.2 375.3 148 377.8 148C379.6 148 381.5 147.6 383.4 146.8C385.3 146 387.5 144.6 390 142.7C390.9 142 392 141.1 393.3 139.9C395 138.4 396.1 137.7 396.8 137.7C397.3 137.7 397.7 137.8 398 138C398.3 138.2 398.4 138.4 398.4 138.8C398.3 139.1 398.2 139.4 398.2 139.5L396.4 144.1C395.9 145.4 394.3 147 391.6 148.8C391 149.2 390.6 149.5 390.4 149.7L389.2 150.5C379.4 157.2 372.4 160.6 368.1 160.6C363.6 160.6 360 159.1 357.3 156.2C354.6 153.3 353.2 149.4 353.2 144.5C353.2 142.1 353.6 139.3 354.4 136.1C355.2 133 356.6 128.6 358.7 122.9L375 79.1H367C366.4 79.1 365.9 79 365.5 78.8C365.2 78.6 365 78.4 365 78.2C365 77.9 365 77.7 365.1 77.5C365.2 77.4 365.2 77.2 365.4 77L367.2 74.5C367.5 74 370.1 72.7 374.8 70.8C379.5 68.9 383.5 66.2 386.7 62.7C388.4 60.8 390.6 58.2 393.2 54.8C396.6 50.1 399.3 47.8 401.2 47.8C401.6 47.8 401.9 47.9 402.2 48.1C402.5 48.3 402.6 48.6 402.6 48.9V49.2V49.7H402.3Z" fill="white"/>
<path d="M438.3 129.2L430.1 153.5C429.5 155.5 428.8 156.7 428.3 157.2C427.7 157.7 426.9 157.9 425.9 157.9H420.3H416.5C415.5 157.9 414.7 157.7 414.1 157.4C413.5 157.1 413.2 156.6 413.2 155.9C413.2 155.8 413.3 155.5 413.4 155.2C413.5 154.8 413.7 154.4 413.8 153.9L431.8 105.2C433.7 100.2 435 96.1 435.9 92.9C436.8 89.7 437.2 87 437.2 85C437.2 83 436.8 81.5 435.9 80.4C435.1 79.3 433.9 78.8 432.4 78.8C431.9 78.8 431 78.9 429.8 79.1C428.6 79.3 427.6 79.4 426.8 79.4C426.3 79.4 425.9 79.3 425.5 79.1C425.2 78.9 425 78.7 425 78.5C425 78.3 425 78.2 425 78.2C425 78.1 425.1 78.1 425.1 78L426.3 75.6C427 74.3 429.1 73.2 432.5 72.5C434.9 72 436.8 71.5 438.3 71C440.3 70.3 442.7 69.3 445.5 67.9C448.3 66.6 450.2 65.9 451.2 65.9C452.5 65.9 453.6 66.5 454.3 67.6C455.1 68.8 455.4 70.4 455.4 72.5C455.4 74.5 454.8 77.3 453.6 81C452.4 84.7 450.3 90.3 447.2 97.8C456.2 84.9 463 76.2 467.7 71.8C472.4 67.4 476.8 65.2 480.8 65.2C483.9 65.2 486.6 65.8 488.9 67.1C491.2 68.4 492.4 69.7 492.4 71.1C492.4 72.3 491.1 74.6 488.5 78C485.9 81.4 484.1 83.1 483.3 83.1C482.3 83.1 480.7 82.5 478.6 81.3C476.5 80.1 474.9 79.5 473.7 79.5C468.7 79.5 462.7 84.2 455.7 93.6C448.9 103.4 443 115.1 438.3 129.2Z" fill="white"/>
<path d="M532 58.3L508.6 123.2C507.4 126.5 506.4 129.6 505.7 132.5C505 135.4 504.7 137.7 504.7 139.4C504.7 141.7 505.2 143.5 506.2 144.7C507.2 145.9 508.7 146.5 510.6 146.5C511.9 146.5 513.5 146.1 515.4 145.1C517.3 144.2 518.6 143.7 519.2 143.7C519.5 143.7 519.8 143.8 520.1 144C520.3 144.2 520.4 144.5 520.4 144.7V145.1L519.7 147.7C519.4 148.9 518 150.1 515.6 151.3C514.4 151.9 513.5 152.4 512.9 152.8C511.8 153.5 510.3 154.6 508.4 156C504.9 158.8 502 160.3 499.9 160.3C496.5 160.3 493.7 158.7 491.4 155.6C489.1 152.5 487.9 148.6 487.9 144C487.9 141.8 488.2 139.3 488.8 136.7C489.4 134 490.6 130.4 492.2 125.8L514.7 63.9C516.3 59.5 517.5 55.6 518.4 52.2C519.3 48.8 519.7 46.2 519.7 44.4C519.7 42.3 519.3 40.7 518.5 39.6C517.7 38.5 516.6 37.9 515.2 37.9C514.6 37.9 513.6 38 512.2 38.2C510.9 38.4 509.9 38.5 509.2 38.5C508.7 38.5 508.3 38.4 508 38.3C507.7 38.2 507.6 37.9 507.6 37.6C507.6 37.4 507.6 37.3 507.6 37.3C507.6 37.2 507.7 37.2 507.7 37.1L508.7 34.7C509.4 33.4 511.5 32.3 514.9 31.6C517.2 31.1 519 30.6 520.5 30.1C522.2 29.5 524.5 28.6 527.4 27.4C530.2 26.2 532.2 25.6 533.2 25.6C534.9 25.6 536.3 26.3 537.3 27.6C538.3 28.9 538.8 30.8 538.8 33.3C538.8 35 538.4 37.4 537.4 40.7C536.9 44.3 534.9 50 532 58.3Z" fill="white"/>
<path d="M89.4999 19.1C121.3 19.1 147.1 44.9 147.1 76.7C147.1 108.5 121.3 134.3 89.4999 134.3C57.6999 134.3 31.8999 108.5 31.8999 76.7" stroke="white" stroke-width="2.6249"/>
<path d="M91.2 43H115.2C116.5 43 117.9 42.9 119.5 42.8C121.1 42.7 122.1 42.6 122.5 42.6C123 42.6 123.3 42.7 123.4 42.8C123.5 42.9 123.6 43.2 123.6 43.5C123.5 43.7 123.5 44 123.4 44.4L123 46.2C122.7 47.3 121.6 48.8 119.6 50.5C118.9 51.1 118.3 51.6 117.9 52L98.5 70.5C102.7 70.6 105.9 71.9 108.3 74.3C110.7 76.7 111.8 79.9 111.8 84C111.8 87.2 111 90.4 109.4 93.7C107.8 97 105.5 100.2 102.5 103.2C98 107.7 93.1 111.2 87.9 113.7C82.7 116.2 77.6 117.5 72.7 117.5C67.5 117.5 63 116.2 59.2 113.5C55.4 110.8 53.5 107.9 53.5 104.6C53.5 102.9 54.6 101.4 56.8 99.9C57.5 99.5 58 99.1 58.3 98.9L64.3 94.4L64.5 94.3C65.9 93.3 66.9 92.8 67.5 92.8H67.9L69.4 93.1C69.7 93.2 70 93.3 70.2 93.4C70.4 93.5 70.5 93.7 70.5 93.9C70.5 94.2 69.6 95.3 67.7 97.1C65.8 98.9 64.9 100.7 64.9 102.4C64.9 104.7 66.1 106.7 68.4 108.3C70.7 109.9 73.6 110.7 77.1 110.7C80.5 110.7 83.9 109.9 87.1 108.4C90.3 106.9 93.3 104.6 96 101.7C97.9 99.7 99.3 97.4 100.3 95C101.3 92.6 101.8 90.1 101.8 87.6C101.8 84.5 101 82.1 99.4 80.4C97.8 78.7 95.5 77.9 92.5 77.9C92.5 77.9 92.2 77.9 91.6 78C91 78.1 90.5 78.1 90 78.1C89.7 78.1 89.3 78 89 77.9C88.7 77.8 88.4 77.6 88.1 77.5L86.6 76.4C86.4 76.2 86.2 76 86.1 75.9C86 75.7 85.9 75.6 85.9 75.4C85.9 75.1 86.1 74.8 86.5 74.3C86.9 73.8 87.6 73.1 88.7 72.2L111.1 51.3H94.7C90.8 51.3 87.8 51.6 85.9 52.3C84 53 82.3 54.2 80.7 55.8C80.4 56.2 80 56.7 79.4 57.4C78.5 58.8 77.6 59.6 76.8 59.9L74.8 60.6C74.7 60.7 74.5 60.7 74.5 60.7C74.5 60.7 74.3 60.7 74.1 60.7C73.9 60.7 73.8 60.7 73.7 60.6C73.6 60.5 73.6 60.4 73.6 60.2C73.6 60 74.1 58.9 75.1 57C76.1 55.1 77 53.1 77.8 51.3C78.3 50 79 48.4 79.7 46.5C80.4 44.5 80.9 43.4 81.3 43.2L82.2 42.6C82.3 42.5 82.4 42.5 82.6 42.4C82.8 42.3 82.9 42.3 83.1 42.3L83.5 42.4C85.8 42.7 88.3 43 91.2 43Z" fill="white"/>
<path d="M13.8 5.20013C14.7 5.70013 15.1 6.40015 15.1 7.40015C15.1 8.70015 15.0001 9.70011 14.9001 10.3001C14.8001 10.9001 14.5001 11.2001 14.2001 11.2001C13.8001 11.2001 13.5 10.9001 13.5 10.4001C13.4 9.90015 13.2001 9.20015 12.7001 8.40015C11.8001 6.80015 10.5 6.00012 9.00005 6.00012C7.90005 6.00012 7.00005 6.30015 6.40005 6.90015C5.70005 7.50015 5.40005 8.30011 5.40005 9.30011C5.40005 9.90011 5.50005 10.5001 5.80005 10.9001C6.10005 11.3001 6.40005 11.7001 6.90005 12.1001C7.40005 12.5001 8.00005 12.8001 8.70005 13.2001C9.40005 13.6001 10.2 14.0001 11 14.4001C12.8 15.4001 14.2 16.5001 15.1 17.7001C16 18.9001 16.4001 20.4001 16.4001 22.3001C16.4001 23.7001 16.2 25.0001 15.8 26.1001C15.4 27.2001 14.8 28.2001 14 28.9001C13.2 29.7001 12.3001 30.3001 11.2001 30.7001C10.1001 31.1001 9.00005 31.3001 7.70005 31.3001C6.40005 31.3001 5.30005 31.2001 4.30005 30.9001C3.30005 30.6001 2.50005 30.3001 2.00005 30.0001C1.70005 29.8001 1.50005 29.6001 1.40005 29.3001C1.30005 29.0001 1.30005 28.6001 1.30005 28.1001V26.7001C1.30005 25.2001 1.30005 24.0001 1.40005 23.3001C1.50005 22.6001 1.70005 22.3001 2.10005 22.3001C2.40005 22.3001 2.60005 22.4001 2.70005 22.6001C2.80005 22.8001 2.90005 23.1001 3.00005 23.4001C3.10005 23.8001 3.20005 24.2001 3.30005 24.7001C3.40005 25.2001 3.60005 25.8001 3.90005 26.4001C5.00005 28.7001 6.50005 29.8001 8.40005 29.8001C9.60005 29.8001 10.6001 29.4001 11.4001 28.6001C12.2001 27.8001 12.6 26.7001 12.6 25.3001C12.6 24.6001 12.5001 24.0001 12.2001 23.4001C12.0001 22.9001 11.6 22.4001 11.1 21.9001C10.6 21.5001 10.1001 21.1001 9.40005 20.7001C8.70005 20.3001 8.00005 19.9001 7.10005 19.4001C6.20005 18.9001 5.30005 18.4001 4.60005 18.0001C3.90005 17.5001 3.30005 17.0001 2.80005 16.5001C2.30005 16.0001 1.90005 15.3001 1.70005 14.6001C1.50005 13.9001 1.30005 13.1001 1.30005 12.1001C1.30005 9.8001 2.00005 7.90012 3.50005 6.50012C4.90005 5.10012 6.80005 4.40015 9.10005 4.40015C11.3 4.50015 12.9 4.80013 13.8 5.20013Z" fill="white"/>
<path d="M26.1001 4.80005C26.1001 5.30005 26.3001 5.50006 26.8001 5.50006H31.0001C31.3001 5.50006 31.5001 5.50004 31.6001 5.60004C31.7001 5.70004 31.7001 5.80004 31.7001 6.10004V7.20007C31.7001 7.50007 31.7001 7.70005 31.6001 7.80005C31.5001 7.90005 31.3001 8.00006 31.0001 8.00006H26.7001C26.2001 8.00006 26.0001 8.20007 26.0001 8.70007V23.0001C26.0001 24.8001 26.2001 26.1001 26.5001 26.9001C26.8001 27.7001 27.4001 28.1 28.3001 28.1C28.7001 28.1 29.1001 28.0001 29.4001 27.9001C29.7001 27.8001 30.0001 27.6001 30.3001 27.4001C30.6001 27.2001 30.8001 27.0001 31.0001 26.9001C31.2001 26.8001 31.4001 26.7001 31.6001 26.7001C32.0001 26.7001 32.2001 27.0001 32.2001 27.5001C32.2001 27.8001 32.0001 28.1 31.7001 28.6C31.4001 29.1 30.9001 29.5001 30.3001 30.0001C29.7001 30.5001 29.0001 30.8001 28.3001 31.2001C27.5001 31.5001 26.7001 31.7001 25.9001 31.7001C23.0001 31.7001 21.5001 29.3001 21.5001 24.5001V22.1L21.7001 10.0001C21.7001 9.50006 21.7001 9.00007 21.6001 8.70007C21.5001 8.40007 21.3001 8.20007 20.9001 8.20007H19.9001C19.2001 8.20007 18.9001 8.00006 18.9001 7.50006C18.9001 7.30006 19.0001 7.10009 19.2001 6.90009C19.4001 6.70009 19.7001 6.50005 20.0001 6.30005C20.3001 6.10005 20.7001 5.80006 21.2001 5.50006C21.6001 5.20006 22.1001 4.70004 22.6001 4.10004C23.5001 3.00004 24.1001 2.10009 24.6001 1.40009C25.0001 0.600085 25.4001 0.300049 25.7001 0.300049C26.0001 0.300049 26.1001 0.400073 26.2001 0.700073C26.3001 0.900073 26.3001 1.30007 26.3001 1.70007V4.80005H26.1001Z" fill="white"/>
<path d="M50 24.0001C50 25.2001 50.0999 26.1001 50.1999 26.7001C50.3999 27.3001 50.7 27.6 51.4 27.6C51.8 27.6 52.2 27.4001 52.5 27.0001C52.8 26.6001 53.2 26.4001 53.5 26.4001C54 26.4001 54.1999 26.7001 54.1999 27.2001C54.1999 27.5001 53.9999 27.9 53.6999 28.3C53.3999 28.7 53 29.2 52.5 29.6C52 30 51.5 30.4001 51 30.7001C50.5 31.0001 50 31.2001 49.5 31.2001C48.5 31.2001 47.6999 30.9001 47.0999 30.2001C46.4999 29.6001 45.9 28.6 45.5 27.3H45.1999L44 28.3C43 29.1 42.0999 29.8001 41.1999 30.4001C40.2999 31.0001 39.3999 31.3 38.2999 31.3C37.0999 31.3 36.1 30.9 35.4 30.1C34.7 29.3 34.2999 28.2001 34.2999 26.7001C34.2999 25.5001 34.5 24.4001 34.9 23.4001C35.3 22.5001 35.9 21.6 36.7 20.8C37.5 20 38.3999 19.3 39.5999 18.6C40.6999 17.9 42 17.2 43.3 16.6L44.6999 15.9001C44.9999 15.7001 45.1999 15.6001 45.1999 15.4001C45.2999 15.2001 45.3 14.9001 45.3 14.5001V10.5001C45.3 8.90006 45.2 7.80004 44.9 7.10004C44.7 6.40004 43.9999 6.00006 43.0999 6.00006C42.0999 6.00006 41.3 6.30006 40.8 7.00006C40.2 7.70006 39.7 8.60005 39.2 9.80005C38.8 10.7 38.2999 11.5001 37.7999 12.2001C37.2999 12.9001 36.4999 13.2001 35.2999 13.2001C34.9999 13.2001 34.7 13.1001 34.5 12.9001C34.3 12.7001 34.2 12.5001 34.2 12.2001C34.2 11.4001 34.5 10.5 35 9.60004C35.5 8.70004 36.2 7.80006 37.2 7.00006C38.1 6.20006 39.2 5.60004 40.5 5.10004C41.8 4.60004 43.0999 4.30005 44.5999 4.30005C45.7999 4.30005 46.8 4.40007 47.5 4.70007C48.2 5.00007 48.7999 5.40009 49.1999 5.90009C49.5999 6.40009 49.8 7.10009 49.9 7.90009C50 8.70009 50.0999 9.60007 50.0999 10.7001V24.0001H50ZM45 17.7001C44.9 17.7001 44.7 17.8001 44.4 17.9001L42.5 18.8C40.3 19.9 39.2 21.8001 39.2 24.4001C39.2 25.5001 39.3999 26.3001 39.7999 26.9001C40.1999 27.5001 40.7 27.7001 41.3 27.7001C41.8 27.7001 42.1999 27.6 42.6999 27.3C43.1999 27.1 43.6 26.7 43.9 26.3C44.2 25.9 44.6 25.3001 44.8 24.7001C45 24.1001 45.1999 23.4001 45.1999 22.7001V18.2001C45.2999 17.9001 45.2 17.7001 45 17.7001Z" fill="white"/>
<path d="M62.3001 4.80005C62.3001 5.30005 62.5001 5.50006 63.0001 5.50006H67.2001C67.5001 5.50006 67.7001 5.50004 67.8001 5.60004C67.9001 5.70004 67.9001 5.80004 67.9001 6.10004V7.20007C67.9001 7.50007 67.9001 7.70005 67.8001 7.80005C67.7001 7.90005 67.5001 8.00006 67.2001 8.00006H62.9001C62.4001 8.00006 62.2001 8.20007 62.2001 8.70007V23.0001C62.2001 24.8001 62.4001 26.1001 62.7001 26.9001C63.0001 27.7001 63.6001 28.1 64.5001 28.1C64.9001 28.1 65.3001 28.0001 65.6001 27.9001C65.9001 27.8001 66.2001 27.6001 66.5001 27.4001C66.8001 27.2001 67.0001 27.0001 67.2001 26.9001C67.4001 26.8001 67.6001 26.7001 67.8001 26.7001C68.2001 26.7001 68.4001 27.0001 68.4001 27.5001C68.4001 27.8001 68.2001 28.1 67.9001 28.6C67.6001 29.1 67.1001 29.5001 66.5001 30.0001C65.9001 30.5001 65.2001 30.8001 64.5001 31.2001C63.7001 31.5001 62.9001 31.7001 62.1001 31.7001C59.2001 31.7001 57.7001 29.3001 57.7001 24.5001V22.1L57.9001 10.0001C57.9001 9.50006 57.9001 9.00007 57.8001 8.70007C57.7001 8.40007 57.5001 8.20007 57.1001 8.20007H56.1001C55.4001 8.20007 55.1001 8.00006 55.1001 7.50006C55.1001 7.30006 55.2001 7.10009 55.4001 6.90009C55.6001 6.70009 55.9001 6.50005 56.2001 6.30005C56.5001 6.10005 56.9001 5.80006 57.4001 5.50006C57.8001 5.20006 58.3001 4.70004 58.8001 4.10004C59.7001 3.00004 60.3001 2.10009 60.8001 1.40009C61.2001 0.600085 61.6001 0.300049 61.9001 0.300049C62.2001 0.300049 62.3001 0.400073 62.4001 0.700073C62.5001 0.900073 62.5001 1.30007 62.5001 1.70007V4.80005H62.3001Z" fill="white"/>
<path d="M75.7 14.4001C75.4 14.4001 75.2 14.5001 75.1 14.6001C75 14.7001 75 15.0001 75 15.3001V16.7001C75 20.2001 75.7 23.0001 77.2 25.0001C78.7 27.0001 80.6 28.0001 83 28.0001C84.1 28.0001 85 27.8001 85.7 27.5001C86.5 27.2001 87.1 26.8001 87.6 26.4001C88.1 26.0001 88.5 25.6001 88.8 25.3001C89.1 25.0001 89.3 24.8001 89.4 24.8001C89.7 24.8001 89.9 25.0001 89.9 25.4001C89.9 25.8001 89.7 26.4001 89.2 27.0001C88.7 27.7001 88.1 28.3001 87.3 29.0001C86.5 29.7001 85.4 30.2001 84.3 30.7001C83.1 31.2001 81.8 31.4001 80.4 31.4001C78.9 31.4001 77.5 31.1001 76.2 30.5001C74.9 29.9001 73.9 29.0001 73 27.8001C72.1 26.6001 71.4 25.2001 70.9 23.6001C70.4 21.9001 70.2 20.1001 70.2 18.0001C70.2 15.9001 70.5 14.1001 71 12.4001C71.5 10.7001 72.3 9.3001 73.3 8.1001C74.3 6.9001 75.4 6.00015 76.8 5.40015C78.2 4.80015 79.6 4.40015 81.2 4.40015C82.6 4.40015 83.8 4.6001 84.9 5.1001C86 5.6001 87 6.20012 87.8 7.00012C88.6 7.80012 89.2 8.70011 89.6 9.80011C90 10.9001 90.2 12.0001 90.2 13.2001C90.2 13.7001 90 14.0001 89.7 14.2001C89.4 14.3001 88.9 14.4001 88.2 14.4001H75.7ZM83.9 12.1001C84.7 11.7001 85.2 10.9001 85.2 9.6001C85.2 8.7001 84.8 7.80012 84 7.00012C83.2 6.20012 82.2 5.80011 81 5.80011C79.7 5.80011 78.5 6.30011 77.6 7.30011C76.6 8.30011 76 9.6001 75.7 11.1001L75.5 12.0001V12.1001C75.5 12.4001 75.7 12.6001 76.2 12.6001H79.9C81.7 12.7001 83.1 12.5001 83.9 12.1001Z" fill="white"/>
<path d="M13.5001 5.19995C14.4001 5.69995 14.8001 6.39996 14.8001 7.39996C14.8001 8.69996 14.7001 9.69993 14.6001 10.2999C14.5001 10.8999 14.2001 11.2 13.9001 11.2C13.5001 11.2 13.2001 10.9 13.2001 10.4C13.1001 9.89996 12.9001 9.19996 12.4001 8.39996C11.5001 6.79996 10.2001 5.99994 8.6001 5.99994C7.5001 5.99994 6.6001 6.29996 6.0001 6.89996C5.3001 7.49996 5.0001 8.29993 5.0001 9.29993C5.0001 9.89993 5.1001 10.5 5.4001 10.9C5.7001 11.3 6.0001 11.6999 6.5001 12.0999C7.0001 12.4999 7.6001 12.8 8.3001 13.2C9.0001 13.6 9.8001 14 10.7001 14.4C12.6001 15.4 13.9001 16.5 14.8001 17.7C15.7001 18.9 16.1001 20.4999 16.1001 22.2999C16.1001 23.6999 15.9001 25 15.4001 26.2C15.0001 27.3 14.3001 28.2999 13.5001 29.0999C12.7001 29.8999 11.8001 30.5 10.7001 30.9C9.6001 31.3 8.4001 31.4999 7.1001 31.4999C5.8001 31.4999 4.7001 31.3999 3.6001 31.0999C2.6001 30.7999 1.8001 30.5 1.3001 30.2C1.0001 30 0.700098 29.7999 0.700098 29.4999C0.600098 29.1999 0.600098 28.8 0.600098 28.2V26.7999C0.600098 25.1999 0.600098 24.1 0.700098 23.4C0.800098 22.7 1.0001 22.2999 1.4001 22.2999C1.7001 22.2999 1.9001 22.3999 2.0001 22.5999C2.1001 22.7999 2.2001 23.1 2.3001 23.4C2.4001 23.8 2.5001 24.2 2.6001 24.7C2.7001 25.2 2.9001 25.8 3.3001 26.4C4.4001 28.7 5.9001 29.9 7.9001 29.9C9.1001 29.9 10.1001 29.4999 10.9001 28.5999C11.7001 27.7999 12.1001 26.6 12.1001 25.2C12.1001 24.5 12.0001 23.7999 11.7001 23.2999C11.5001 22.7999 11.1001 22.2999 10.6001 21.7999C10.1001 21.3999 9.5001 20.8999 8.9001 20.4999C8.2001 20.0999 7.5001 19.7 6.6001 19.2C5.7001 18.7 4.8001 18.1999 4.1001 17.7999C3.4001 17.2999 2.8001 16.7999 2.3001 16.2999C1.8001 15.6999 1.4001 15.1 1.2001 14.4C0.900098 13.7 0.800097 12.9 0.800097 11.9C0.800097 9.49996 1.5001 7.69993 3.0001 6.29993C4.5001 4.89993 6.3001 4.19995 8.6001 4.19995C11.0001 4.39995 12.6001 4.69995 13.5001 5.19995Z" fill="white"/>
<path d="M25.9002 4.70001C25.9002 5.20001 26.1002 5.40002 26.6002 5.40002H30.9002C31.2002 5.40002 31.5002 5.4 31.5002 5.5C31.6002 5.6 31.6002 5.7 31.6002 6V7.09998C31.6002 7.39998 31.6002 7.60001 31.5002 7.70001C31.4002 7.80001 31.2002 7.90002 30.9002 7.90002H26.6002C26.1002 7.90002 25.9002 8.09998 25.9002 8.59998V23C25.9002 24.8 26.1002 26.1 26.4002 26.9C26.7002 27.7 27.3002 28.1 28.2002 28.1C28.6002 28.1 29.0002 28 29.3002 27.9C29.6002 27.8 29.9002 27.6 30.2002 27.4C30.5002 27.2 30.7002 27 30.9002 26.9C31.1002 26.7 31.3002 26.7 31.5002 26.7C31.9002 26.7 32.1002 27 32.1002 27.5C32.1002 27.8 31.9002 28.1 31.6002 28.6C31.3002 29.1 30.8002 29.5 30.2002 30C29.6002 30.5 28.9002 30.8 28.2002 31.2C27.5002 31.6 26.6002 31.7 25.7002 31.7C22.7002 31.7 21.3002 29.3 21.3002 24.5V22L21.5002 9.79999C21.5002 9.29999 21.5002 8.8 21.4002 8.5C21.3002 8.2 21.1002 8 20.7002 8H19.7002C19.0002 8 18.7002 7.79999 18.7002 7.29999C18.7002 7.09999 18.8002 6.90001 19.0002 6.70001C19.2002 6.50001 19.5002 6.29998 19.8002 6.09998C20.1002 5.89998 20.5002 5.60001 21.0002 5.20001C21.4002 4.90001 21.9002 4.39999 22.4002 3.79999C23.3002 2.69999 23.9002 1.79998 24.4002 1.09998C24.8002 0.299976 25.2002 0 25.5002 0C25.8002 0 25.9002 0.100024 26.0002 0.400024C26.1002 0.600024 26.1002 1.00002 26.1002 1.40002V4.70001H25.9002Z" fill="white"/>
<path d="M50.0001 24.1C50.0001 25.3 50.1001 26.2 50.2001 26.8C50.4001 27.4 50.8001 27.7001 51.4001 27.7001C51.8001 27.7001 52.2001 27.5 52.5001 27.1C52.8001 26.7 53.2001 26.5001 53.5001 26.5001C54.0001 26.5001 54.2001 26.8001 54.2001 27.4001C54.2001 27.7001 54.0001 28.1001 53.7001 28.5001C53.4001 28.9001 52.9001 29.4 52.5001 29.8C52.1001 30.2 51.5001 30.6001 51.0001 30.9001C50.4001 31.2001 49.9001 31.4001 49.5001 31.4001C48.5001 31.4001 47.7001 31.1001 47.0001 30.4001C46.4001 29.8001 45.8001 28.8001 45.4001 27.5001H45.1001L43.9001 28.5001C42.9001 29.3001 42.0001 30 41.1001 30.6C40.2001 31.2 39.3001 31.5001 38.2001 31.5001C37.0001 31.5001 36.0001 31.1 35.3001 30.3C34.6001 29.5 34.2001 28.4001 34.2001 26.9001C34.2001 25.6001 34.4001 24.5 34.8001 23.6C35.2001 22.7 35.8001 21.8001 36.6001 21.0001C37.4001 20.2001 38.4001 19.5 39.5001 18.8C40.6001 18.1 41.9001 17.4 43.2001 16.8L44.6001 16.1C44.9001 15.9 45.1001 15.8 45.1001 15.6C45.1001 15.4 45.2001 15.1001 45.2001 14.7001V10.7001C45.2001 9.10007 45.1001 7.90007 44.8001 7.20007C44.6001 6.50007 43.9001 6.10004 42.9001 6.10004C41.9001 6.10004 41.1001 6.40004 40.6001 7.10004C40.0001 7.80004 39.5001 8.70009 38.9001 9.90009C38.5001 10.8001 38.0001 11.7 37.5001 12.3C37.0001 13 36.2001 13.3 35.0001 13.3C34.7001 13.3 34.4001 13.2001 34.2001 13.0001C34.0001 12.8001 33.9001 12.6 33.9001 12.3C33.9001 11.5 34.2001 10.6 34.7001 9.60004C35.2001 8.70004 35.9001 7.80006 36.9001 7.00006C37.8001 6.20006 38.9001 5.60004 40.2001 5.10004C41.5001 4.60004 42.9001 4.30005 44.3001 4.30005C45.5001 4.30005 46.5001 4.40007 47.2001 4.70007C47.9001 5.00007 48.5001 5.40006 48.9001 6.00006C49.3001 6.60006 49.5001 7.20004 49.6001 8.10004C49.7001 8.90004 49.8001 9.90009 49.8001 10.9001V24.1H50.0001ZM45.0001 17.7001C44.9001 17.7001 44.7001 17.8001 44.4001 17.9001L42.5001 18.8C40.3001 19.9 39.1001 21.8001 39.1001 24.5001C39.1001 25.6001 39.3001 26.4001 39.7001 27.0001C40.1001 27.6001 40.6001 27.9001 41.3001 27.9001C41.8001 27.9001 42.2001 27.8001 42.7001 27.5001C43.2001 27.3001 43.6001 26.9001 44.0001 26.5001C44.4001 26.1001 44.7001 25.5001 44.9001 24.9001C45.2001 24.3001 45.3001 23.6 45.3001 22.8V18.3C45.3001 17.9 45.2001 17.7001 45.0001 17.7001Z" fill="white"/>
<path d="M62.4002 4.70001C62.4002 5.20001 62.6002 5.40002 63.1002 5.40002H67.4002C67.7002 5.40002 68.0002 5.4 68.0002 5.5C68.0002 5.6 68.1002 5.7 68.1002 6V7.09998C68.1002 7.39998 68.1002 7.60001 68.0002 7.70001C67.9002 7.80001 67.7002 7.90002 67.4002 7.90002H63.1002C62.6002 7.90002 62.4002 8.09998 62.4002 8.59998V23C62.4002 24.8 62.6002 26.1 62.9002 26.9C63.2002 27.7 63.8002 28.1 64.7002 28.1C65.1002 28.1 65.5002 28 65.8002 27.9C66.1002 27.8 66.4002 27.6 66.7002 27.4C67.0002 27.2 67.2002 27 67.4002 26.9C67.6002 26.7 67.8002 26.7 68.0002 26.7C68.4002 26.7 68.6002 27 68.6002 27.5C68.6002 27.8 68.4002 28.1 68.1002 28.6C67.8002 29.1 67.3002 29.5 66.7002 30C66.1002 30.5 65.4002 30.8 64.7002 31.2C63.9002 31.5 63.1002 31.7 62.2002 31.7C59.2002 31.7 57.8002 29.3 57.8002 24.5V22L58.0002 9.79999C58.0002 9.29999 58.0002 8.8 57.9002 8.5C57.8002 8.2 57.6002 8 57.2002 8H56.2002C55.5002 8 55.2002 7.79999 55.2002 7.29999C55.2002 7.09999 55.3002 6.90001 55.5002 6.70001C55.7002 6.50001 56.0002 6.29998 56.3002 6.09998C56.6002 5.89998 57.0002 5.60001 57.5002 5.20001C57.9002 4.90001 58.4002 4.39999 58.9002 3.79999C59.8002 2.69999 60.4002 1.79998 60.9002 1.09998C61.3002 0.299976 61.7002 0 62.0002 0C62.3002 0 62.4002 0.100024 62.5002 0.400024C62.6002 0.600024 62.6002 1.00002 62.6002 1.40002V4.70001H62.4002Z" fill="white"/>
<path d="M76 14.4C75.7 14.4 75.5 14.5 75.4 14.6C75.3 14.7 75.3 15 75.3 15.3V16.7C75.3 20.2 76.1 23 77.5 25.1C79 27.1 80.9 28.2 83.3 28.2C84.4 28.2 85.3 28 86.1 27.7C86.9 27.4 87.5 27 88 26.6C88.5 26.2 88.9 25.8 89.2 25.5C89.5 25.2 89.7 25 89.8 25C90.1 25 90.3 25.2 90.3 25.6C90.3 26 90.1 26.6 89.6 27.2C89.1 27.9 88.5 28.6 87.6 29.2C86.7 29.9 85.7 30.4 84.6 30.9C83.4 31.4 82.1 31.6 80.6 31.6C79 31.6 77.6 31.3 76.4 30.7C75.1 30.1 74 29.2 73.1 28C72.2 26.8 71.5 25.4 71 23.7C70.5 22 70.3 20.2 70.3 18.1C70.3 16 70.6 14.1 71.1 12.4C71.6 10.7 72.4 9.29998 73.4 8.09998C74.4 6.89998 75.5 6.00002 76.9 5.40002C78.2 4.80002 79.7 4.40002 81.3 4.40002C82.7 4.40002 83.9 4.59998 85.1 5.09998C86.2 5.59998 87.2 6.2 88 7C88.8 7.8 89.4 8.69999 89.9 9.79999C90.3 10.9 90.6 12 90.6 13.2C90.6 13.7 90.4 14 90.1 14.2C89.8 14.3 89.3 14.4 88.6 14.4H76V14.4ZM84.2 12.1C85.1 11.7 85.5 10.8 85.5 9.59998C85.5 8.69998 85.1 7.8 84.3 7C83.5 6.2 82.5 5.79999 81.3 5.79999C80 5.79999 78.8 6.29999 77.8 7.29999C76.8 8.29999 76.2 9.60001 75.9 11.2L75.7 12.1V12.2C75.7 12.5 75.9 12.7 76.4 12.7H80.1C82 12.7 83.4 12.5 84.2 12.1Z" fill="white"/>
</svg>
