<svg width="552" height="185" viewBox="0 0 552 185" fill="none" xmlns="http://www.w3.org/2000/svg">
<path d="M254.8 81.8L240.3 121.8C237.7 129.2 235.7 136 234.3 142.4C232.9 148.7 232.3 154.3 232.3 159.1C232.3 162.4 233 165 234.3 166.9C235.6 168.8 237.4 169.8 239.7 169.8C241.2 169.8 242.9 169.3 244.8 168.3C246.7 167.3 247.9 166.8 248.3 166.8C248.6 166.8 248.9 166.9 249.1 167.1C249.3 167.3 249.4 167.5 249.4 167.9C249.4 168.1 249.4 168.2 249.4 168.3C249.4 168.4 249.3 168.5 249.3 168.6L248.6 171.3C248.2 172.5 247.3 173.6 245.8 174.5C245.2 174.9 244.7 175.2 244.5 175.4C243.3 176.2 241.8 177.4 239.9 178.9C236 182 233.1 183.5 231.3 183.5C227.2 183.5 223.9 181.4 221.6 177.2C219.2 173 218.1 167.2 218.1 159.7C218.1 158.9 218.1 157.9 218.2 156.8C218.3 155.7 218.3 154.1 218.5 151.9C214.3 157 210.6 161.6 207.4 165.8C204.2 170 201.2 173.9 198.4 177.7C196.7 179.8 194.7 181.4 192.6 182.5C190.5 183.5 188.1 184 185.6 184C178.9 184 173.5 181.5 169.4 176.6C165.3 171.6 163.3 165.1 163.3 156.9C163.3 145.9 166.7 135.1 173.5 124.3C180.3 113.6 189.4 104.8 200.9 98.1C205.7 95.1 210.5 92.9 215.3 91.5C220.2 90.1 225.1 89.3 230.2 89.3C231.4 89.3 232.5 89.3 233.7 89.4C234.9 89.5 236.1 89.6 237.2 89.8L241.6 77C242.2 75.3 242.6 73.5 242.9 71.8C243.2 70.1 243.3 68.5 243.3 67.1C243.3 65.2 242.9 63.9 242.1 63C241.3 62.2 240.1 61.7 238.3 61.7C237 61.7 235.7 61.9 234.3 62.2C232.9 62.5 232.2 62.7 232 62.7C231.5 62.7 231.2 62.6 230.9 62.4C230.6 62.2 230.5 61.9 230.5 61.5C230.5 61.3 230.5 61.2 230.5 61.2C230.5 61.1 230.6 61.1 230.6 61L231.8 58.6C232.5 57.2 234.6 56.2 238 55.5C240.3 55 242.2 54.5 243.8 54C245.5 53.5 247.8 52.6 250.6 51.3C253.4 50 255.4 49.3 256.7 49.3C258.3 49.3 259.6 50.1 260.6 51.6C261.6 53.1 262.2 55.1 262.2 57.4C262.2 59.1 261.7 61.7 260.7 65.2C259.4 68.7 257.6 74.2 254.8 81.8ZM233.2 100.2C231.6 99.4 229.8 98.8 228 98.3C226.1 97.9 224.2 97.6 222.2 97.6C217.1 97.6 212.2 99.2 207.3 102.3C202.4 105.4 197.6 110.1 192.7 116.4C188.3 122 184.9 128.1 182.5 134.7C180.1 141.2 178.9 147.6 178.9 153.9C178.9 159.1 179.9 163.3 181.9 166.4C183.9 169.5 186.6 171 190 171C195.6 171 202.6 164.4 210.9 151.2C219.2 138 226.6 121 233.2 100.2Z" fill="black"/>
<path d="M336.7 89.5L339.6 89.3H340.1C340.5 89.3 340.8 89.4 340.9 89.5C341 89.6 341.1 89.9 341.1 90.4C341.1 91.2 340.4 93.1 339.1 96.1C337.8 99.1 336.7 101.6 335.9 103.7C335.3 105.4 334.6 107.4 334 109.9C333.2 112.9 332.2 114.8 331 115.4L328.4 116.9C328.3 116.9 328.3 116.9 328.2 117C328.1 117.1 328 117.1 328 117.1C327.8 117.1 327.5 117 327.2 116.8C326.9 116.6 326.8 116.3 326.8 116C326.8 115.7 326.9 114.7 327.2 113C327.5 111.4 327.6 109.9 327.6 108.6C327.6 105.5 326 102.9 322.8 100.8C319.6 98.7 315.5 97.7 310.5 97.7C305.3 97.7 301.1 99 297.9 101.6C294.7 104.2 293.2 107.5 293.2 111.7C293.2 114.6 294.1 117.3 296 119.7C297.9 122.1 301.5 125.1 306.9 128.5C314.3 133.3 319.1 137.1 321.2 140.1C323.3 143.1 324.4 146.5 324.4 150.5C324.4 153.6 323.7 156.6 322.3 159.7C320.9 162.7 318.9 165.6 316.3 168.3C311.5 173.4 306.1 177.2 300.1 180C294.1 182.7 287.9 184.1 281.5 184.1C274.8 184.1 268.9 182.9 263.6 180.5C258.4 178.1 255.8 175.6 255.8 173C255.8 172.6 256.5 171.2 257.9 168.8C259.3 166.4 260.5 164.2 261.3 162.1C261.9 160.6 262.4 158.7 263 156.3C263.8 153.2 264.7 151.4 265.9 150.9L268.4 149.8C268.5 149.8 268.7 149.7 269 149.6C269.3 149.5 269.5 149.4 269.5 149.4C269.8 149.4 270.1 149.6 270.3 149.9C270.6 150.2 270.7 150.6 270.7 151C270.7 151.1 270.5 152 270.1 153.7C269.7 155.4 269.5 157 269.5 158.5C269.5 163.6 271.2 167.5 274.6 170.3C278 173 282.9 174.4 289.3 174.4C294.9 174.4 299.4 172.9 302.8 170C306.3 167 308 163.2 308 158.4C308 155.1 307.1 152.2 305.3 149.6C303.5 147 299.6 143.7 293.5 139.7C286.8 135.1 282.4 131.4 280.5 128.5C278.6 125.6 277.6 122.2 277.6 118.3C277.6 110.6 281.5 103.9 289.3 98.1C297.1 92.3 306.6 89.4 317.8 89.4C320.1 89.4 322.9 89.7 326 90.4C329.1 91.1 331.1 91.4 331.8 91.4C332.3 91.4 333 91.3 333.7 91C334.6 90.5 335.6 90.1 336.7 89.5Z" fill="black"/>
<path d="M398.1 73.3L389.4 94.4H389.9C395.2 94.6 399.2 94.7 401.7 94.7C404.1 94.7 406.7 94.2 409.3 93.2C411.9 92.2 413.4 91.7 413.7 91.7C414.2 91.7 414.6 91.9 414.9 92.2C415.2 92.5 415.4 92.9 415.4 93.3C415.4 95.3 414.1 97.5 411.4 100.1C408.8 102.6 405.8 103.9 402.5 103.9C400.9 103.9 398.7 103.8 396 103.6C393.3 103.4 390.2 103.1 386.7 102.7L368.1 152.3C367.3 154.3 366.8 156.1 366.4 157.8C366 159.5 365.8 161.1 365.8 162.5C365.8 165.4 366.5 167.6 367.8 169.2C369.2 170.8 371.1 171.6 373.6 171.6C375.4 171.6 377.3 171.2 379.2 170.4C381.1 169.6 383.3 168.2 385.8 166.3C386.7 165.6 387.8 164.7 389.1 163.5C390.8 162.1 391.9 161.3 392.6 161.3C393.1 161.3 393.5 161.4 393.8 161.6C394.1 161.8 394.2 162 394.2 162.4C394.1 162.7 394 163 394 163.1L392.2 167.7C391.7 169 390.1 170.6 387.4 172.4C386.8 172.8 386.4 173.1 386.2 173.3L385 174.1C375.2 180.8 368.2 184.2 363.9 184.2C359.4 184.2 355.8 182.7 353.1 179.8C350.4 176.9 349 173 349 168.1C349 165.7 349.4 162.9 350.2 159.7C351 156.6 352.4 152.2 354.5 146.5L370.8 102.8H362.8C362.2 102.8 361.7 102.7 361.3 102.5C361 102.3 360.8 102.1 360.8 101.9C360.8 101.6 360.8 101.4 360.9 101.2C361 101.1 361 100.9 361.2 100.7L363 98.2C363.3 97.7 365.9 96.4 370.6 94.5C375.3 92.6 379.3 89.9 382.5 86.4C384.2 84.5 386.4 81.9 388.9 78.6C392.3 74 395 71.6 396.9 71.6C397.3 71.6 397.6 71.7 397.9 71.9C398.2 72.1 398.3 72.4 398.3 72.7V73V73.3H398.1Z" fill="black"/>
<path d="M434.2 152.7L426 177C425.4 179 424.7 180.2 424.2 180.7C423.6 181.2 422.8 181.4 421.8 181.4H416.2H412.5C411.5 181.4 410.7 181.2 410.1 180.9C409.5 180.6 409.2 180.1 409.2 179.4C409.2 179.3 409.3 179 409.4 178.7C409.5 178.3 409.7 177.9 409.8 177.4L427.8 128.8C429.7 123.8 431 119.7 431.9 116.5C432.8 113.3 433.2 110.7 433.2 108.6C433.2 106.6 432.8 105.1 431.9 104C431.1 102.9 429.9 102.4 428.4 102.4C427.9 102.4 427 102.5 425.8 102.7C424.6 102.9 423.6 103 422.8 103C422.3 103 421.9 102.9 421.5 102.7C421.2 102.5 421 102.3 421 102.1C421 101.9 421 101.8 421 101.8C421 101.7 421.1 101.7 421.1 101.6L422.3 99.2C423 97.9 425.1 96.8 428.5 96.1C430.9 95.6 432.8 95.1 434.3 94.6C436.3 93.9 438.7 92.9 441.5 91.6C444.3 90.3 446.2 89.6 447.2 89.6C448.5 89.6 449.6 90.2 450.3 91.3C451.1 92.5 451.4 94.1 451.4 96.2C451.4 98.2 450.8 101 449.6 104.7C448.4 108.4 446.3 114 443.2 121.5C452.1 108.6 459 100 463.6 95.6C468.3 91.2 472.6 89 476.7 89C479.8 89 482.5 89.6 484.8 90.9C487.1 92.2 488.3 93.5 488.3 94.9C488.3 96.1 487 98.4 484.4 101.8C481.8 105.2 480 106.9 479.2 106.9C478.2 106.9 476.6 106.3 474.5 105.1C472.4 103.9 470.8 103.3 469.6 103.3C464.6 103.3 458.6 108 451.6 117.4C444.7 126.9 438.9 138.6 434.2 152.7Z" fill="black"/>
<path d="M534.5 73.3L525.8 94.4H526.3C531.6 94.6 535.6 94.7 538.1 94.7C540.5 94.7 543.1 94.2 545.7 93.2C548.3 92.2 549.8 91.7 550.1 91.7C550.6 91.7 551 91.9 551.3 92.2C551.6 92.5 551.8 92.9 551.8 93.3C551.8 95.3 550.5 97.5 547.8 100.1C545.2 102.6 542.2 103.9 538.9 103.9C537.3 103.9 535.1 103.8 532.4 103.6C529.7 103.4 526.6 103.1 523.1 102.7L504.5 152.3C503.7 154.3 503.2 156.1 502.8 157.8C502.4 159.5 502.2 161.1 502.2 162.5C502.2 165.4 502.9 167.6 504.2 169.2C505.6 170.8 507.5 171.6 510 171.6C511.8 171.6 513.7 171.2 515.6 170.4C517.5 169.6 519.7 168.2 522.2 166.3C523.1 165.6 524.2 164.7 525.5 163.5C527.2 162.1 528.3 161.3 529 161.3C529.5 161.3 529.9 161.4 530.2 161.6C530.5 161.8 530.6 162 530.6 162.4C530.5 162.7 530.4 163 530.4 163.1L528.6 167.7C528.1 169 526.5 170.6 523.8 172.4C523.2 172.8 522.8 173.1 522.6 173.3L521.4 174.1C511.6 180.8 504.6 184.2 500.3 184.2C495.8 184.2 492.2 182.7 489.5 179.8C486.8 176.9 485.4 173 485.4 168.1C485.4 165.7 485.8 162.9 486.6 159.7C487.4 156.6 488.8 152.2 490.9 146.5L507.2 102.8H499.2C498.6 102.8 498.1 102.7 497.7 102.5C497.4 102.3 497.2 102.1 497.2 101.9C497.2 101.6 497.2 101.4 497.3 101.2C497.4 101.1 497.4 100.9 497.6 100.7L499.4 98.2C499.7 97.7 502.3 96.4 507 94.5C511.7 92.6 515.7 89.9 518.9 86.4C520.6 84.5 522.8 81.9 525.3 78.6C528.7 74 531.4 71.6 533.3 71.6C533.7 71.6 534 71.7 534.3 71.9C534.6 72.1 534.7 72.4 534.7 72.7V73V73.3H534.5Z" fill="black"/>
<path d="M89.4999 135.1C121.312 135.1 147.1 109.312 147.1 77.5C147.1 45.6884 121.312 19.9 89.4999 19.9C57.6883 19.9 31.8999 45.6884 31.8999 77.5C31.8999 109.312 57.6883 135.1 89.4999 135.1Z" stroke="black" stroke-width="2.6249"/>
<path d="M106.6 59.8L97.8001 84.5H98.1001C101.6 84.5 104.8 83.8 107.7 82.4C110.6 81 112.1 80.3 112.2 80.3L113.6 80.4C113.9 80.4 114.1 80.5 114.1 80.6C114.2 80.7 114.3 80.8 114.3 81.1C114.3 81.7 113.3 82.8 111.4 84.6C110.2 85.6 109.2 86.4 108.5 87.1L108.4 87.2C105 90.4 101.7 92.1 98.2001 92.1C97.6001 92.1 96.8001 92 95.6001 91.9C95.4001 91.9 95.3001 91.8 95.3001 91.8L93.6001 96.8L93.2001 98C91.5001 102.9 90.7001 106.2 90.7001 107.9C90.7001 109.2 90.9001 110.2 91.4001 110.8C91.8001 111.5 92.6001 112.1 93.8001 112.5C94.6001 112.8 95.7001 113.1 97.0001 113.3C98.3001 113.5 99.0001 113.7 99.0001 114.1C99.0001 114.4 99.0001 114.5 99.0001 114.6C99.0001 114.7 98.9001 114.7 98.9001 114.8L97.2001 116.2C96.9001 116.4 96.5001 116.6 96.0001 116.7C95.5001 116.8 94.9001 116.9 94.2001 116.9C94.1001 116.9 92.5001 116.8 89.6001 116.5C86.7001 116.2 83.7001 116.1 80.9001 116.1C78.9001 116.1 76.5001 116.3 73.9001 116.6C71.2001 116.9 69.6001 117.1 68.9001 117.1C68.3001 117.1 67.8001 117 67.5001 116.9C67.2001 116.7 67.0001 116.5 67.0001 116.2C67.0001 116 67.0001 115.9 67.1001 115.8C67.1001 115.7 67.2001 115.6 67.3001 115.5L68.7001 113.8C69.0001 113.4 69.9001 113.1 71.3001 112.9C72.7001 112.7 73.7001 112.5 74.3001 112.2C76.0001 111.5 77.5001 110.5 78.7001 109C79.9001 107.5 81.0001 105.4 82.0001 102.8L86.0001 91.8H54.7001C53.9001 91.8 53.4001 91.7 53.1001 91.5C52.8001 91.3 52.5001 90.9 52.2001 90.3L51.4001 88.5C51.3001 88.3 51.3001 88.1 51.2001 87.9C51.2001 87.7 51.1001 87.4 51.1001 87.1C51.1001 86.1 53.0001 84.2 56.8001 81.4C60.3001 78.8 63.1001 76.5 65.4001 74.6C79.4001 62.6 91.0001 52 100.2 42.6C100.5 42.3 100.6 42.2 100.7 42.1C102.2 40.6 104.4 39.7 107.4 39.3C107.7 39.3 107.9 39.2 108 39.2C109.2 39 110.4 38.6 111.8 38.2C113.1 37.8 113.9 37.5 114.1 37.5C114.3 37.5 114.5 37.7 114.7 38C114.9 38.3 115 38.7 115 39.1C115 39.3 114 41.7 112 46.3C110.2 50.6 108.3 55.2 106.6 59.8ZM102.1 47.4C96.0001 53.3 89.6001 59.4 83.0001 65.6C76.4001 71.8 69.5001 78.1 62.5001 84.6H88.6001L102.1 47.4Z" fill="black"/>
<path d="M13.8 5.59998C14.7 6.09998 15.1 6.80005 15.1 7.80005C15.1 9.10005 15.0001 10.1 14.9001 10.7C14.8001 11.3 14.5001 11.6 14.2001 11.6C13.8001 11.6 13.5 11.3 13.5 10.8C13.4 10.3 13.2001 9.60005 12.7001 8.80005C11.8001 7.20005 10.5 6.40002 9.00005 6.40002C7.90005 6.40002 7.00005 6.70005 6.40005 7.30005C5.70005 7.90005 5.40005 8.69995 5.40005 9.69995C5.40005 10.3 5.50005 10.9 5.80005 11.3C6.10005 11.7 6.40005 12.1 6.90005 12.5C7.40005 12.9 8.00005 13.2 8.70005 13.6C9.40005 14 10.2 14.4 11 14.8C12.8 15.8 14.2 16.9 15.1 18.1C16 19.3 16.4001 20.8 16.4001 22.7C16.4001 24.1 16.2 25.4 15.8 26.5C15.4 27.6 14.8 28.6 14 29.3C13.2 30.1 12.3001 30.7 11.2001 31.1C10.1001 31.5 9.00005 31.7 7.70005 31.7C6.40005 31.7 5.30005 31.6 4.30005 31.3C3.30005 31 2.50005 30.7 2.00005 30.4C1.70005 30.2 1.50005 30 1.40005 29.7C1.30005 29.4 1.30005 29 1.30005 28.5V27.1C1.30005 25.6 1.30005 24.4 1.40005 23.7C1.50005 23 1.70005 22.7 2.10005 22.7C2.40005 22.7 2.60005 22.8 2.70005 23C2.80005 23.2 2.90005 23.5 3.00005 23.8C3.10005 24.2 3.20005 24.6 3.30005 25.1C3.40005 25.6 3.60005 26.2 3.90005 26.8C5.00005 29.1 6.50005 30.2 8.40005 30.2C9.60005 30.2 10.6001 29.8 11.4001 29C12.2001 28.2 12.6 27.1 12.6 25.7C12.6 25 12.5001 24.4 12.2001 23.8C12.0001 23.3 11.6 22.8 11.1 22.3C10.6 21.9 10.1001 21.5 9.40005 21.1C8.70005 20.7 8.00005 20.3 7.10005 19.8C6.20005 19.3 5.30005 18.8 4.60005 18.4C3.90005 17.9 3.30005 17.4 2.80005 16.9C2.30005 16.4 1.90005 15.7 1.70005 15C1.50005 14.3 1.30005 13.5 1.30005 12.5C1.30005 10.2 2.00005 8.30002 3.50005 6.90002C5.00005 5.50002 6.80005 4.80005 9.10005 4.80005C11.3 4.80005 12.9 5.09998 13.8 5.59998Z" fill="black"/>
<path d="M26.1001 5.09998C26.1001 5.59998 26.3001 5.80005 26.8001 5.80005H31.0001C31.3001 5.80005 31.5001 5.80002 31.6001 5.90002C31.7001 6.00002 31.7001 6.10002 31.7001 6.40002V7.5C31.7001 7.8 31.7001 7.99998 31.6001 8.09998C31.5001 8.19998 31.3001 8.30005 31.0001 8.30005H26.7001C26.2001 8.30005 26.0001 8.5 26.0001 9V23.3C26.0001 25.1 26.2001 26.4 26.5001 27.2C26.8001 28 27.4001 28.4 28.3001 28.4C28.7001 28.4 29.1001 28.3 29.4001 28.2C29.7001 28.1 30.0001 27.9 30.3001 27.7C30.6001 27.5 30.8001 27.3 31.0001 27.2C31.2001 27 31.4001 27 31.6001 27C32.0001 27 32.2001 27.3 32.2001 27.8C32.2001 28.1 32.0001 28.4 31.7001 28.9C31.4001 29.4 30.9001 29.8 30.3001 30.3C29.7001 30.7 29.0001 31.1 28.3001 31.5C27.5001 31.8 26.7001 32 25.9001 32C23.0001 32 21.5001 29.6 21.5001 24.8V22.4L21.7001 10.3C21.7001 9.80005 21.7001 9.3 21.6001 9C21.5001 8.7 21.3001 8.5 20.9001 8.5H19.9001C19.2001 8.5 18.9001 8.30005 18.9001 7.80005C18.9001 7.60005 19.0001 7.39995 19.2001 7.19995C19.4001 6.99995 19.7001 6.79998 20.0001 6.59998C20.3001 6.39998 20.7001 6.10005 21.2001 5.80005C21.6001 5.50005 22.1001 5.00002 22.6001 4.40002C23.5001 3.30002 24.1001 2.39995 24.6001 1.69995C25.0001 0.899951 25.4001 0.599976 25.7001 0.599976C26.0001 0.599976 26.1001 0.7 26.2001 1C26.3001 1.2 26.3001 1.6 26.3001 2V5.09998H26.1001Z" fill="black"/>
<path d="M50 24.4C50 25.6 50.0999 26.5 50.1999 27.1C50.3999 27.7 50.7 28 51.4 28C51.8 28 52.2 27.8 52.5 27.4C52.8 27 53.2 26.8 53.5 26.8C54 26.8 54.1999 27.1 54.1999 27.6C54.1999 27.9 53.9999 28.3 53.6999 28.7C53.3999 29.1 53 29.6 52.5 30C52 30.4 51.5 30.8 51 31.1C50.5 31.4 50 31.6 49.5 31.6C48.5 31.6 47.6999 31.3 47.0999 30.6C46.4999 30 45.9 29 45.5 27.7H45.1999L44 28.7C43 29.5 42.0999 30.2 41.1999 30.8C40.2999 31.4 39.3999 31.7 38.2999 31.7C37.0999 31.7 36.1 31.3 35.4 30.5C34.7 29.7 34.2999 28.6 34.2999 27.1C34.2999 25.9 34.5 24.8 34.9 23.8C35.3 22.9 35.9 22 36.7 21.2C37.5 20.4 38.3999 19.7 39.5999 19C40.6999 18.3 42 17.6 43.3 17L44.6999 16.3C44.9999 16.1 45.1999 16 45.1999 15.8C45.2999 15.6 45.3 15.3 45.3 14.9V10.9C45.3 9.30002 45.2 8.2 44.9 7.5C44.7 6.8 43.9999 6.40002 43.0999 6.40002C42.0999 6.40002 41.3 6.70002 40.8 7.40002C40.2 8.10002 39.7 8.99995 39.2 10.2C38.8 11.1 38.2999 11.9 37.7999 12.6C37.2999 13.3 36.4999 13.6 35.2999 13.6C34.9999 13.6 34.7 13.5 34.5 13.3C34.3 13.1 34.2 12.9 34.2 12.6C34.2 11.8 34.5 10.9 35 10C35.5 9.1 36.2 8.20002 37.2 7.40002C38.1 6.60002 39.2 6 40.5 5.5C41.8 5 43.0999 4.69995 44.5999 4.69995C45.7999 4.69995 46.8 4.79998 47.5 5.09998C48.2 5.39998 48.7999 5.80005 49.1999 6.30005C49.5999 6.80005 49.8 7.50005 49.9 8.30005C50 9.10005 50.0999 9.99998 50.0999 11.1V24.4H50ZM45 18C44.9 18 44.7 18.1 44.4 18.2L42.5 19.1C40.3 20.2 39.2 22.1 39.2 24.7C39.2 25.8 39.3999 26.6 39.7999 27.2C40.1999 27.8 40.7 28 41.3 28C41.8 28 42.1999 27.9 42.6999 27.6C43.1999 27.4 43.6 27 43.9 26.6C44.3 26.2 44.6 25.6 44.8 25C45 24.4 45.1999 23.7 45.1999 23V18.5C45.2999 18.2 45.2 18 45 18Z" fill="black"/>
<path d="M62.3001 5.09998C62.3001 5.59998 62.5001 5.80005 63.0001 5.80005H67.2001C67.5001 5.80005 67.7001 5.80002 67.8001 5.90002C67.9001 6.00002 67.9001 6.10002 67.9001 6.40002V7.5C67.9001 7.8 67.9001 7.99998 67.8001 8.09998C67.7001 8.19998 67.5001 8.30005 67.2001 8.30005H62.9001C62.4001 8.30005 62.2001 8.5 62.2001 9V23.3C62.2001 25.1 62.4001 26.4 62.7001 27.2C63.0001 28 63.6001 28.4 64.5001 28.4C64.9001 28.4 65.3001 28.3 65.6001 28.2C65.9001 28.1 66.2001 27.9 66.5001 27.7C66.8001 27.5 67.0001 27.3 67.2001 27.2C67.4001 27 67.6001 27 67.8001 27C68.2001 27 68.4001 27.3 68.4001 27.8C68.4001 28.1 68.2001 28.4 67.9001 28.9C67.6001 29.4 67.1001 29.8 66.5001 30.3C65.9001 30.7 65.2001 31.1 64.5001 31.5C63.7001 31.8 62.9001 32 62.1001 32C59.2001 32 57.7001 29.6 57.7001 24.8V22.4L57.9001 10.3C57.9001 9.80005 57.9001 9.3 57.8001 9C57.7001 8.7 57.5001 8.5 57.1001 8.5H56.1001C55.4001 8.5 55.1001 8.30005 55.1001 7.80005C55.1001 7.60005 55.2001 7.39995 55.4001 7.19995C55.6001 6.99995 55.9001 6.79998 56.2001 6.59998C56.5001 6.39998 56.9001 6.10005 57.4001 5.80005C57.8001 5.50005 58.3001 5.00002 58.8001 4.40002C59.7001 3.30002 60.3001 2.39995 60.8001 1.69995C61.2001 0.899951 61.6001 0.599976 61.9001 0.599976C62.2001 0.599976 62.3001 0.7 62.4001 1C62.5001 1.2 62.5001 1.6 62.5001 2V5.09998H62.3001Z" fill="black"/>
<path d="M75.7 14.8C75.4 14.8 75.2 14.9 75.1 15C75 15.1 75 15.4 75 15.7V17.1C75 20.6 75.7 23.4 77.2 25.4C78.7 27.4 80.6 28.4 83 28.4C84.1 28.4 85 28.2 85.7 27.9C86.5 27.6 87.1 27.2 87.6 26.8C88.1 26.4 88.5 26 88.8 25.7C89.1 25.4 89.3 25.2 89.4 25.2C89.7 25.2 89.9 25.4 89.9 25.8C89.9 26.2 89.7 26.8 89.2 27.4C88.7 28.1 88.1 28.7 87.3 29.4C86.5 30.1 85.4 30.6 84.3 31.1C83.1 31.6 81.8 31.8 80.4 31.8C78.9 31.8 77.5 31.5 76.2 30.9C74.9 30.3 73.9 29.4 73 28.2C72.1 27 71.4 25.6 70.9 24C70.4 22.3 70.2 20.5 70.2 18.4C70.2 16.3 70.5 14.5 71 12.8C71.5 11.1 72.3 9.7 73.3 8.5C74.3 7.3 75.4 6.40005 76.8 5.80005C78.1 5.20005 79.6 4.80005 81.2 4.80005C82.6 4.80005 83.8 5 84.9 5.5C86 6 87 6.60002 87.8 7.40002C88.6 8.20002 89.2 9.09995 89.6 10.2C90 11.3 90.2 12.4 90.2 13.6C90.2 14.1 90 14.4 89.7 14.6C89.4 14.7 88.9 14.8 88.2 14.8H75.7V14.8ZM83.9 12.4C84.7 12 85.2 11.2 85.2 9.90002C85.2 9.00002 84.8 8.10005 84 7.30005C83.2 6.50005 82.2 6.09998 81 6.09998C79.7 6.09998 78.5 6.59998 77.6 7.59998C76.6 8.59998 76 9.90002 75.7 11.4L75.5 12.3V12.4C75.5 12.7 75.7 12.9 76.2 12.9H79.9C81.7 13 83.1 12.8 83.9 12.4Z" fill="black"/>
<path d="M13.5001 5.5C14.4001 6 14.8001 6.69995 14.8001 7.69995C14.8001 8.99995 14.7001 9.99998 14.6001 10.6C14.5001 11.2 14.2001 11.5 13.9001 11.5C13.5001 11.5 13.2001 11.2 13.2001 10.7C13.1001 10.2 12.9001 9.49995 12.4001 8.69995C11.5001 7.09995 10.2001 6.30005 8.6001 6.30005C7.5001 6.30005 6.6001 6.59995 6.0001 7.19995C5.3001 7.79995 5.0001 8.59998 5.0001 9.59998C5.0001 10.2 5.1001 10.8 5.4001 11.2C5.7001 11.6 6.0001 12 6.5001 12.4C7.0001 12.8 7.6001 13.1 8.3001 13.5C9.0001 13.9 9.8001 14.3 10.7001 14.7C12.6001 15.7 13.9001 16.8 14.8001 18C15.7001 19.2 16.1001 20.8 16.1001 22.6C16.1001 24 15.9001 25.3 15.4001 26.5C15.0001 27.6 14.3001 28.6 13.5001 29.4C12.7001 30.2 11.8001 30.8 10.7001 31.2C9.6001 31.6 8.4001 31.8 7.1001 31.8C5.8001 31.8 4.7001 31.7 3.6001 31.4C2.6001 31.1 1.8001 30.8 1.3001 30.5C1.0001 30.3 0.700098 30.1 0.700098 29.8C0.600098 29.5 0.600098 29.1 0.600098 28.5V27.1C0.600098 25.5 0.600098 24.4 0.700098 23.7C0.800098 23 1.0001 22.6 1.4001 22.6C1.7001 22.6 1.9001 22.7 2.0001 22.9C2.1001 23.1 2.2001 23.4 2.3001 23.7C2.4001 24.1 2.5001 24.5 2.6001 25C2.7001 25.5 2.9001 26.1 3.3001 26.7C4.4001 29 5.9001 30.2 7.9001 30.2C9.1001 30.2 10.1001 29.8 10.9001 28.9C11.7001 28 12.1001 26.9 12.1001 25.5C12.1001 24.8 12.0001 24.1 11.7001 23.6C11.5001 23.1 11.1001 22.6 10.6001 22.1C10.1001 21.7 9.5001 21.2 8.9001 20.8C8.2001 20.4 7.5001 20 6.6001 19.5C5.7001 19 4.8001 18.5 4.1001 18.1C3.4001 17.6 2.8001 17.1 2.3001 16.6C1.8001 16 1.4001 15.4 1.2001 14.7C0.900098 14 0.800097 13.2 0.800097 12.2C0.800097 9.79995 1.5001 7.99998 3.0001 6.59998C4.5001 5.19998 6.3001 4.5 8.6001 4.5C11.0001 4.8 12.6001 5 13.5001 5.5Z" fill="black"/>
<path d="M25.9002 5C25.9002 5.5 26.1002 5.69995 26.6002 5.69995H30.9002C31.2002 5.69995 31.5002 5.70005 31.5002 5.80005C31.6002 5.90005 31.6002 6.00005 31.6002 6.30005V7.40002C31.6002 7.70002 31.6002 7.9 31.5002 8C31.4002 8.1 31.2002 8.19995 30.9002 8.19995H26.6002C26.1002 8.19995 25.9002 8.40002 25.9002 8.90002V23.3C25.9002 25.1 26.1002 26.4 26.4002 27.2C26.7002 28 27.3002 28.4 28.2002 28.4C28.6002 28.4 29.0002 28.3 29.3002 28.2C29.6002 28.1 29.9002 27.9 30.2002 27.7C30.5002 27.5 30.7002 27.3 30.9002 27.2C31.1002 27 31.3002 27 31.5002 27C31.9002 27 32.1002 27.3 32.1002 27.8C32.1002 28.1 31.9002 28.4 31.6002 28.9C31.3002 29.4 30.8002 29.8 30.2002 30.3C29.6002 30.8 28.9002 31.1 28.2002 31.5C27.4002 31.8 26.6002 32 25.7002 32C22.7002 32 21.3002 29.6 21.3002 24.8V22.4L21.5002 10.2C21.5002 9.69995 21.5002 9.20002 21.4002 8.90002C21.3002 8.60002 21.1002 8.40002 20.7002 8.40002H19.7002C19.0002 8.40002 18.7002 8.19995 18.7002 7.69995C18.7002 7.49995 18.8002 7.29998 19.0002 7.09998C19.2002 6.89998 19.5002 6.7 19.8002 6.5C20.1002 6.3 20.5002 5.99998 21.0002 5.59998C21.4002 5.29998 21.9002 4.79995 22.4002 4.19995C23.3002 3.09995 23.9002 2.2 24.4002 1.5C24.8002 0.7 25.2002 0.400024 25.5002 0.400024C25.8002 0.400024 25.9002 0.500049 26.0002 0.800049C26.1002 1.00005 26.1002 1.40005 26.1002 1.80005V5H25.9002Z" fill="black"/>
<path d="M50.0001 24.4C50.0001 25.6 50.1001 26.5 50.2001 27.1C50.4001 27.7 50.8001 28 51.4001 28C51.8001 28 52.2001 27.8 52.5001 27.4C52.8001 27 53.2001 26.8 53.5001 26.8C54.0001 26.8 54.2001 27.1 54.2001 27.7C54.2001 28 54.0001 28.4 53.7001 28.8C53.4001 29.2 52.9001 29.7 52.5001 30.1C52.1001 30.5 51.5001 30.9 51.0001 31.2C50.4001 31.5 49.9001 31.7 49.5001 31.7C48.5001 31.7 47.7001 31.4 47.0001 30.7C46.4001 30.1 45.8001 29.1 45.4001 27.8H45.1001L43.9001 28.8C42.9001 29.6 42.0001 30.3 41.1001 30.9C40.2001 31.5 39.3001 31.8 38.2001 31.8C37.0001 31.8 36.0001 31.4 35.3001 30.6C34.6001 29.8 34.2001 28.7 34.2001 27.2C34.2001 25.9 34.4001 24.8 34.8001 23.9C35.2001 23 35.8001 22.1 36.6001 21.3C37.4001 20.5 38.4001 19.8 39.5001 19.1C40.6001 18.4 41.9001 17.7 43.2001 17.1L44.6001 16.4C44.9001 16.2 45.1001 16.1 45.1001 15.9C45.2001 15.7 45.2001 15.4 45.2001 15V11C45.2001 9.4 45.1001 8.2 44.8001 7.5C44.6001 6.8 43.9001 6.40002 42.9001 6.40002C41.9001 6.40002 41.1001 6.70002 40.6001 7.40002C40.0001 8.10002 39.5001 8.99995 38.9001 10.2C38.5001 11.1 38.0001 12 37.5001 12.6C37.0001 13.3 36.2001 13.6 35.0001 13.6C34.7001 13.6 34.4001 13.5 34.2001 13.3C34.0001 13.1 33.9001 12.9 33.9001 12.6C33.9001 11.8 34.2001 10.9 34.7001 9.90002C35.2001 9.00002 35.9001 8.10005 36.9001 7.30005C37.8001 6.50005 38.9001 5.90002 40.2001 5.40002C41.5001 4.90002 42.9001 4.59998 44.3001 4.59998C45.5001 4.59998 46.5001 4.7 47.2001 5C47.9001 5.3 48.5001 5.70005 48.9001 6.30005C49.3001 6.90005 49.5001 7.50002 49.6001 8.40002C49.7001 9.20002 49.8001 10.2 49.8001 11.2V24.4H50.0001ZM45.0001 18C44.9001 18 44.7001 18.1 44.4001 18.2L42.5001 19.1C40.3001 20.2 39.1001 22.1 39.1001 24.8C39.1001 25.9 39.3001 26.7 39.7001 27.3C40.1001 27.9 40.6001 28.2 41.3001 28.2C41.8001 28.2 42.2001 28.1 42.7001 27.8C43.2001 27.6 43.6001 27.2 44.0001 26.8C44.4001 26.4 44.7001 25.8 44.9001 25.2C45.2001 24.6 45.3001 23.9 45.3001 23.1V18.6C45.3001 18.2 45.2001 18 45.0001 18Z" fill="black"/>
<path d="M62.4002 5C62.4002 5.5 62.6002 5.69995 63.1002 5.69995H67.4002C67.7002 5.69995 68.0002 5.70005 68.0002 5.80005C68.0002 5.90005 68.1002 6.00005 68.1002 6.30005V7.40002C68.1002 7.70002 68.1002 7.9 68.0002 8C67.9002 8.1 67.7002 8.19995 67.4002 8.19995H63.1002C62.6002 8.19995 62.4002 8.40002 62.4002 8.90002V23.3C62.4002 25.1 62.6002 26.4 62.9002 27.2C63.2002 28 63.8002 28.4 64.7002 28.4C65.1002 28.4 65.5002 28.3 65.8002 28.2C66.1002 28.1 66.4002 27.9 66.7002 27.7C67.0002 27.5 67.2002 27.3 67.4002 27.2C67.6002 27.1 67.8002 27 68.0002 27C68.4002 27 68.6002 27.3 68.6002 27.8C68.6002 28.1 68.4002 28.4 68.1002 28.9C67.8002 29.4 67.3002 29.8 66.7002 30.3C66.1002 30.8 65.4002 31.1 64.7002 31.5C63.9002 31.8 63.1002 32 62.2002 32C59.2002 32 57.8002 29.6 57.8002 24.8V22.4L58.0002 10.2C58.0002 9.69995 58.0002 9.20002 57.9002 8.90002C57.8002 8.60002 57.6002 8.40002 57.2002 8.40002H56.2002C55.5002 8.40002 55.2002 8.19995 55.2002 7.69995C55.2002 7.49995 55.3002 7.29998 55.5002 7.09998C55.7002 6.89998 56.0002 6.7 56.3002 6.5C56.6002 6.3 57.0002 5.99998 57.5002 5.59998C57.9002 5.29998 58.4002 4.79995 58.9002 4.19995C59.8002 3.09995 60.4002 2.2 60.9002 1.5C61.3002 0.7 61.7002 0.400024 62.0002 0.400024C62.3002 0.400024 62.4002 0.500049 62.5002 0.800049C62.6002 1.00005 62.6002 1.40005 62.6002 1.80005V5H62.4002Z" fill="black"/>
<path d="M76 14.8C75.7 14.8 75.5 14.9 75.4 15C75.3 15.1 75.3 15.4 75.3 15.7V17.1C75.3 20.6 76.1 23.4 77.5 25.5C79 27.5 80.9 28.6 83.3 28.6C84.4 28.6 85.3 28.4 86.1 28.1C86.9 27.8 87.5 27.4 88 27C88.5 26.6 88.9 26.2 89.2 25.9C89.5 25.6 89.7 25.4 89.8 25.4C90.1 25.4 90.3 25.6 90.3 26C90.3 26.4 90.1 27 89.6 27.6C89.1 28.3 88.5 29 87.6 29.6C86.7 30.3 85.7 30.8 84.6 31.3C83.4 31.8 82.1 32 80.6 32C79 32 77.6 31.7 76.4 31.1C75.1 30.5 74 29.6 73.1 28.4C72.2 27.2 71.5 25.8 71 24.1C70.5 22.4 70.3 20.6 70.3 18.5C70.3 16.4 70.6 14.5 71.1 12.8C71.6 11.1 72.4 9.7 73.4 8.5C74.4 7.3 75.5 6.40005 76.9 5.80005C78.2 5.20005 79.7 4.80005 81.3 4.80005C82.7 4.80005 83.9 5 85.1 5.5C86.2 6 87.2 6.60002 88 7.40002C88.8 8.20002 89.4 9.09995 89.9 10.2C90.3 11.3 90.6 12.4 90.6 13.6C90.6 14.1 90.4 14.4 90.1 14.6C89.8 14.7 89.3 14.8 88.6 14.8H76V14.8ZM84.2 12.4C85.1 12 85.5 11.1 85.5 9.90002C85.5 9.00002 85.1 8.10005 84.3 7.30005C83.5 6.50005 82.5 6.09998 81.3 6.09998C80 6.09998 78.8 6.59998 77.8 7.59998C76.8 8.59998 76.2 9.9 75.9 11.5L75.7 12.4V12.5C75.7 12.8 75.9 13 76.4 13H80.1C82 13 83.4 12.8 84.2 12.4Z" fill="black"/>
</svg>
