<svg width="766" height="185" viewBox="0 0 766 185" fill="none" xmlns="http://www.w3.org/2000/svg">
<path d="M198.6 67L185 104.4C183.4 108.7 182.3 112.2 181.7 114.8C181.1 117.4 180.7 119.6 180.7 121.4C180.7 123.8 181.2 125.7 182.3 127C183.4 128.3 184.9 128.9 186.8 128.9C188.2 128.9 189.9 128.4 191.9 127.5C193.9 126.6 195.2 126.1 195.9 126.1C196.3 126.2 196.6 126.3 196.8 126.4C197 126.5 197.1 126.8 197.2 127.2V127.7L196.5 130.4C196.1 131.7 194.7 132.9 192.2 134.2C191 134.8 190 135.3 189.4 135.8C188.2 136.5 186.7 137.7 184.6 139.2C180.8 142.2 177.8 143.7 175.6 143.7C172.1 143.7 169.2 142.1 166.7 138.8C164.3 135.5 163 131.5 163 126.6C163 124.3 163.3 121.6 164.1 118.5C164.8 115.4 165.9 111.8 167.5 107.4L175.7 85.7C177.7 80.4 179.2 76.2 180 72.8C180.9 69.5 181.3 66.7 181.3 64.4C181.3 62.3 180.9 60.7 180 59.6C179.1 58.5 177.9 57.9 176.3 57.9C175.8 57.9 174.8 58 173.6 58.3C172.3 58.5 171.3 58.7 170.5 58.7C170 58.7 169.5 58.6 169.2 58.5C168.9 58.4 168.7 58.1 168.7 57.8C168.7 57.6 168.7 57.5 168.7 57.4C168.7 57.3 168.8 57.3 168.8 57.2L170.1 54.7C170.8 53.3 173 52.2 176.7 51.3C179.2 50.8 181.3 50.2 183 49.7C184.8 49.1 187.3 48 190.6 46.4C193.8 44.8 196.2 44 197.7 44C199.2 44 200.4 44.7 201.3 46C202.2 47.3 202.7 49 202.7 51C202.7 52.5 202.3 54.7 201.6 57.6C200.8 60.3 199.8 63.5 198.6 67ZM209.3 12L211.6 16.4C211.8 16.8 212 17.3 212.1 17.8C212.2 18.3 212.3 18.9 212.3 19.5C212.3 21.5 210.3 24.3 206.3 27.8C202.3 31.3 199.3 33.1 197.3 33.1C195.9 33.1 194.3 31.5 192.5 28.4C190.7 25.3 189.8 22.4 189.8 19.8C189.8 18.9 190.2 18 190.9 17.1C191.6 16.2 192.9 15 194.7 13.6C197.7 11.4 199.9 9.89998 201.3 9.19998C202.7 8.39998 203.9 8.09998 204.9 8.09998C205.8 8.09998 206.5 8.39998 207.3 9.09998C207.9 9.69998 208.6 10.7 209.3 12Z" fill="black"/>
<path d="M305.3 81.2L295.5 104.3C293.8 108.2 292.6 111.5 291.8 114.2C291 116.9 290.7 119.2 290.7 121.2C290.7 123.6 291.3 125.5 292.4 126.9C293.6 128.2 295.2 128.9 297.3 128.9C298.8 128.9 300.5 128.4 302.5 127.5C304.5 126.6 305.7 126.1 306.3 126.1C306.9 126.1 307.2 126.2 307.4 126.4C307.6 126.6 307.7 126.9 307.7 127.2V127.7L307 130.4C306.6 131.7 305.2 133 302.7 134.2C301.5 134.8 300.7 135.3 300 135.7C298.8 136.4 297.1 137.6 295 139.2C291.2 142.1 288.3 143.6 286.2 143.6C282.6 143.6 279.6 142 277.2 138.7C274.8 135.4 273.6 131.2 273.6 126C273.6 123.4 274 120.7 274.7 117.7C275.4 114.7 276.5 111.3 278.1 107.4L289.2 80.7C290.5 77.6 291.5 74.8999 292.1 72.4999C292.8 70.0999 293.1 68.0999 293.1 66.3999C293.1 63.8999 292.3 61.8 290.7 60.2C289.1 58.6 287.1 57.7999 284.7 57.7999C277.8 57.7999 270.2 62.1999 261.8 70.8999C253.4 79.6999 247 90.4999 242.7 103.5L231.6 136.4C230.9 138.5 230.3 139.8 229.7 140.3C229.1 140.8 228.2 141.1 227.1 141.1H221.2H217.3C216.3 141.1 215.4 140.9 214.8 140.6C214.2 140.2 213.9 139.7 213.9 139C213.9 138.9 214 138.6 214.1 138.2C214.2 137.8 214.4 137.4 214.6 136.9L233.5 85.7999C235.5 80.4999 236.9 76.1999 237.8 72.7999C238.7 69.3999 239.2 66.6999 239.2 64.4999C239.2 62.3999 238.8 60.8 237.9 59.7C237 58.6 235.8 57.9999 234.2 57.9999C233.7 57.9999 232.7 58.1999 231.5 58.4999C230.2 58.7999 229.2 58.9999 228.4 58.9999C227.9 58.9999 227.5 58.9 227.1 58.7C226.7 58.5 226.6 58.2999 226.6 58.0999C226.6 57.8999 226.6 57.6999 226.6 57.4999C226.6 57.3999 226.7 57.1999 226.7 57.0999L228 54.8999C228.7 53.3999 231.1 52.1999 235.1 51.2999C237.8 50.5999 240 49.9999 241.7 49.4999C243.6 48.8999 246 47.8999 248.8 46.3999C251.7 44.8999 253.7 44.2 254.8 44.2C256.3 44.2 257.6 44.8999 258.6 46.2999C259.6 47.6999 260.1 49.5 260.1 51.7C260.1 53.4 259.8 55.4999 259.2 57.9999C258.6 60.4999 257.6 63.5999 256.2 67.2999C265.5 59.3999 273.3 53.4999 279.6 49.7999C285.9 46.0999 291 44.2 295 44.2C299.3 44.2 303 45.9999 306 49.4999C309 52.9999 310.5 57.3999 310.5 62.5999C310.5 65.1999 310.1 67.8999 309.3 70.8999C308.4 73.4999 307.1 77.1 305.3 81.2Z" fill="black"/>
<path d="M425 0.699951C425.4 0.699951 425.8 0.799939 426.1 0.999939C426.4 1.19994 426.6 1.49993 426.7 1.79993C426.7 2.49993 426 4.19993 424.7 6.89993C423.4 9.59993 422.3 11.9999 421.5 13.8999C420.9 15.3999 420.2 17.4999 419.4 20.0999C418.1 24.2999 416.8 26.7999 415.4 27.8999L412.6 29.7999C412.3 29.8999 412.1 29.9999 411.9 30.0999C411.7 30.1999 411.6 30.2 411.5 30.2C411.2 30.2 410.9 30 410.7 29.7C410.5 29.4 410.3 28.9999 410.3 28.5999C410.3 28.4999 410.5 27.3999 411 25.3999C411.5 23.3999 411.7 21.4999 411.7 19.5999C411.7 16.3999 410.8 13.9999 409 12.4999C407.2 10.8999 404.6 10.0999 401.1 10.0999C396.1 10.0999 391.7 11.8999 388 15.5999C384.2 19.2999 380.8 25.1999 377.7 33.2999L372.1 48.0999C373.4 48.1999 374.8 48.2 376.3 48.2C377.7 48.2 379.5 48.2 381.7 48.2C385.4 48.2 390.7 47.2999 397.6 45.5999C398.1 45.5999 398.5 45.6999 398.8 45.8999C399.1 46.0999 399.3 46.2999 399.3 46.4999C399.3 48.0999 397.9 50.3 395.2 53.2C392.5 56.1 389.6 57.4999 386.7 57.4999C385.9 57.4999 383.6 57.2999 379.8 56.8999C376 56.4999 372.6 56.1999 369.6 55.9999L350.5 111.9C342.1 136.1 332.1 154.3 320.3 166.4C308.5 178.5 295 184.6 279.8 184.6C272.9 184.6 267 182.9 262.2 179.5C257.3 176.1 254.9 172.2 254.9 167.9C254.9 165.3 256.7 163.1 260.4 161.3C262.4 160.4 263.8 159.6 264.8 158.9L269.8 155.3C271.1 154.3 272.1 153.6 272.8 153.3C273.5 153 274.2 152.8 275 152.8H275.4L277.8 153C278.3 153 278.6 153.1 278.9 153.2C279.1 153.3 279.2 153.5 279.2 153.7C279.2 154.1 278 155.6 275.5 158.2C273.1 160.8 271.8 163.3 271.8 165.7C271.8 168.7 273 171.1 275.5 172.9C278 174.7 281.2 175.6 285.3 175.6C295.1 175.6 303.6 171.2 311 162.4C318.4 153.6 325.4 139.2 332 119.2L353.2 55.8999H344.8C344.3 55.8999 343.9 55.7999 343.7 55.5999C343.4 55.3999 343.3 55.0999 343.3 54.7999C343.3 53.8999 343.8 52.9999 344.7 51.8999C345.6 50.7999 346.7 49.9999 347.8 49.5999C348.4 49.3999 349.3 49.0999 350.5 48.8999C353.9 48.2999 356.3 46.4999 357.6 43.3999C358 42.4999 358.6 41.0999 359.4 39.0999C363.7 28.4999 368.6 20.4999 373.9 15.0999C378.4 10.5999 383.6 7.09995 389.7 4.69995C395.8 2.29995 402.4 0.999939 409.5 0.999939C411 0.999939 412.8 1.09993 414.9 1.29993C417 1.49993 418.4 1.59995 419.2 1.59995C419.7 1.59995 420.3 1.49993 420.8 1.39993C421.3 1.19993 421.8 0.999951 422.3 0.699951H425Z" fill="black"/>
<path d="M428.9 67L415.3 104.4C413.7 108.7 412.6 112.2 412 114.8C411.4 117.4 411 119.6 411 121.4C411 123.8 411.5 125.7 412.6 127C413.7 128.3 415.2 128.9 417.1 128.9C418.5 128.9 420.2 128.4 422.2 127.5C424.2 126.6 425.5 126.1 426.2 126.1C426.6 126.2 426.9 126.3 427.1 126.4C427.3 126.5 427.4 126.8 427.5 127.2V127.7L426.8 130.4C426.4 131.7 425 132.9 422.5 134.2C421.3 134.8 420.3 135.3 419.7 135.8C418.5 136.5 417 137.7 414.9 139.2C411.1 142.2 408.1 143.7 405.9 143.7C402.4 143.7 399.5 142.1 397 138.8C394.6 135.5 393.3 131.5 393.3 126.6C393.3 124.3 393.6 121.6 394.4 118.5C395.1 115.4 396.2 111.8 397.8 107.4L406 85.7C408 80.4 409.5 76.2 410.3 72.8C411.2 69.5 411.6 66.7 411.6 64.4C411.6 62.3 411.2 60.7 410.3 59.6C409.4 58.5 408.2 57.9 406.6 57.9C406.1 57.9 405.1 58 403.9 58.3C402.6 58.5 401.6 58.7 400.8 58.7C400.3 58.7 399.8 58.6 399.5 58.5C399.2 58.4 399 58.1 399 57.8C399 57.6 399 57.5 399 57.4C399 57.3 399.1 57.3 399.1 57.2L400.4 54.7C401.1 53.3 403.3 52.2 407 51.3C409.5 50.8 411.6 50.2 413.3 49.7C415.1 49.1 417.6 48 420.9 46.4C424.1 44.8 426.5 44 428 44C429.5 44 430.7 44.7 431.6 46C432.5 47.3 433 49 433 51C433 52.5 432.6 54.7 431.9 57.6C431.2 60.5 430.1 63.5 428.9 67ZM439.6 12L441.9 16.4C442.1 16.8 442.3 17.3 442.4 17.8C442.5 18.3 442.6 18.9 442.6 19.5C442.6 21.5 440.6 24.3 436.6 27.8C432.6 31.3 429.6 33.1 427.6 33.1C426.2 33.1 424.6 31.5 422.8 28.4C421 25.3 420.1 22.4 420.1 19.8C420.1 18.9 420.5 18 421.2 17.1C421.9 16.2 423.2 15 425 13.6C428 11.4 430.2 9.89998 431.6 9.19998C433 8.39998 434.2 8.09998 435.2 8.09998C436.1 8.09998 436.8 8.39998 437.6 9.09998C438.2 9.69998 438.9 10.7 439.6 12Z" fill="black"/>
<path d="M535.6 81.2L525.8 104.3C524.1 108.2 522.9 111.5 522.1 114.2C521.3 116.9 521 119.2 521 121.2C521 123.6 521.6 125.5 522.7 126.9C523.9 128.2 525.5 128.9 527.6 128.9C529.1 128.9 530.8 128.4 532.8 127.5C534.8 126.6 536 126.1 536.6 126.1C537.1 126.1 537.5 126.2 537.7 126.4C537.9 126.6 538 126.9 538 127.2V127.7L537.3 130.4C536.9 131.7 535.5 133 533 134.2C531.8 134.8 531 135.3 530.3 135.7C529.1 136.4 527.4 137.6 525.3 139.2C521.5 142.1 518.6 143.6 516.5 143.6C512.9 143.6 509.9 142 507.5 138.7C505.1 135.4 503.9 131.2 503.9 126C503.9 123.4 504.3 120.7 505 117.7C505.7 114.7 506.8 111.3 508.4 107.4L519.5 80.7C520.8 77.6 521.8 74.8999 522.4 72.4999C523.1 70.0999 523.4 68.0999 523.4 66.3999C523.4 63.8999 522.6 61.8 521 60.2C519.4 58.6 517.4 57.7999 515 57.7999C508.1 57.7999 500.5 62.1999 492.1 70.8999C483.7 79.6999 477.3 90.4999 473 103.5L461.9 136.4C461.2 138.5 460.6 139.8 460 140.3C459.4 140.8 458.5 141.1 457.4 141.1H451.5H447.6C446.6 141.1 445.7 140.9 445.1 140.6C444.5 140.2 444.2 139.7 444.2 139C444.2 138.9 444.3 138.6 444.4 138.2C444.5 137.8 444.7 137.4 444.9 136.9L463.8 85.7999C465.8 80.4999 467.2 76.1999 468.1 72.7999C469 69.3999 469.5 66.6999 469.5 64.4999C469.5 62.3999 469.1 60.8 468.2 59.7C467.3 58.6 466.1 57.9999 464.5 57.9999C464 57.9999 463 58.1999 461.8 58.4999C460.5 58.7999 459.5 58.9999 458.7 58.9999C458.2 58.9999 457.8 58.9 457.4 58.7C457 58.5 456.9 58.2999 456.9 58.0999C456.9 57.8999 456.9 57.6999 456.9 57.4999C456.9 57.3999 457 57.1999 457 57.0999L458.3 54.8999C459 53.3999 461.4 52.1999 465.4 51.2999C468.1 50.5999 470.3 49.9999 472 49.4999C473.9 48.8999 476.3 47.8999 479.1 46.3999C482 44.8999 484 44.2 485.1 44.2C486.6 44.2 487.9 44.8999 488.9 46.2999C489.9 47.6999 490.4 49.5 490.4 51.7C490.4 53.4 490.1 55.4999 489.5 57.9999C488.9 60.4999 487.9 63.5999 486.5 67.2999C495.8 59.3999 503.6 53.4999 509.9 49.7999C516.2 46.0999 521.3 44.2 525.3 44.2C529.6 44.2 533.3 45.9999 536.3 49.4999C539.3 52.9999 540.8 57.3999 540.8 62.5999C540.8 65.1999 540.4 67.8999 539.6 70.8999C538.7 73.4999 537.4 77.1 535.6 81.2Z" fill="black"/>
<path d="M597.3 67L583.7 104.4C582.1 108.7 581 112.2 580.4 114.8C579.8 117.4 579.4 119.6 579.4 121.4C579.4 123.8 579.9 125.7 581 127C582.1 128.3 583.6 128.9 585.5 128.9C586.9 128.9 588.6 128.4 590.6 127.5C592.6 126.6 593.9 126.1 594.6 126.1C595 126.2 595.3 126.3 595.5 126.4C595.7 126.5 595.8 126.8 595.9 127.2V127.7L595.2 130.4C594.8 131.7 593.4 132.9 590.9 134.2C589.7 134.8 588.7 135.3 588.1 135.8C586.9 136.5 585.4 137.7 583.3 139.2C579.5 142.2 576.5 143.7 574.3 143.7C570.8 143.7 567.9 142.1 565.4 138.8C563 135.5 561.7 131.5 561.7 126.6C561.7 124.3 562 121.6 562.8 118.5C563.5 115.4 564.6 111.8 566.2 107.4L574.4 85.7C576.4 80.4 577.9 76.2 578.7 72.8C579.6 69.5 580 66.7 580 64.4C580 62.3 579.6 60.7 578.7 59.6C577.8 58.5 576.6 57.9 575 57.9C574.5 57.9 573.5 58 572.3 58.3C571 58.5 570 58.7 569.2 58.7C568.7 58.7 568.2 58.6 567.9 58.5C567.6 58.4 567.4 58.1 567.4 57.8C567.4 57.6 567.4 57.5 567.4 57.4C567.4 57.3 567.5 57.3 567.5 57.2L568.8 54.7C569.5 53.3 571.7 52.2 575.4 51.3C577.9 50.8 580 50.2 581.7 49.7C583.5 49.1 586 48 589.3 46.4C592.5 44.8 594.9 44 596.4 44C597.9 44 599.1 44.7 600 46C600.9 47.3 601.4 49 601.4 51C601.4 52.5 601 54.7 600.3 57.6C599.6 60.3 598.6 63.5 597.3 67ZM608 12L610.3 16.4C610.5 16.8 610.7 17.3 610.8 17.8C610.9 18.3 611 18.9 611 19.5C611 21.5 609 24.3 605 27.8C601 31.3 598 33.1 596 33.1C594.6 33.1 593 31.5 591.2 28.4C589.4 25.3 588.5 22.4 588.5 19.8C588.5 18.9 588.9 18 589.6 17.1C590.3 16.2 591.6 15 593.4 13.6C596.4 11.4 598.6 9.89998 600 9.19998C601.4 8.39998 602.6 8.09998 603.6 8.09998C604.5 8.09998 605.2 8.39998 606 9.09998C606.6 9.69998 607.3 10.7 608 12Z" fill="black"/>
<path d="M670.1 27.2L660.9 49.3999H661.4C667 49.5999 671.1 49.7999 673.8 49.7999C676.4 49.7999 679 49.3 681.8 48.2C684.5 47.1 686.1 46.5999 686.4 46.5999C686.9 46.5999 687.3 46.7999 687.6 47.0999C687.9 47.3999 688.1 47.8 688.1 48.2C688.1 50.3 686.7 52.5999 683.9 55.2999C681.1 57.9999 678 59.2999 674.5 59.2999C672.8 59.2999 670.5 59.1999 667.6 58.9999C664.7 58.7999 661.5 58.4999 657.8 57.9999L638.3 110.1C637.5 112.2 636.9 114.1 636.5 115.9C636.1 117.7 635.9 119.3 635.9 120.8C635.9 123.9 636.6 126.2 638.1 127.9C639.5 129.5 641.6 130.4 644.2 130.4C646.1 130.4 648 130 650.1 129.1C652.2 128.2 654.4 126.8 657.1 124.8C658 124.1 659.2 123.1 660.6 121.9C662.4 120.4 663.6 119.6 664.3 119.6C664.8 119.6 665.3 119.7 665.5 119.9C665.8 120.1 665.9 120.4 665.9 120.7C665.8 121.1 665.7 121.3 665.7 121.4L663.8 126.3C663.3 127.7 661.6 129.4 658.8 131.2C658.2 131.6 657.8 131.9 657.5 132.1L656.2 132.9C645.9 140 638.6 143.5 634 143.5C629.3 143.5 625.5 142 622.7 138.9C619.9 135.8 618.4 131.7 618.4 126.6C618.4 124 618.8 121.1 619.6 117.8C620.4 114.5 621.9 109.9 624.1 104L641.2 57.9999H632.8C632.1 57.9999 631.6 57.9 631.2 57.7C630.8 57.5 630.7 57.2999 630.7 57.0999C630.7 56.7999 630.7 56.5999 630.8 56.3999C630.9 56.1999 630.9 56.0999 631.1 55.8999L633 53.2C633.4 52.7 636 51.3999 641 49.2999C645.9 47.2999 650.1 44.3999 653.5 40.7999C655.3 38.7999 657.6 36.0999 660.3 32.5999C663.9 27.6999 666.7 25.2999 668.7 25.2999C669.1 25.2999 669.5 25.4 669.8 25.7C670.1 25.9 670.2 26.1999 670.2 26.4999V26.8999V27.2H670.1Z" fill="black"/>
<path d="M701.2 99.5999C700.7 101.8 700.4 103.8 700.1 105.5C699.9 107.2 699.8 108.7 699.8 109.9C699.8 116.4 701.1 121.2 703.7 124.5C706.3 127.8 710.1 129.4 715.2 129.4C718.7 129.4 722.1 128.8 725.5 127.6C728.9 126.4 732.9 124.2 737.5 121.2C739.5 119.9 741.7 118.3 744.1 116.2C746.5 114.2 748.1 113.1 748.8 113.1C749 113.1 749.3 113.2 749.6 113.5C749.9 113.8 750.1 114 750.1 114.2C750 114.4 749.9 114.8 749.7 115.3L748.1 120.4C747.6 121.9 745.4 123.9 741.6 126.3C740.6 126.9 739.9 127.4 739.4 127.7C738 128.6 736 129.9 733.5 131.5C721.3 139.5 712.2 143.5 705.9 143.5C698.9 143.5 693.2 140.8 688.8 135.3C684.3 129.9 682.1 122.9 682.1 114.3C682.1 106.7 684 98.6999 687.7 90.4999C691.4 82.2999 696.7 74.4999 703.6 66.9999C710.3 59.6999 717.7 53.9999 725.8 49.8999C734 45.7999 741.8 43.7 749.4 43.7C754.5 43.7 758.5 44.9999 761.4 47.5999C764.3 50.1999 765.7 53.7999 765.7 58.4999C765.7 65.7999 761.5 72.1999 753 77.8999C744.8 83.6999 727.4 90.8999 701.2 99.5999ZM703.4 90.7999C719.4 86.9999 730.9 82.7999 738 78.2999C745.1 73.7999 748.6 68.2999 748.6 61.9999C748.6 59.2999 747.8 57.1999 746.2 55.5999C744.6 53.9999 742.4 53.2 739.7 53.2C733.7 53.2 727.2 56.6999 720.4 63.5999C713.6 70.4999 708 79.5999 703.4 90.7999Z" fill="black"/>
<path d="M13.5001 5.30005C14.4001 5.80005 14.8001 6.50006 14.8001 7.50006C14.8001 8.80006 14.7001 9.80005 14.6001 10.4001C14.5001 11.0001 14.2001 11.3 13.9001 11.3C13.5001 11.3 13.2001 11.0001 13.2001 10.5001C13.1001 10.0001 12.9001 9.30006 12.4001 8.50006C11.5001 6.90006 10.2001 6.10007 8.6001 6.10007C7.5001 6.10007 6.6001 6.40006 6.0001 7.00006C5.3001 7.60006 5.0001 8.40005 5.0001 9.40005C5.0001 10.0001 5.1001 10.6001 5.4001 11.0001C5.7001 11.4001 6.0001 11.8001 6.5001 12.2001C7.0001 12.6001 7.6001 12.9 8.3001 13.3C9.0001 13.7 9.8001 14.1001 10.7001 14.5001C12.6001 15.5001 13.9001 16.6 14.8001 17.8C15.7001 19 16.1001 20.6001 16.1001 22.4001C16.1001 23.8001 15.9001 25.1 15.4001 26.3C15.0001 27.4 14.3001 28.4001 13.5001 29.2001C12.7001 30.0001 11.8001 30.6001 10.7001 31.0001C9.6001 31.4001 8.4001 31.6001 7.1001 31.6001C5.8001 31.6001 4.7001 31.5001 3.6001 31.2001C2.6001 30.9001 1.8001 30.6 1.3001 30.3C1.0001 30.1 0.700098 29.9001 0.700098 29.6001C0.600098 29.3001 0.600098 28.9 0.600098 28.3V26.9001C0.600098 25.3001 0.600098 24.2001 0.700098 23.5001C0.800098 22.8001 1.0001 22.4001 1.4001 22.4001C1.7001 22.4001 1.9001 22.5001 2.0001 22.7001C2.1001 22.9001 2.2001 23.2001 2.3001 23.5001C2.4001 23.9001 2.5001 24.3 2.6001 24.8C2.7001 25.3 2.9001 25.9001 3.3001 26.5001C4.4001 28.8001 5.9001 30.0001 7.9001 30.0001C9.1001 30.0001 10.1001 29.6001 10.9001 28.7001C11.7001 27.9001 12.1001 26.7 12.1001 25.3C12.1001 24.6 12.0001 23.9001 11.7001 23.4001C11.5001 22.9001 11.1001 22.4001 10.6001 21.9001C10.1001 21.5001 9.5001 21.0001 8.9001 20.6001C8.2001 20.2001 7.5001 19.8 6.6001 19.3C5.7001 18.8 4.8001 18.3001 4.1001 17.9001C3.4001 17.4001 2.8001 16.9001 2.3001 16.4001C1.8001 15.8001 1.4001 15.2001 1.2001 14.5001C0.900098 13.8001 0.800097 13.0001 0.800097 12.0001C0.800097 9.60006 1.5001 7.80005 3.0001 6.40005C4.5001 5.00005 6.3001 4.30005 8.6001 4.30005C11.0001 4.50005 12.6001 4.80005 13.5001 5.30005Z" fill="black"/>
<path d="M25.9002 4.79999C25.9002 5.29999 26.1002 5.5 26.6002 5.5H30.9002C31.2002 5.5 31.5002 5.50001 31.5002 5.60001C31.6002 5.70001 31.6002 5.80001 31.6002 6.10001V7.20001C31.6002 7.50001 31.6002 7.69999 31.5002 7.79999C31.4002 7.89999 31.2002 8 30.9002 8H26.6002C26.1002 8 25.9002 8.20001 25.9002 8.70001V23.1C25.9002 24.9 26.1002 26.2 26.4002 27C26.7002 27.8 27.3002 28.2 28.2002 28.2C28.6002 28.2 29.0002 28.1 29.3002 28C29.6002 27.9 29.9002 27.7 30.2002 27.5C30.5002 27.3 30.7002 27.1 30.9002 27C31.1002 26.8 31.3002 26.8 31.5002 26.8C31.9002 26.8 32.1002 27.1 32.1002 27.6C32.1002 27.9 31.9002 28.2 31.6002 28.7C31.3002 29.2 30.8002 29.6 30.2002 30.1C29.6002 30.6 28.9002 30.9 28.2002 31.3C27.5002 31.7 26.6002 31.8 25.7002 31.8C22.7002 31.8 21.3002 29.4 21.3002 24.6V22L21.5002 9.79999C21.5002 9.29999 21.5002 8.8 21.4002 8.5C21.3002 8.2 21.1002 8 20.7002 8H19.7002C19.0002 8 18.7002 7.79999 18.7002 7.29999C18.7002 7.09999 18.8002 6.90001 19.0002 6.70001C19.2002 6.50001 19.5002 6.30001 19.8002 6.10001C20.1002 5.90001 20.5002 5.60001 21.0002 5.20001C21.4002 4.90001 21.9002 4.39999 22.4002 3.79999C23.3002 2.69999 23.9002 1.80001 24.4002 1.10001C24.8002 0.300006 25.2002 0 25.5002 0C25.8002 0 25.9002 0.0999939 26.0002 0.399994C26.1002 0.599994 26.1002 0.999994 26.1002 1.39999V4.79999H25.9002Z" fill="black"/>
<path d="M50.0001 24.2C50.0001 25.4 50.1001 26.3 50.2001 26.9C50.4001 27.5 50.8001 27.8 51.4001 27.8C51.8001 27.8 52.2001 27.6 52.5001 27.2C52.8001 26.8 53.2001 26.6 53.5001 26.6C54.0001 26.6 54.2001 26.9 54.2001 27.5C54.2001 27.8 54.0001 28.2 53.7001 28.6C53.4001 29 52.9001 29.5 52.5001 29.9C52.1001 30.3 51.5001 30.7 51.0001 31C50.4001 31.3 49.9001 31.5 49.5001 31.5C48.5001 31.5 47.7001 31.2 47.0001 30.5C46.4001 29.9 45.8001 28.9 45.4001 27.6H45.1001L43.9001 28.6C42.9001 29.4 42.0001 30.1 41.1001 30.7C40.2001 31.3 39.3001 31.6 38.2001 31.6C37.0001 31.6 36.0001 31.2 35.3001 30.4C34.6001 29.6 34.2001 28.5 34.2001 27C34.2001 25.7 34.4001 24.6 34.8001 23.7C35.2001 22.8 35.8001 21.9 36.6001 21.1C37.4001 20.3 38.4001 19.6 39.5001 18.9C40.6001 18.2 41.9001 17.5 43.2001 16.9L44.6001 16.2C44.9001 16 45.1001 15.9 45.1001 15.7C45.1001 15.5 45.2001 15.2 45.2001 14.8V10.8C45.2001 9.20002 45.1001 8.00002 44.8001 7.30002C44.6001 6.60002 43.9001 6.20004 42.9001 6.20004C41.9001 6.20004 41.1001 6.50004 40.6001 7.20004C40.0001 7.90004 39.5001 8.80003 38.9001 10C38.5001 10.9 38.0001 11.8 37.5001 12.4C37.0001 13.1 36.2001 13.4 35.0001 13.4C34.7001 13.4 34.4001 13.3 34.2001 13.1C34.0001 12.9 33.9001 12.7 33.9001 12.4C33.9001 11.6 34.2001 10.7 34.7001 9.70004C35.2001 8.80004 35.9001 7.90004 36.9001 7.10004C37.8001 6.30004 38.9001 5.70004 40.2001 5.20004C41.5001 4.70004 42.9001 4.40002 44.3001 4.40002C45.5001 4.40002 46.5001 4.50002 47.2001 4.80002C47.9001 5.10002 48.5001 5.50004 48.9001 6.10004C49.3001 6.70004 49.5001 7.30004 49.6001 8.20004C50.0001 9.00004 50.0001 9.90003 50.0001 11V24.2ZM45.0001 17.8C44.9001 17.8 44.7001 17.9 44.4001 18L42.5001 18.9C40.3001 20 39.1001 21.9 39.1001 24.6C39.1001 25.7 39.3001 26.5 39.7001 27.1C40.1001 27.7 40.6001 28 41.3001 28C41.8001 28 42.2001 27.9 42.7001 27.6C43.2001 27.4 43.6001 27 44.0001 26.6C44.4001 26.2 44.7001 25.6 44.9001 25C45.2001 24.4 45.3001 23.7 45.3001 22.9V18.4C45.3001 18 45.2001 17.8 45.0001 17.8Z" fill="black"/>
<path d="M62.4002 4.79999C62.4002 5.29999 62.6002 5.5 63.1002 5.5H67.4002C67.7002 5.5 68.0002 5.50001 68.0002 5.60001C68.1002 5.70001 68.1002 5.80001 68.1002 6.10001V7.20001C68.1002 7.50001 68.1002 7.69999 68.0002 7.79999C67.9002 7.89999 67.7002 8 67.4002 8H63.1002C62.6002 8 62.4002 8.20001 62.4002 8.70001V23.1C62.4002 24.9 62.6002 26.2 62.9002 27C63.2002 27.8 63.8002 28.2 64.7002 28.2C65.1002 28.2 65.5002 28.1 65.8002 28C66.1002 27.9 66.4002 27.7 66.7002 27.5C67.0002 27.3 67.2002 27.1 67.4002 27C67.6002 26.8 67.8002 26.8 68.0002 26.8C68.4002 26.8 68.6002 27.1 68.6002 27.6C68.6002 27.9 68.4002 28.2 68.1002 28.7C67.8002 29.2 67.3002 29.6 66.7002 30.1C66.1002 30.6 65.4002 30.9 64.7002 31.3C63.9002 31.6 63.1002 31.8 62.2002 31.8C59.2002 31.8 57.8002 29.4 57.8002 24.6V22L58.0002 9.79999C58.0002 9.29999 58.0002 8.8 57.9002 8.5C57.8002 8.2 57.6002 8 57.2002 8H56.2002C55.5002 8 55.2002 7.79999 55.2002 7.29999C55.2002 7.09999 55.3002 6.90001 55.5002 6.70001C55.7002 6.50001 56.0002 6.30001 56.3002 6.10001C56.6002 5.90001 57.0002 5.60001 57.5002 5.20001C57.9002 4.90001 58.4002 4.39999 58.9002 3.79999C59.8002 2.69999 60.4002 1.80001 60.9002 1.10001C61.3002 0.300006 61.7002 0 62.0002 0C62.3002 0 62.4002 0.0999939 62.5002 0.399994C62.6002 0.599994 62.6002 0.999994 62.6002 1.39999V4.79999H62.4002Z" fill="black"/>
<path d="M76 14.5C75.7 14.5 75.5 14.6 75.4 14.7C75.3 14.8 75.3 15.1 75.3 15.4V16.8C75.3 20.3 76.1 23.1 77.5 25.2C79 27.2 80.9 28.3 83.3 28.3C84.4 28.3 85.3 28.1 86.1 27.8C86.9 27.5 87.5 27.1 88 26.7C88.5 26.3 88.9 25.9 89.2 25.6C89.5 25.3 89.7 25.1 89.8 25.1C90.1 25.1 90.3 25.3 90.3 25.7C90.3 26.1 90.1 26.7 89.6 27.3C89.1 28 88.5 28.7 87.6 29.3C86.7 30 85.7 30.5 84.6 31C83.4 31.5 82.1 31.7 80.6 31.7C79 31.7 77.6 31.4 76.4 30.8C75.1 30.2 74 29.3 73.1 28.1C72.2 26.9 71.5 25.5 71 23.8C70.5 22.1 70.3 20.3 70.3 18.2C70.3 16.1 70.6 14.2 71.1 12.5C71.6 10.8 72.4 9.40001 73.4 8.20001C74.4 7.00001 75.5 6.1 76.9 5.5C78.2 4.9 79.7 4.5 81.3 4.5C82.7 4.5 83.9 4.70001 85.1 5.20001C86.2 5.70001 87.2 6.30001 88 7.10001C88.8 7.90001 89.4 8.79999 89.9 9.89999C90.3 11 90.6 12.1 90.6 13.3C90.6 13.8 90.4 14.1 90.1 14.3C89.8 14.4 89.3 14.5 88.6 14.5H76V14.5ZM84.2 12.1C85.1 11.7 85.5 10.8 85.5 9.60001C85.5 8.70001 85.1 7.8 84.3 7C83.5 6.2 82.5 5.79999 81.3 5.79999C80 5.79999 78.8 6.29999 77.8 7.29999C76.8 8.29999 76.2 9.60001 75.9 11.2L75.7 12.1V12.2C75.7 12.5 75.9 12.7 76.4 12.7H80.1C82 12.8 83.4 12.6 84.2 12.1Z" fill="black"/>
<path d="M89.5 20.2C121.3 20.2 147.1 45.9999 147.1 77.7999C147.1 109.6 121.3 135.4 89.5 135.4" stroke="black" stroke-width="2.6249"/>
<path d="M66.9 105.2H88.2C92.2 105.2 95.4 104.8 97.8 103.9C100.2 103 102.3 101.5 104.2 99.2999C104.7 98.6999 105.3 97.9999 106 96.9999C107.3 95.1999 108.5 94.1999 109.5 93.9999L111.4 93.7H111.6C111.9 93.7 112.1 93.7999 112.3 93.8999C112.5 93.9999 112.6 94.1999 112.6 94.3999C112.6 94.5999 111.8 95.9999 110.2 98.5999C108.6 101.2 107.2 103.8 106 106.4C105.9 106.6 105.7 107 105.6 107.4C104.3 110.3 103.1 112 102 112.7C101.5 113 100.8 113.3 99.9 113.5C99 113.7 97.7 113.8 95.9 113.8H92.7H67.2C63.8 113.8 60.5 113.9 57.4 114.2C56.9 114.2 56.6 114.3 56.5 114.3C55.8 114.3 55.3 114.2 55 114C54.6 113.8 54.5 113.4 54.5 113C54.5 111.3 56.1 108.6 59.2 104.7C62.3 100.8 66.3 97.0999 71 93.2999C75.2 90.0999 81.4 85.9999 89.8 80.9999C93.5 78.7999 96.2 77.1999 98 76.0999C102.5 73.1999 105.8 70.1999 108 67.0999C110.2 63.9999 111.3 60.5999 111.3 57.0999C111.3 53.6999 110.2 50.8999 108.1 48.8999C106 46.8999 103.1 45.7999 99.5 45.7999C96.8 45.7999 94.4 46.2999 92.3 47.2999C90.2 48.2999 88.4 49.8999 86.7 52.0999C86.3 52.5999 85.8 53.1999 85.3 54.0999C84 55.9999 82.9 57 82 57.2L79.9 57.7999H79.7C79.5 57.7999 79.4 57.8 79.3 57.7C79.2 57.6 79.2 57.4999 79.2 57.3999C79.2 56.9999 79.8 55.7999 80.9 53.7999C82 51.7999 82.9 50.0999 83.7 48.5999C84.5 46.9999 85.2 45.1999 86 43.0999C86.7 40.9999 87.3 39.9 87.6 39.7L88.5 39.0999C88.7 38.9999 88.9 38.9999 89.1 38.8999C89.3 38.7999 89.4 38.7999 89.4 38.7999C89.4 38.7999 89.6 38.8999 89.9 38.9999C91.2 39.5999 92.5 39.8999 94 39.8999C95.1 39.8999 96.9 39.6999 99.4 39.2999C101.8 38.8999 103.7 38.7 104.9 38.7C110.1 38.7 114.2 40.2999 117.4 43.4999C120.6 46.6999 122.2 50.7999 122.2 55.8999C122.2 58.0999 121.9 60.2 121.2 62.2C120.6 64.2 119.6 66.1999 118.3 67.9999C114.6 73.4999 105.3 80.1999 90.4 88.2999C88.2 89.4999 86.5 90.3999 85.3 91.0999C81 93.4999 77.3 95.9999 74.2 98.4999C70.7 100.5 68.4 102.9 66.9 105.2Z" fill="black"/>
<path d="M13.8 5.29999C14.7 5.79999 15.1 6.5 15.1 7.5C15.1 8.8 15.0001 9.79999 14.9001 10.4C14.8001 11 14.5001 11.3 14.2001 11.3C13.8001 11.3 13.5 11 13.5 10.5C13.4 10 13.2001 9.3 12.7001 8.5C11.8001 6.9 10.5 6.10001 9.00005 6.10001C7.90005 6.10001 7.00005 6.4 6.40005 7C5.70005 7.6 5.40005 8.39999 5.40005 9.39999C5.40005 9.99999 5.50005 10.6 5.80005 11C6.10005 11.4 6.40005 11.8 6.90005 12.2C7.40005 12.6 8.00005 12.9 8.70005 13.3C9.40005 13.7 10.2 14.1 11 14.5C12.8 15.5 14.2 16.6 15.1 17.8C16 19 16.4001 20.5 16.4001 22.4C16.4001 23.8 16.2 25.1 15.8 26.2C15.4 27.3 14.8 28.3 14 29C13.2 29.8 12.3001 30.4 11.2001 30.8C10.1001 31.2 9.00005 31.4 7.70005 31.4C6.40005 31.4 5.30005 31.3 4.30005 31C3.30005 30.7 2.50005 30.4 2.00005 30.1C1.70005 29.9 1.50005 29.7 1.40005 29.4C1.30005 29.1 1.30005 28.7 1.30005 28.2V26.8C1.30005 25.3 1.30005 24.1 1.40005 23.4C1.50005 22.7 1.70005 22.4 2.10005 22.4C2.40005 22.4 2.60005 22.5 2.70005 22.7C2.80005 22.9 2.90005 23.2 3.00005 23.5C3.10005 23.9 3.20005 24.3 3.30005 24.8C3.40005 25.3 3.60005 25.9 3.90005 26.5C5.00005 28.8 6.50005 29.9 8.40005 29.9C9.60005 29.9 10.6001 29.5 11.4001 28.7C12.2001 27.9 12.6 26.8 12.6 25.4C12.6 24.7 12.5001 24.1 12.2001 23.5C12.0001 23 11.6 22.5 11.1 22C10.6 21.6 10.1001 21.2 9.40005 20.8C8.70005 20.4 8.00005 20 7.10005 19.5C6.20005 19 5.30005 18.5 4.60005 18.1C3.90005 17.6 3.30005 17.1 2.80005 16.6C2.30005 16.1 1.90005 15.4 1.70005 14.7C1.50005 14 1.30005 13.2 1.30005 12.2C1.30005 9.90001 2.00005 8.00001 3.50005 6.60001C5.00005 5.20001 6.80005 4.5 9.10005 4.5C11.3 4.6 12.9 4.79999 13.8 5.29999Z" fill="black"/>
<path d="M26.1001 4.89993C26.1001 5.39993 26.3001 5.59995 26.8001 5.59995H31.0001C31.3001 5.59995 31.5001 5.59995 31.6001 5.69995C31.7001 5.79995 31.7001 5.89995 31.7001 6.19995V7.29993C31.7001 7.59993 31.7001 7.79993 31.6001 7.89993C31.5001 7.99993 31.3001 8.09995 31.0001 8.09995H26.7001C26.2001 8.09995 26.0001 8.29993 26.0001 8.79993V23.0999C26.0001 24.8999 26.2001 26.1999 26.5001 26.9999C26.8001 27.7999 27.4001 28.2 28.3001 28.2C28.7001 28.2 29.1001 28.0999 29.4001 27.9999C29.7001 27.8999 30.0001 27.6999 30.3001 27.4999C30.6001 27.2999 30.8001 27.0999 31.0001 26.9999C31.2001 26.7999 31.4001 26.7999 31.6001 26.7999C32.0001 26.7999 32.2001 27.0999 32.2001 27.5999C32.2001 27.8999 32.0001 28.2 31.7001 28.7C31.4001 29.2 30.9001 29.5999 30.3001 30.0999C29.7001 30.5999 29.0001 30.8999 28.3001 31.2999C27.5001 31.5999 26.7001 31.7999 25.9001 31.7999C23.0001 31.7999 21.5001 29.3999 21.5001 24.5999V21.9999L21.7001 9.89993C21.7001 9.39993 21.7001 8.89995 21.6001 8.59995C21.5001 8.29995 21.3001 8.09995 20.9001 8.09995H19.9001C19.2001 8.09995 18.9001 7.89993 18.9001 7.39993C18.9001 7.19993 19.0001 6.99993 19.2001 6.79993C19.4001 6.59993 19.7001 6.39995 20.0001 6.19995C20.3001 5.99995 20.7001 5.69993 21.2001 5.39993C21.6001 5.09993 22.1001 4.59994 22.6001 3.99994C23.5001 2.89994 24.1001 1.99993 24.6001 1.29993C25.0001 0.499927 25.4001 0.199951 25.7001 0.199951C26.0001 0.199951 26.1001 0.299945 26.2001 0.599945C26.3001 0.799945 26.3001 1.19995 26.3001 1.59995V4.89993H26.1001Z" fill="black"/>
<path d="M50 24.0999C50 25.2999 50.0999 26.1999 50.1999 26.7999C50.3999 27.3999 50.7 27.6999 51.4 27.6999C51.8 27.6999 52.2 27.4999 52.5 27.0999C52.8 26.6999 53.2 26.4999 53.5 26.4999C54 26.4999 54.1999 26.7999 54.1999 27.2999C54.1999 27.5999 53.9999 27.9999 53.6999 28.3999C53.3999 28.7999 53 29.2999 52.5 29.6999C52 30.0999 51.5 30.4999 51 30.7999C50.5 31.0999 50 31.2999 49.5 31.2999C48.5 31.2999 47.6999 30.9999 47.0999 30.2999C46.4999 29.6999 45.9 28.6999 45.5 27.3999H45.1999L44 28.3999C43 29.1999 42.0999 29.8999 41.1999 30.4999C40.2999 31.0999 39.3999 31.3999 38.2999 31.3999C37.0999 31.3999 36.1 30.9999 35.4 30.1999C34.7 29.3999 34.2999 28.2999 34.2999 26.7999C34.2999 25.5999 34.5 24.4999 34.9 23.4999C35.3 22.5999 35.9 21.6999 36.7 20.8999C37.5 20.0999 38.3999 19.3999 39.5999 18.6999C40.6999 17.9999 42 17.2999 43.3 16.6999L44.6999 15.9999C44.9999 15.7999 45.1999 15.6999 45.1999 15.4999C45.2999 15.2999 45.3 14.9999 45.3 14.5999V10.5999C45.3 8.99991 45.2 7.89992 44.9 7.19992C44.7 6.49992 43.9999 6.09991 43.0999 6.09991C42.0999 6.09991 41.3 6.39991 40.8 7.09991C40.2 7.79991 39.7 8.6999 39.2 9.8999C38.8 10.7999 38.2999 11.5999 37.7999 12.2999C37.2999 12.9999 36.4999 13.2999 35.2999 13.2999C34.9999 13.2999 34.7 13.1999 34.5 12.9999C34.3 12.7999 34.2 12.5999 34.2 12.2999C34.2 11.4999 34.5 10.5999 35 9.69992C35.5 8.79992 36.2 7.89991 37.2 7.09991C38.1 6.29991 39.2 5.69992 40.5 5.19992C41.8 4.69992 43.0999 4.3999 44.5999 4.3999C45.7999 4.3999 46.8 4.4999 47.5 4.7999C48.2 5.0999 48.7999 5.49991 49.1999 5.99991C49.5999 6.49991 49.8 7.19991 49.9 7.99991C50 8.99991 50 9.99991 50 10.9999V24.0999ZM45 17.6999C44.9 17.6999 44.7 17.7999 44.4 17.8999L42.5 18.7999C40.3 19.8999 39.2 21.7999 39.2 24.3999C39.2 25.4999 39.3999 26.2999 39.7999 26.8999C40.1999 27.4999 40.7 27.6999 41.3 27.6999C41.8 27.6999 42.1999 27.5999 42.6999 27.2999C43.1999 27.0999 43.6 26.6999 43.9 26.2999C44.2 25.8999 44.6 25.2999 44.8 24.6999C45 24.0999 45.1999 23.3999 45.1999 22.6999V18.1999C45.2999 17.8999 45.2 17.6999 45 17.6999Z" fill="black"/>
<path d="M62.3001 4.89993C62.3001 5.39993 62.5001 5.59995 63.0001 5.59995H67.2001C67.5001 5.59995 67.7001 5.59995 67.8001 5.69995C67.9001 5.79995 67.9001 5.89995 67.9001 6.19995V7.29993C67.9001 7.59993 67.9001 7.79993 67.8001 7.89993C67.7001 7.99993 67.5001 8.09995 67.2001 8.09995H62.9001C62.4001 8.09995 62.2001 8.29993 62.2001 8.79993V23.0999C62.2001 24.8999 62.4001 26.1999 62.7001 26.9999C63.0001 27.7999 63.6001 28.2 64.5001 28.2C64.9001 28.2 65.3001 28.0999 65.6001 27.9999C65.9001 27.8999 66.2001 27.6999 66.5001 27.4999C66.8001 27.2999 67.0001 27.0999 67.2001 26.9999C67.4001 26.7999 67.6001 26.7999 67.8001 26.7999C68.2001 26.7999 68.4001 27.0999 68.4001 27.5999C68.4001 27.8999 68.2001 28.2 67.9001 28.7C67.6001 29.2 67.1001 29.5999 66.5001 30.0999C65.9001 30.5999 65.2001 30.8999 64.5001 31.2999C63.7001 31.5999 62.9001 31.7999 62.1001 31.7999C59.2001 31.7999 57.7001 29.3999 57.7001 24.5999V21.9999L57.9001 9.89993C57.9001 9.39993 57.9001 8.89995 57.8001 8.59995C57.7001 8.29995 57.5001 8.09995 57.1001 8.09995H56.1001C55.4001 8.09995 55.1001 7.89993 55.1001 7.39993C55.1001 7.19993 55.2001 6.99993 55.4001 6.79993C55.6001 6.59993 55.9001 6.39995 56.2001 6.19995C56.5001 5.99995 56.9001 5.69993 57.4001 5.39993C57.8001 5.09993 58.3001 4.59994 58.8001 3.99994C59.7001 2.89994 60.3001 1.99993 60.8001 1.29993C61.2001 0.499927 61.6001 0.199951 61.9001 0.199951C62.2001 0.199951 62.3001 0.299945 62.4001 0.599945C62.5001 0.799945 62.5001 1.19995 62.5001 1.59995V4.89993H62.3001Z" fill="black"/>
<path d="M75.7 14.5C75.4 14.5 75.2 14.6 75.1 14.7C75 14.8 75 15.1 75 15.4V16.8C75 20.3 75.7 23.1 77.2 25.1C78.7 27.1 80.6 28.1 83 28.1C84.1 28.1 85 27.9 85.7 27.6C86.5 27.3 87.1 26.9 87.6 26.5C88.1 26.1 88.5 25.7 88.8 25.4C89.1 25.1 89.3 24.9 89.4 24.9C89.7 24.9 89.9 25.1 89.9 25.5C89.9 25.9 89.7 26.5 89.2 27.1C88.7 27.8 88.1 28.4 87.3 29.1C86.5 29.8 85.4 30.3 84.3 30.8C83.1 31.3 81.8 31.5 80.4 31.5C78.9 31.5 77.5 31.2 76.2 30.6C74.9 30 73.9 29.1 73 27.9C72.1 26.7 71.4 25.3 70.9 23.7C70.4 22 70.2 20.2 70.2 18.1C70.2 16 70.5 14.2 71 12.5C71.5 10.8 72.3 9.40001 73.3 8.20001C74.3 7.00001 75.4 6.1 76.8 5.5C78.2 4.9 79.6 4.5 81.2 4.5C82.6 4.5 83.8 4.70001 84.9 5.20001C86 5.70001 87 6.30001 87.8 7.10001C88.6 7.90001 89.2 8.79999 89.6 9.89999C90 11 90.2 12.1 90.2 13.3C90.2 13.8 90 14.1 89.7 14.3C89.4 14.4 88.9 14.5 88.2 14.5H75.7V14.5ZM83.9 12.1C84.7 11.7 85.2 10.9 85.2 9.60001C85.2 8.70001 84.8 7.8 84 7C83.2 6.2 82.2 5.79999 81 5.79999C79.7 5.79999 78.5 6.29999 77.6 7.29999C76.6 8.29999 76 9.60001 75.7 11.1L75.5 12V12.1C75.5 12.4 75.7 12.6 76.2 12.6H79.9C81.7 12.8 83.1 12.6 83.9 12.1Z" fill="black"/>
</svg>
