<svg width="562" height="155" viewBox="0 0 562 155" fill="none" xmlns="http://www.w3.org/2000/svg">
<path d="M25.3693 21.7686C25.9412 22.0818 26.2531 22.6038 26.2531 23.2825C26.2531 24.1699 26.2011 24.8486 26.1491 25.2662C26.0451 25.6838 25.8892 25.8926 25.6292 25.8926C25.3693 25.8926 25.1614 25.736 25.1094 25.3706C25.0574 25.0052 24.9014 24.5353 24.5895 24.0133C23.9657 22.917 23.0819 22.3428 22.0422 22.3428C21.3143 22.3428 20.6905 22.5516 20.2746 22.9692C19.8067 23.3869 19.5988 23.9611 19.5988 24.5876C19.5988 25.0052 19.7027 25.3706 19.8587 25.6838C20.0147 25.997 20.2746 26.2581 20.6385 26.5191C20.9504 26.7801 21.3663 27.0411 21.8342 27.2499C22.3021 27.5109 22.822 27.772 23.4458 28.0852C24.6935 28.7638 25.6292 29.4947 26.2011 30.3299C26.773 31.1652 27.0849 32.2092 27.0849 33.4621C27.0849 34.454 26.9289 35.2892 26.669 36.0723C26.3571 36.8553 25.9412 37.4818 25.4213 38.0038C24.9014 38.5258 24.2256 38.9435 23.4978 39.2045C22.77 39.4655 21.9902 39.6221 21.1064 39.6221C20.2226 39.6221 19.4428 39.5177 18.767 39.3089C18.0911 39.1001 17.5193 38.8913 17.2074 38.6825C16.9994 38.578 16.8435 38.3692 16.7915 38.1604C16.7395 37.9516 16.6875 37.6906 16.6875 37.3252V36.3333C16.6875 35.2892 16.6875 34.5062 16.7915 34.0364C16.8435 33.5665 16.9994 33.3055 17.3113 33.3055C17.4673 33.3055 17.6233 33.3577 17.6753 33.5143C17.7792 33.6187 17.8312 33.8275 17.8832 34.0886C17.9352 34.3496 18.0392 34.6106 18.0911 34.976C18.1951 35.3414 18.3511 35.7069 18.507 36.1767C19.2349 37.7428 20.2746 38.5258 21.5743 38.5258C22.4061 38.5258 23.0819 38.2648 23.6018 37.6906C24.1216 37.1164 24.3816 36.3855 24.3816 35.3936C24.3816 34.9238 24.2776 34.454 24.1216 34.0886C23.9657 33.7231 23.7057 33.3577 23.3938 33.0967C23.0819 32.7835 22.666 32.5225 22.1981 32.2614C21.7302 32.0004 21.2104 31.6872 20.6385 31.374C20.0147 31.0608 19.4428 30.6953 18.9229 30.3821C18.4551 30.0689 18.0392 29.7035 17.6753 29.3381C17.3633 28.9726 17.1034 28.555 16.9474 28.0852C16.7915 27.6153 16.6875 27.0411 16.6875 26.4147C16.6875 24.7964 17.2074 23.5435 18.1951 22.6038C19.1829 21.6642 20.4306 21.1943 21.9902 21.1943C23.6537 21.2987 24.7975 21.4554 25.3693 21.7686Z" fill="white"/>
<path d="M33.7395 21.4553C33.7395 21.7685 33.8955 21.9773 34.2594 21.9773H37.1707C37.3786 21.9773 37.5346 22.0295 37.5866 22.0817C37.6386 22.1339 37.6386 22.2383 37.6386 22.3949V23.178C37.6386 23.3868 37.6386 23.5434 37.5866 23.5956C37.5346 23.7 37.3786 23.7 37.1707 23.7H34.2594C33.9475 23.7 33.7915 23.8566 33.7915 24.222V33.9319C33.7915 35.1325 33.8955 36.02 34.1034 36.5942C34.3114 37.1685 34.7273 37.4295 35.2991 37.4295C35.5591 37.4295 35.819 37.3773 36.027 37.2729C36.2349 37.1685 36.4429 37.0641 36.6508 36.9075C36.8068 36.7508 37.0147 36.6464 37.1187 36.542C37.2746 36.4376 37.3786 36.3854 37.5346 36.3854C37.7945 36.3854 37.8985 36.542 37.8985 36.9075C37.8985 37.0641 37.7945 37.3251 37.5346 37.6383C37.3266 37.9515 36.9627 38.2647 36.5988 38.578C36.1829 38.8912 35.715 39.1522 35.1952 39.361C34.6753 39.5698 34.1034 39.6742 33.5316 39.6742C31.5041 39.6742 30.5163 38.0559 30.5163 34.7671V33.1488L30.6723 24.8485C30.6723 24.4831 30.6723 24.222 30.6203 23.961C30.5683 23.7522 30.4124 23.6478 30.1524 23.6478H29.4766C29.0087 23.6478 28.8008 23.4912 28.8008 23.1258C28.8008 22.9692 28.8528 22.8126 29.0087 22.7082C29.1127 22.6037 29.3206 22.4471 29.5286 22.2905C29.7365 22.1339 30.0485 21.9251 30.3084 21.7163C30.6203 21.5075 30.9322 21.1943 31.2962 20.7766C31.92 20.0458 32.3359 19.4193 32.6478 18.8973C32.9597 18.3753 33.1677 18.1143 33.4276 18.1143C33.5836 18.1143 33.6876 18.2187 33.7395 18.3753C33.7915 18.5319 33.7915 18.7929 33.7915 19.0539V21.4553H33.7395Z" fill="white"/>
<path d="M50.0616 34.6632C50.0616 35.4985 50.1136 36.1249 50.2176 36.5425C50.3215 36.9601 50.5815 37.169 51.0494 37.169C51.3093 37.169 51.5692 37.0646 51.8292 36.8035C52.0371 36.5425 52.2971 36.4381 52.505 36.4381C52.8169 36.4381 52.9729 36.6469 52.9729 37.0124C52.9729 37.2212 52.8689 37.4822 52.609 37.7432C52.401 38.0564 52.0891 38.3174 51.7772 38.6307C51.4653 38.8917 51.1014 39.1527 50.7374 39.3615C50.3735 39.5703 50.0096 39.6747 49.6977 39.6747C49.0219 39.6747 48.45 39.4659 48.0341 38.9961C47.6182 38.5784 47.2543 37.8998 46.9424 37.0124H46.7864L45.9546 37.691C45.2788 38.2652 44.655 38.7351 44.0831 39.1527C43.5113 39.5703 42.8354 39.7269 42.1076 39.7269C41.2758 39.7269 40.6 39.4659 40.1321 38.8917C39.6122 38.3174 39.4043 37.5866 39.4043 36.5947C39.4043 35.7595 39.5603 34.9764 39.8202 34.35C40.0801 33.7235 40.496 33.0971 41.0679 32.5751C41.5877 32.053 42.2636 31.531 43.0434 31.0612C43.8232 30.5913 44.655 30.1215 45.5907 29.6517L46.5785 29.1296C46.7864 29.0252 46.8904 28.9208 46.9424 28.8164C46.9944 28.712 46.9944 28.5032 46.9944 28.19V25.4232C46.9944 24.3269 46.8904 23.5439 46.7345 23.0741C46.5785 22.6042 46.1626 22.3432 45.4868 22.3432C44.8109 22.3432 44.2911 22.552 43.9272 23.0219C43.5632 23.4917 43.1474 24.1181 42.7834 24.9534C42.5235 25.5798 42.1596 26.1541 41.8477 26.5717C41.4838 27.0415 40.9639 27.2503 40.1841 27.2503C39.9762 27.2503 39.8202 27.1981 39.6642 27.0415C39.5083 26.9371 39.4563 26.7283 39.4563 26.5195C39.4563 25.9452 39.6122 25.371 39.9762 24.6924C40.3401 24.0659 40.8079 23.4395 41.4318 22.9174C42.0556 22.3954 42.7834 21.9256 43.6672 21.6124C44.551 21.2469 45.4868 21.0903 46.4745 21.0903C47.3063 21.0903 47.9821 21.1947 48.45 21.4036C48.9699 21.6124 49.3338 21.8734 49.5937 22.2388C49.8537 22.6042 50.0096 23.0741 50.1136 23.6483C50.2176 24.2225 50.2176 24.849 50.2176 25.5798V34.6632H50.0616ZM46.6825 30.2781C46.5785 30.2781 46.4745 30.3303 46.3186 30.4347L45.0709 31.0612C43.5632 31.8442 42.7834 33.0971 42.7834 34.9242C42.7834 35.6551 42.9394 36.2293 43.1993 36.6469C43.4593 37.0123 43.8232 37.2212 44.2391 37.2212C44.551 37.2212 44.8629 37.1168 45.1748 36.9601C45.4868 36.8035 45.7467 36.5425 46.0066 36.2815C46.2666 35.9683 46.4745 35.6551 46.6305 35.2374C46.7864 34.8198 46.8904 34.35 46.8904 33.8279V30.8002C46.8904 30.4347 46.8384 30.2781 46.6825 30.2781Z" fill="white"/>
<path d="M58.4331 21.4553C58.4331 21.7685 58.5891 21.9773 58.953 21.9773H61.8643C62.0722 21.9773 62.2282 22.0295 62.2801 22.0817C62.3321 22.1339 62.3841 22.2383 62.3841 22.3949V23.178C62.3841 23.3868 62.3321 23.5434 62.2801 23.5956C62.2282 23.7 62.0722 23.7 61.8643 23.7H58.953C58.6411 23.7 58.4851 23.8566 58.4851 24.222V33.9319C58.4851 35.1325 58.5891 36.02 58.797 36.5942C59.005 37.1685 59.4209 37.4295 59.9927 37.4295C60.2527 37.4295 60.5126 37.3773 60.7205 37.2729C60.9285 37.1685 61.1364 37.0641 61.2924 36.9075C61.4484 36.7508 61.6563 36.6464 61.7603 36.542C61.9162 36.4376 62.0202 36.3854 62.1762 36.3854C62.4361 36.3854 62.5401 36.542 62.5401 36.9075C62.5401 37.0641 62.4361 37.3251 62.1762 37.6383C61.9682 37.9515 61.6563 38.2647 61.2404 38.578C60.8245 38.8912 60.3566 39.1522 59.8368 39.361C59.3169 39.5698 58.745 39.6742 58.1732 39.6742C56.1457 39.6742 55.1579 38.0559 55.1579 34.7671V33.1488L55.3139 24.8485C55.3139 24.4831 55.3139 24.222 55.2619 23.961C55.2099 23.7522 55.054 23.6478 54.794 23.6478H54.1182C53.6503 23.6478 53.4424 23.4912 53.4424 23.1258C53.4424 22.9692 53.4944 22.8126 53.6503 22.7082C53.7543 22.6037 53.9622 22.4471 54.1702 22.2905C54.3781 22.1339 54.6381 21.9251 54.95 21.7163C55.2619 21.5075 55.5738 21.1943 55.9377 20.7766C56.5616 20.0458 56.9775 19.4193 57.2894 18.8973C57.6013 18.3753 57.8093 18.1143 58.0692 18.1143C58.2252 18.1143 58.3291 18.2187 58.3811 18.3753C58.4331 18.5319 58.4331 18.7929 58.4331 19.0539V21.4553Z" fill="white"/>
<path d="M67.6363 28.0852C67.4284 28.0852 67.3244 28.1374 67.2724 28.1896C67.2204 28.2418 67.1684 28.4506 67.1684 28.7116V29.6513C67.1684 32.0526 67.6883 33.9319 68.6761 35.3414C69.7158 36.7509 71.0155 37.4296 72.6271 37.4296C73.3549 37.4296 73.9787 37.3252 74.4986 37.0641C75.0185 36.8553 75.4863 36.5943 75.7983 36.2811C76.1622 36.0201 76.4221 35.7591 76.63 35.498C76.838 35.2892 76.942 35.1326 77.0459 35.1326C77.2539 35.1326 77.3579 35.2892 77.3579 35.5503C77.3579 35.8113 77.2019 36.2289 76.89 36.6465C76.5781 37.1164 76.1622 37.5862 75.5383 38.0038C74.9665 38.4736 74.2906 38.8391 73.4588 39.2045C72.679 39.5177 71.7433 39.7265 70.7555 39.7265C69.7158 39.7265 68.728 39.5177 67.8963 39.1001C67.0125 38.6825 66.2847 38.056 65.6608 37.273C65.037 36.4899 64.5691 35.4981 64.2572 34.3496C63.9453 33.2011 63.7373 31.9482 63.7373 30.5387C63.7373 29.1292 63.9453 27.8242 64.3092 26.6757C64.6731 25.5272 65.1929 24.5354 65.8688 23.7523C66.5446 22.9693 67.3244 22.3428 68.2602 21.873C69.1959 21.4554 70.1837 21.1943 71.2234 21.1943C72.1592 21.1943 72.991 21.3509 73.7708 21.6642C74.5506 21.9774 75.1744 22.395 75.7463 22.9693C76.2661 23.4913 76.682 24.1177 76.994 24.8486C77.3059 25.5794 77.4098 26.3625 77.4098 27.1455C77.4098 27.4587 77.3059 27.7198 77.0979 27.8242C76.89 27.9286 76.5781 27.9808 76.1102 27.9808H67.6363V28.0852ZM73.1989 26.4669C73.7708 26.2059 74.0827 25.6316 74.0827 24.7442C74.0827 24.1177 73.8228 23.4913 73.3029 22.9693C72.783 22.4472 72.1072 22.134 71.2754 22.134C70.3916 22.134 69.6118 22.4994 68.936 23.1781C68.2602 23.8567 67.8443 24.7442 67.6363 25.7882L67.5323 26.4147V26.4669C67.5323 26.6757 67.6883 26.8323 68.0002 26.8323H70.4956C71.6913 26.8845 72.6271 26.7279 73.1989 26.4669Z" fill="white"/>
<path d="M91.1839 43.9541H91.4438C91.5998 43.9541 91.7038 44.0063 91.8077 44.1107C91.9117 44.2151 91.9637 44.3195 91.9637 44.5283C91.9637 44.685 91.2359 46.3555 89.8322 49.5399C88.4286 52.7243 87.1289 55.9609 85.9332 59.3541L77.6153 83.1588C77.0434 84.7771 76.6275 86.3432 76.2636 87.7527C75.8997 89.2144 75.7438 90.2063 75.7438 90.7283C75.7438 91.6157 75.9517 92.2944 76.3676 92.7642C76.7835 93.234 77.5113 93.5995 78.4991 93.8605C78.759 93.9127 79.1229 93.9649 79.5908 94.0693C80.6305 94.2259 81.0984 94.4869 81.0984 94.8001C81.0984 94.8524 81.0984 94.9568 81.0464 95.009C81.0464 95.0612 80.9945 95.1134 80.9425 95.1656L79.8507 96.053C79.6948 96.2096 79.4348 96.314 79.0709 96.4184C78.707 96.4706 78.3431 96.5229 77.9272 96.5229C77.6673 96.5229 76.5756 96.4184 74.756 96.2618C72.9365 96.1052 71.2729 96.0008 69.7653 96.0008C68.3096 96.0008 66.6461 96.1052 64.7225 96.314C62.851 96.5229 61.7073 96.6273 61.3434 96.6273C60.9275 96.6273 60.6156 96.5751 60.4076 96.4707C60.1997 96.3662 60.0957 96.2096 60.0957 96.0008C60.0957 95.8964 60.0957 95.792 60.1477 95.6876C60.1997 95.6354 60.1997 95.5832 60.2517 95.531L61.1874 94.4869C61.3954 94.2259 61.9672 94.0171 62.903 93.8605C63.8388 93.7039 64.4626 93.4951 64.8785 93.3385C65.9182 92.8686 66.854 92.1378 67.6338 91.1459C68.4656 90.1541 69.1414 88.7968 69.7133 87.1785L78.759 62.0687C79.0709 61.129 79.3309 60.2937 79.4868 59.4585C79.6428 58.6232 79.7468 57.8924 79.7468 57.266C79.7468 56.2741 79.5388 55.5954 79.1229 55.0734C78.707 54.6036 78.0832 54.3426 77.2514 54.3426C76.2117 54.3426 75.0679 54.447 73.8722 54.708C73.5603 54.7602 73.3524 54.8124 73.2484 54.8124C73.0404 54.8124 72.8845 54.7602 72.7805 54.6558C72.6765 54.5514 72.6246 54.447 72.6246 54.2904C72.6246 54.2382 72.6246 54.186 72.6246 54.1337C72.6246 54.0815 72.6765 54.0293 72.6765 53.9771L73.3004 52.7765C73.6643 52.0978 74.86 51.5758 76.7835 51.2104C78.759 50.8449 80.3706 50.3751 81.6703 49.9053C83.6458 49.1222 85.4653 48.026 87.1809 46.5121C88.8965 44.9982 89.9882 44.2151 90.4561 44.1107L91.1839 43.9541Z" fill="white"/>
<path d="M77.0439 31.165C98.7745 31.165 116.346 48.862 116.346 70.6308" stroke="white" stroke-width="2.29533"/>
<path d="M257.438 70.9447L254.423 74.7555C254.163 75.121 253.851 75.382 253.487 75.643C253.123 75.904 252.863 75.9562 252.551 75.9562C252.343 75.9562 252.187 75.9562 251.98 75.904C251.772 75.8518 251.616 75.7996 251.46 75.7474C247.249 82.064 244.129 87.963 242.102 93.3921C240.075 98.8213 239.087 104.042 239.087 109.053C239.087 112.081 239.607 114.43 240.594 116.153C241.582 117.875 242.934 118.711 244.701 118.711C245.741 118.711 246.885 118.345 248.132 117.667C249.38 116.988 250.16 116.623 250.42 116.623C250.68 116.623 250.836 116.675 250.992 116.831C251.148 116.988 251.2 117.145 251.2 117.353V117.614V117.928L250.524 119.755C250.264 120.642 249.484 121.425 248.288 122.208C248.08 122.313 247.925 122.417 247.821 122.522C247.093 123.044 246.053 123.774 244.805 124.766C242.05 126.959 239.971 128.055 238.567 128.055C235.916 128.055 233.784 126.593 232.121 123.67C230.457 120.747 229.677 116.884 229.677 112.133C229.677 111.454 229.729 110.671 229.781 109.784C229.833 108.897 229.937 107.957 230.041 106.965C227.598 109.941 225.258 112.916 223.075 115.892C220.891 118.867 218.864 121.791 217.044 124.714C215.901 125.967 214.601 126.854 213.197 127.481C211.794 128.107 210.182 128.421 208.466 128.421C203.84 128.421 200.097 126.698 197.289 123.252C194.482 119.807 193.026 115.213 193.026 109.471C193.026 104.72 194.066 99.9175 196.094 95.0626C198.173 90.1555 201.136 85.5094 204.983 81.0721C209.922 75.4342 215.329 71.1013 221.255 68.1257C227.13 65.1501 233.16 63.6362 239.295 63.6362C244.181 63.6362 248.548 64.3149 252.447 65.6722C256.346 67.0294 258.322 68.3867 258.322 69.6396C258.322 69.9528 258.166 70.3183 257.802 70.7359C257.646 70.7881 257.542 70.8925 257.438 70.9447ZM243.974 71.5711C242.258 70.8403 240.542 70.3183 238.879 69.9528C237.215 69.5874 235.708 69.3786 234.2 69.3786C230.457 69.3786 226.818 70.4749 223.231 72.6674C219.644 74.8599 216.317 78.0966 213.197 82.3772C210.286 86.2403 207.999 90.4165 206.387 94.9582C204.775 99.4999 203.944 103.885 203.944 108.113C203.944 111.611 204.619 114.378 205.919 116.466C207.219 118.554 209.038 119.546 211.222 119.546C215.641 119.546 223.023 109.993 233.368 90.8342C237.787 82.7426 241.27 76.3216 243.974 71.5711Z" fill="white"/>
<path d="M230.612 106.496C228.481 109.106 226.401 111.977 224.218 115.057C222.087 118.137 219.903 121.478 217.72 125.08C216.68 126.176 215.536 127.011 214.288 127.534C213.041 128.056 211.637 128.317 210.026 128.317C205.555 128.317 201.968 126.698 199.316 123.514C196.665 120.329 195.365 115.997 195.365 110.515C195.365 104.042 196.977 97.6732 200.252 91.3566C203.475 85.04 208.154 79.1932 214.185 73.8163C217.928 70.5275 221.983 67.9695 226.401 66.1946C230.82 64.4197 235.239 63.5322 239.71 63.5322C244.025 63.5322 248.028 64.2109 251.667 65.516C255.306 66.821 257.074 68.0739 257.074 69.2224C257.074 69.5356 256.866 69.901 256.398 70.3709C256.294 70.4753 256.242 70.5275 256.242 70.5275L254.058 72.981C253.954 73.0854 253.851 73.1898 253.695 73.3465C253.071 74.0251 252.499 74.3905 251.979 74.3905C251.823 74.3905 251.719 74.3905 251.615 74.3383C251.511 74.2861 251.407 74.2861 251.199 74.2339C246.832 80.5505 243.557 86.5539 241.374 92.2441C239.19 97.9342 238.098 103.363 238.098 108.531C238.098 112.342 238.566 115.161 239.45 117.093C240.334 118.972 241.686 119.964 243.453 119.964C244.701 119.964 245.949 119.546 247.196 118.659C248.444 117.771 249.12 117.354 249.172 117.354C249.328 117.406 249.484 117.51 249.588 117.667C249.692 117.824 249.744 117.98 249.744 118.137C249.744 118.241 249.744 118.294 249.692 118.398C249.692 118.502 249.64 118.555 249.588 118.659L248.86 120.695C248.6 121.53 247.976 122.313 246.988 122.992C246.728 123.148 246.572 123.253 246.52 123.357C246.104 123.723 245.481 124.193 244.753 124.871C241.997 127.22 240.022 128.421 238.826 128.421C236.435 128.421 234.459 126.803 232.9 123.618C231.34 120.434 230.56 116.31 230.56 111.35C230.56 110.411 230.56 109.576 230.612 108.845C230.612 107.957 230.612 107.226 230.612 106.496ZM245.533 70.6319C243.609 69.8488 241.79 69.2224 240.126 68.857C238.41 68.4915 236.747 68.2827 235.187 68.2827C231.34 68.2827 227.545 69.4312 223.802 71.676C220.059 73.9729 216.576 77.2617 213.353 81.5946C210.337 85.6664 207.998 89.9993 206.386 94.5932C204.775 99.1871 203.943 103.677 203.943 108.114C203.943 111.925 204.671 115.005 206.075 117.302C207.478 119.599 209.35 120.747 211.637 120.747C214.029 120.747 216.68 119.181 219.591 115.997C222.502 112.812 225.518 108.27 228.637 102.372C229.573 100.492 231.028 97.6732 232.848 93.8624C237.891 83.5261 242.153 75.7478 245.533 70.6319Z" fill="white"/>
<path d="M140.416 118.189V127.429H127.575V36.9082H140.416V73.2417C144.835 66.6641 151.905 62.8011 160.743 62.8011C176.911 62.8011 189.076 75.0166 189.076 95.3759V95.5326C189.076 115.944 177.067 128.786 160.639 128.786C151.905 128.786 144.835 124.766 140.416 118.189ZM175.299 95.898V94.9583C175.299 81.3854 168.333 74.0248 157.52 74.0248C146.55 74.0248 139.74 82.8993 139.74 95.4803V96.5766C139.74 109.053 146.29 117.51 157.52 117.51C168.073 117.51 175.299 109.575 175.299 95.898Z" fill="white"/>
<path d="M278.547 127.428H265.342V37.0122H278.547V127.428Z" fill="white"/>
<path d="M289.723 110.776C289.723 96.5765 300.276 93.3399 314.312 90.2599C325.022 87.963 331.52 87.2843 332.872 83.8389V82.8992C332.872 77.6789 328.973 73.6593 319.355 73.6593C309.998 73.6593 304.955 77.9399 304.383 85.0396V85.8226H291.178C291.594 71.6233 302.823 63.0098 319.511 63.0098C335.679 63.0098 345.297 70.266 345.297 86.3447V117.614L345.453 127.429H332.768V117.928C328.505 125.445 320.603 129.047 311.505 129.047C298.041 129.047 289.723 121.634 289.723 110.776ZM332.872 101.953V94.1752C328.973 96.8375 322.318 97.9338 316.184 99.3955C308.958 101.275 303.083 103.572 303.083 110.254C303.083 115.474 306.93 118.972 313.897 118.972C323.15 118.972 331.832 114.273 332.872 101.953Z" fill="white"/>
<path d="M372.123 76.0599C375.45 67.603 381.896 62.8003 391.514 62.8003C405.135 62.8003 413.401 72.0403 413.401 88.9542V127.428H400.196V89.5806C400.196 79.662 396.037 74.4416 387.511 74.4416C377.738 74.4416 372.175 82.6376 372.175 97.0979V127.428H359.074V64.1054H372.175V76.0599H372.123Z" fill="white"/>
<path d="M423.277 95.6374C423.277 76.7398 436.118 63.0625 454.521 63.0625C469.338 63.0625 478.695 71.1018 482.594 83.474L470.066 87.3892C467.934 79.3499 463.411 74.234 454.314 74.234C443.344 74.234 436.534 82.952 436.534 95.5852V96.1072C436.534 108.584 442.928 117.458 453.898 117.458C464.035 117.458 468.454 112.238 470.585 103.624L483.166 107.54C479.007 120.434 469.546 128.578 454.158 128.578C435.338 128.473 423.277 114.953 423.277 95.6374Z" fill="white"/>
<path d="M488.989 96.1589C488.989 76.5826 501.934 63.0098 519.869 63.0098C538.429 63.0098 549.502 75.4864 549.502 95.4802V100.335H502.09C502.87 111.193 509.68 117.771 520.389 117.771C531.099 117.771 535.725 112.551 538.169 106.391L549.814 110.932C545.551 120.747 536.609 128.525 520.441 128.525C501.05 128.473 488.989 115.631 488.989 96.1589ZM501.83 90.4165H536.037C535.517 79.5582 529.487 73.7637 519.61 73.7637C510.096 73.7637 503.182 80.0803 501.83 90.4165Z" fill="white"/>
</svg>
