<svg width="420" height="452" viewBox="0 0 420 452" fill="none" xmlns="http://www.w3.org/2000/svg">
<rect x="0.878906" y="34.2266" width="418.801" height="417.743" rx="1.70145" fill="#F3F3F3"/>
<path d="M166.374 271.692C211.32 315.922 283.702 315.431 328.043 270.599C345.078 253.374 354.555 230.106 354.39 205.911C354.226 181.717 344.433 158.579 327.166 141.586C313.354 127.996 294.695 120.435 275.294 120.566C255.893 120.697 237.338 128.509 223.711 142.284C201.004 165.241 202.829 203.82 225.838 226.47" stroke="#231F20" stroke-width="0.769218" stroke-miterlimit="10" stroke-linecap="round"/>
<path d="M367.574 202.849C366.94 177.173 357.867 151.727 340.387 132.293" stroke="#231F20" stroke-width="0.288457" stroke-miterlimit="10" stroke-linecap="round"/>
<path d="M369.753 202.158L367.608 206.03L365.32 202.241L369.753 202.158Z" fill="#231F20"/>
<path d="M303.547 306.882C317.99 300.064 330.839 290.3 341.264 278.221" stroke="#231F20" stroke-width="0.288457" stroke-miterlimit="10" stroke-linecap="round"/>
<path d="M305.051 308.574L300.637 308.184L303.185 304.566L305.051 308.574Z" fill="#231F20"/>
<path d="M331.841 67.2227L146.7 345.32" stroke="#231F20" stroke-width="0.769218" stroke-miterlimit="10" stroke-linecap="round"/>
<path d="M328.963 64.609L328.308 65.5938L334.725 69.8448L335.38 68.8601L328.963 64.609Z" fill="#231F20"/>
<path d="M350.72 63.6113C353.327 67.6534 355.05 72.1991 355.775 76.951C356.5 81.7028 356.211 86.5538 354.927 91.1866C353.643 95.8194 351.393 100.13 348.324 103.835C345.255 107.541 341.436 110.558 337.117 112.691C332.798 114.823 328.077 116.021 323.262 116.208C318.447 116.395 313.646 115.565 309.175 113.774C304.703 111.983 300.661 109.27 297.313 105.813C293.965 102.357 291.386 98.2338 289.745 93.7144" stroke="#231F20" stroke-width="0.288457" stroke-miterlimit="10" stroke-dasharray="13.46 7.69"/>
<path d="M349.564 66.9285L350.222 67.0586L350.844 63.8373L354.015 64.6943L354.192 64.05L350.323 63.0098L349.564 66.9285Z" fill="#231F20"/>
<path d="M293.107 94.7985L292.811 95.3955L289.86 93.9474L288.633 96.9913L288.011 96.7372L289.51 93.0371L293.107 94.7985Z" fill="#231F20"/>
<path d="M277.308 226.369H274.938" stroke="#231F20" stroke-width="0.288457" stroke-miterlimit="10"/>
<path d="M270.321 226.369H180.263" stroke="#231F20" stroke-width="0.288457" stroke-miterlimit="10" stroke-dasharray="3 3"/>
<path d="M177.958 226.369H175.588" stroke="#231F20" stroke-width="0.288457" stroke-miterlimit="10"/>
<path d="M183.036 218.939L175.588 226.375H178.96" stroke="#231F20" stroke-width="0.288457" stroke-miterlimit="10"/>
<path d="M269.889 233.775L277.308 226.375H273.877" stroke="#231F20" stroke-width="0.288457" stroke-miterlimit="10"/>
<path d="M236.414 286.916H234.044" stroke="#231F20" stroke-width="0.288457" stroke-miterlimit="10"/>
<path d="M229.429 286.916H139.371" stroke="#231F20" stroke-width="0.288457" stroke-miterlimit="10" stroke-dasharray="3 3"/>
<path d="M137.065 286.916H134.694" stroke="#231F20" stroke-width="0.288457" stroke-miterlimit="10"/>
<path d="M142.143 279.482L134.694 286.918H138.06" stroke="#231F20" stroke-width="0.288457" stroke-miterlimit="10"/>
<path d="M228.996 294.316L236.415 286.916H232.984" stroke="#231F20" stroke-width="0.288457" stroke-miterlimit="10"/>
<path d="M225.731 229.06C227.224 229.06 228.433 227.854 228.433 226.365C228.433 224.877 227.224 223.67 225.731 223.67C224.239 223.67 223.029 224.877 223.029 226.365C223.029 227.854 224.239 229.06 225.731 229.06Z" fill="#231F20"/>
<path d="M261.102 298.881L146.191 375.182" stroke="#231F20" stroke-width="0.769218" stroke-miterlimit="10"/>
<path d="M144.816 370.783L140.882 378.704L149.729 378.142L144.816 370.783Z" fill="#231F20"/>
<path d="M238.577 352L104.373 413.501" stroke="#231F20" stroke-width="0.769218" stroke-miterlimit="10"/>
<path d="M103.705 408.941L98.5791 416.152L107.402 416.974L103.705 408.941Z" fill="#231F20"/>
<path d="M57.46 378.912L206.365 414.181" stroke="#231F20" stroke-width="0.769218" stroke-miterlimit="10"/>
<path d="M204.079 418.182L212.571 415.652L206.129 409.582L204.079 418.182Z" fill="#231F20"/>
<path d="M125.45 261.234V373.732" stroke="#231F20" stroke-width="0.769218" stroke-miterlimit="10"/>
<path d="M121.019 372.439L125.451 380.094L129.883 372.439H121.019Z" fill="#231F20"/>
<path d="M218.27 345.319C200.244 319.271 175.795 302.822 156.051 292.773" stroke="#231F20" stroke-width="0.288457" stroke-miterlimit="10" stroke-dasharray="7.69 3.85"/>
<path d="M219.728 343.535L220.084 347.939L216.084 346.047L219.728 343.535Z" fill="#231F20"/>
<path d="M157.633 291.104L153.207 291.334L155.619 295.04L157.633 291.104Z" fill="#231F20"/>
<path d="M243.081 417.909C242.06 402.124 238.54 386.599 232.652 371.912" stroke="#231F20" stroke-width="0.288457" stroke-miterlimit="10" stroke-dasharray="7.69 3.85"/>
<path d="M245.252 417.105L243.308 421.083L240.825 417.419L245.252 417.105Z" fill="#231F20"/>
<path d="M234.951 371.684L231.455 368.965L230.845 373.345L234.951 371.684Z" fill="#231F20"/>
<path d="M146.701 353.67C151.325 353.67 155.074 349.931 155.074 345.319C155.074 340.706 151.325 336.967 146.701 336.967C142.077 336.967 138.328 340.706 138.328 345.319C138.328 349.931 142.077 353.67 146.701 353.67Z" fill="#231F20"/>
<path d="M125.452 258.147C126.784 258.147 127.864 257.07 127.864 255.742C127.864 254.413 126.784 253.336 125.452 253.336C124.12 253.336 123.04 254.413 123.04 255.742C123.04 257.07 124.12 258.147 125.452 258.147Z" fill="#231F20"/>
<path d="M52.5895 380.163C53.9214 380.163 55.0012 379.086 55.0012 377.757C55.0012 376.429 53.9214 375.352 52.5895 375.352C51.2575 375.352 50.1777 376.429 50.1777 377.757C50.1777 379.086 51.2575 380.163 52.5895 380.163Z" fill="#231F20"/>
<path d="M266.007 298.028C267.339 298.028 268.419 296.951 268.419 295.622C268.419 294.294 267.339 293.217 266.007 293.217C264.675 293.217 263.596 294.294 263.596 295.622C263.596 296.951 264.675 298.028 266.007 298.028Z" fill="#231F20"/>
<path d="M244.225 351.815C245.557 351.815 246.637 350.738 246.637 349.41C246.637 348.081 245.557 347.004 244.225 347.004C242.893 347.004 241.813 348.081 241.813 349.41C241.813 350.738 242.893 351.815 244.225 351.815Z" fill="#231F20"/>
<path d="M0.936 8.432V17H2.076V13.076H6.012V12.116H2.076V9.392H6.564V8.432H0.936ZM7.09463 8.432V17H8.23463V8.432H7.09463ZM15.7801 15.932L16.0801 17H16.8001V12.488H13.0441V13.448H15.7801C15.7961 13.84 15.7441 14.208 15.6241 14.552C15.5041 14.888 15.3241 15.184 15.0841 15.44C14.8521 15.688 14.5641 15.884 14.2201 16.028C13.8761 16.172 13.4801 16.244 13.0321 16.244C12.5521 16.244 12.1281 16.152 11.7601 15.968C11.4001 15.776 11.0961 15.524 10.8481 15.212C10.6001 14.892 10.4121 14.528 10.2841 14.12C10.1561 13.704 10.0921 13.272 10.0921 12.824C10.0921 12.368 10.1481 11.924 10.2601 11.492C10.3721 11.052 10.5441 10.664 10.7761 10.328C11.0161 9.984 11.3201 9.708 11.6881 9.5C12.0641 9.292 12.5121 9.188 13.0321 9.188C13.3521 9.188 13.6521 9.228 13.9321 9.308C14.2201 9.38 14.4761 9.492 14.7001 9.644C14.9241 9.796 15.1121 9.992 15.2641 10.232C15.4161 10.464 15.5201 10.744 15.5761 11.072H16.7161C16.6361 10.568 16.4841 10.14 16.2601 9.788C16.0441 9.428 15.7721 9.132 15.4441 8.9C15.1241 8.668 14.7561 8.5 14.3401 8.396C13.9321 8.284 13.4961 8.228 13.0321 8.228C12.3521 8.228 11.7561 8.356 11.2441 8.612C10.7401 8.86 10.3161 9.196 9.97209 9.62C9.63609 10.044 9.38009 10.54 9.20409 11.108C9.03609 11.668 8.95209 12.26 8.95209 12.884C8.95209 13.444 9.04409 13.984 9.22809 14.504C9.41209 15.024 9.68009 15.484 10.0321 15.884C10.3841 16.284 10.8121 16.604 11.3161 16.844C11.8201 17.076 12.3921 17.192 13.0321 17.192C13.5361 17.192 14.0361 17.096 14.5321 16.904C15.0281 16.704 15.4441 16.38 15.7801 15.932ZM24.5376 13.904V8.432H23.3976V13.904C23.3976 14.672 23.2056 15.256 22.8216 15.656C22.4456 16.048 21.8936 16.244 21.1656 16.244C20.3976 16.244 19.8096 16.048 19.4016 15.656C18.9936 15.256 18.7896 14.672 18.7896 13.904V8.432H17.6496V13.904C17.6496 15.048 17.9576 15.884 18.5736 16.412C19.1976 16.932 20.0616 17.192 21.1656 17.192C22.2456 17.192 23.0776 16.92 23.6616 16.376C24.2456 15.824 24.5376 15 24.5376 13.904ZM25.5777 8.432V17H26.7177V13.34H29.5017C29.7817 13.34 30.0057 13.384 30.1737 13.472C30.3417 13.552 30.4777 13.664 30.5817 13.808C30.6857 13.944 30.7617 14.108 30.8097 14.3C30.8577 14.484 30.8977 14.68 30.9297 14.888C30.9697 15.096 30.9937 15.308 31.0017 15.524C31.0097 15.74 31.0177 15.944 31.0257 16.136C31.0337 16.32 31.0497 16.488 31.0737 16.64C31.1057 16.792 31.1617 16.912 31.2417 17H32.5137C32.3937 16.856 32.3017 16.692 32.2377 16.508C32.1817 16.316 32.1377 16.116 32.1057 15.908C32.0737 15.7 32.0537 15.488 32.0457 15.272C32.0377 15.056 32.0257 14.844 32.0097 14.636C31.9857 14.428 31.9497 14.228 31.9017 14.036C31.8617 13.844 31.7937 13.672 31.6977 13.52C31.6097 13.36 31.4857 13.224 31.3257 13.112C31.1737 13 30.9737 12.92 30.7257 12.872V12.848C31.2457 12.704 31.6217 12.436 31.8537 12.044C32.0937 11.652 32.2137 11.196 32.2137 10.676C32.2137 9.98 31.9817 9.432 31.5177 9.032C31.0617 8.632 30.4257 8.432 29.6097 8.432H25.5777ZM29.0937 12.38H26.7177V9.392H29.5497C30.0857 9.392 30.4737 9.528 30.7137 9.8C30.9537 10.072 31.0737 10.424 31.0737 10.856C31.0737 11.168 31.0177 11.424 30.9057 11.624C30.8017 11.816 30.6577 11.972 30.4737 12.092C30.2977 12.204 30.0897 12.28 29.8497 12.32C29.6097 12.36 29.3577 12.38 29.0937 12.38ZM33.0126 8.432V17H38.9646V16.04H34.1526V13.076H38.6046V12.116H34.1526V9.392H38.9286V8.432H33.0126ZM43.2683 12.116V9.392H45.5483C45.7963 9.392 46.0283 9.408 46.2443 9.44C46.4683 9.464 46.6643 9.524 46.8323 9.62C47.0003 9.716 47.1323 9.852 47.2283 10.028C47.3243 10.204 47.3723 10.444 47.3723 10.748C47.3723 11.204 47.2283 11.548 46.9403 11.78C46.6603 12.004 46.1963 12.116 45.5483 12.116H43.2683ZM42.1283 8.432V17H46.2683C46.6923 17 47.0643 16.932 47.3843 16.796C47.7123 16.652 47.9843 16.468 48.2003 16.244C48.4243 16.012 48.5923 15.748 48.7043 15.452C48.8163 15.156 48.8723 14.852 48.8723 14.54C48.8723 14.012 48.7323 13.564 48.4523 13.196C48.1723 12.828 47.7683 12.588 47.2403 12.476V12.452C47.6483 12.292 47.9603 12.048 48.1763 11.72C48.4003 11.384 48.5123 10.988 48.5123 10.532C48.5123 10.1 48.4123 9.736 48.2123 9.44C48.0203 9.144 47.7843 8.912 47.5043 8.744C47.3763 8.664 47.2203 8.604 47.0363 8.564C46.8603 8.524 46.6683 8.496 46.4603 8.48C46.2523 8.456 46.0403 8.444 45.8243 8.444C45.6163 8.436 45.4203 8.432 45.2363 8.432H42.1283ZM43.2683 16.04V13.076H45.8723C46.1123 13.076 46.3443 13.1 46.5683 13.148C46.7923 13.188 46.9883 13.264 47.1563 13.376C47.3323 13.48 47.4723 13.624 47.5763 13.808C47.6803 13.992 47.7323 14.224 47.7323 14.504C47.7323 14.984 47.5883 15.36 47.3003 15.632C47.0203 15.904 46.6283 16.04 46.1243 16.04H43.2683ZM51.2432 12.14V13.004C51.4352 12.98 51.6392 12.968 51.8552 12.968C52.1112 12.968 52.3472 13.004 52.5632 13.076C52.7872 13.14 52.9792 13.244 53.1392 13.388C53.2992 13.524 53.4272 13.696 53.5232 13.904C53.6192 14.104 53.6672 14.336 53.6672 14.6C53.6672 14.856 53.6152 15.088 53.5112 15.296C53.4152 15.496 53.2832 15.668 53.1152 15.812C52.9472 15.948 52.7512 16.056 52.5272 16.136C52.3032 16.208 52.0672 16.244 51.8192 16.244C51.2352 16.244 50.7912 16.072 50.4872 15.728C50.1832 15.376 50.0232 14.924 50.0072 14.372H48.9872C48.9792 14.812 49.0392 15.204 49.1672 15.548C49.3032 15.892 49.4952 16.184 49.7432 16.424C49.9912 16.656 50.2912 16.832 50.6432 16.952C50.9952 17.072 51.3872 17.132 51.8192 17.132C52.2192 17.132 52.5952 17.08 52.9472 16.976C53.3072 16.864 53.6192 16.7 53.8832 16.484C54.1472 16.268 54.3552 16 54.5072 15.68C54.6672 15.352 54.7472 14.976 54.7472 14.552C54.7472 14.04 54.6192 13.596 54.3632 13.22C54.1152 12.844 53.7312 12.6 53.2112 12.488V12.464C53.5472 12.312 53.8272 12.088 54.0512 11.792C54.2752 11.496 54.3872 11.156 54.3872 10.772C54.3872 10.38 54.3192 10.04 54.1832 9.752C54.0552 9.464 53.8752 9.228 53.6432 9.044C53.4112 8.86 53.1352 8.724 52.8152 8.636C52.5032 8.54 52.1632 8.492 51.7952 8.492C51.3712 8.492 50.9952 8.56 50.6672 8.696C50.3472 8.832 50.0792 9.02 49.8632 9.26C49.6472 9.5 49.4792 9.788 49.3592 10.124C49.2472 10.46 49.1832 10.832 49.1672 11.24H50.1872C50.1872 10.992 50.2192 10.756 50.2832 10.532C50.3472 10.308 50.4432 10.112 50.5712 9.944C50.7072 9.776 50.8752 9.644 51.0752 9.548C51.2832 9.444 51.5232 9.392 51.7952 9.392C52.2272 9.392 52.5872 9.508 52.8752 9.74C53.1632 9.964 53.3072 10.304 53.3072 10.76C53.3072 10.984 53.2632 11.184 53.1752 11.36C53.0872 11.536 52.9672 11.684 52.8152 11.804C52.6712 11.916 52.4992 12.004 52.2992 12.068C52.1072 12.124 51.9032 12.152 51.6872 12.152H51.4712C51.4312 12.152 51.3912 12.152 51.3512 12.152C51.3192 12.152 51.2832 12.148 51.2432 12.14ZM57.8797 11.9844V13.2462H65.766V11.9844H57.8797ZM77.2534 9.12954H78.7518C78.6677 8.53018 78.4889 8.00443 78.2155 7.55229C77.9421 7.08963 77.6004 6.70583 77.1903 6.4009C76.7802 6.09596 76.3123 5.86463 75.7866 5.70691C75.2608 5.54918 74.7035 5.47032 74.1147 5.47032C73.2524 5.47032 72.4849 5.62805 71.8119 5.9435C71.1494 6.24843 70.5922 6.66903 70.14 7.20529C69.6984 7.74156 69.3619 8.37246 69.1306 9.09799C68.8992 9.81301 68.7836 10.5806 68.7836 11.4008C68.7836 12.2209 68.8887 12.9885 69.099 13.7036C69.3198 14.4186 69.6458 15.039 70.0769 15.5647C70.508 16.0905 71.0496 16.5058 71.7015 16.8107C72.3534 17.1051 73.1158 17.2524 73.9885 17.2524C75.429 17.2524 76.5647 16.858 77.3953 16.0694C78.226 15.2808 78.715 14.1767 78.8622 12.7572H77.3638C77.3323 13.2199 77.2376 13.651 77.0799 14.0505C76.9222 14.4501 76.7014 14.7971 76.4175 15.0915C76.1441 15.3754 75.8128 15.6015 75.4238 15.7697C75.0453 15.9275 74.6089 16.0063 74.1147 16.0063C73.4417 16.0063 72.8634 15.8802 72.3797 15.6278C71.896 15.3754 71.4964 15.039 71.181 14.6184C70.8761 14.1872 70.65 13.6878 70.5028 13.12C70.3556 12.5416 70.282 11.9318 70.282 11.2904C70.282 10.7015 70.3556 10.1337 70.5028 9.58694C70.65 9.04016 70.8761 8.55647 71.181 8.13587C71.4964 7.70476 71.8908 7.36302 72.3639 7.11066C72.8476 6.8583 73.4259 6.73212 74.0989 6.73212C74.8875 6.73212 75.5657 6.9319 76.1336 7.33147C76.7119 7.73104 77.0852 8.3304 77.2534 9.12954ZM80.5606 11.3692C80.5606 10.8014 80.6342 10.2441 80.7814 9.69734C80.9286 9.14005 81.1599 8.64059 81.4754 8.19896C81.7908 7.75733 82.1956 7.40508 82.6898 7.1422C83.184 6.86881 83.7729 6.73212 84.4564 6.73212C85.1398 6.73212 85.7287 6.86881 86.2229 7.1422C86.7171 7.40508 87.1219 7.75733 87.4374 8.19896C87.7528 8.64059 87.9841 9.14005 88.1313 9.69734C88.2786 10.2441 88.3522 10.8014 88.3522 11.3692C88.3522 11.937 88.2786 12.4996 88.1313 13.0569C87.9841 13.6037 87.7528 14.0979 87.4374 14.5395C87.1219 14.9811 86.7171 15.3386 86.2229 15.612C85.7287 15.8749 85.1398 16.0063 84.4564 16.0063C83.7729 16.0063 83.184 15.8749 82.6898 15.612C82.1956 15.3386 81.7908 14.9811 81.4754 14.5395C81.1599 14.0979 80.9286 13.6037 80.7814 13.0569C80.6342 12.4996 80.5606 11.937 80.5606 11.3692ZM79.0622 11.3692C79.0622 12.1368 79.1726 12.8781 79.3934 13.5931C79.6247 14.2976 79.9665 14.9233 80.4186 15.4701C80.8708 16.0168 81.4333 16.4532 82.1063 16.7792C82.7792 17.0946 83.5626 17.2524 84.4564 17.2524C85.3501 17.2524 86.1335 17.0946 86.8065 16.7792C87.4794 16.4532 88.042 16.0168 88.4941 15.4701C88.9463 14.9233 89.2827 14.2976 89.5036 13.5931C89.7349 12.8781 89.8505 12.1368 89.8505 11.3692C89.8505 10.6016 89.7349 9.86558 89.5036 9.16108C89.2827 8.44606 88.9463 7.81516 88.4941 7.26838C88.042 6.7216 87.4794 6.28523 86.8065 5.95927C86.1335 5.6333 85.3501 5.47032 84.4564 5.47032C83.5626 5.47032 82.7792 5.6333 82.1063 5.95927C81.4333 6.28523 80.8708 6.7216 80.4186 7.26838C79.9665 7.81516 79.6247 8.44606 79.3934 9.16108C79.1726 9.86558 79.0622 10.6016 79.0622 11.3692ZM90.6828 5.73845V17H92.1023V7.63115H92.1339L95.6511 17H96.9287L100.446 7.63115H100.478V17H101.897V5.73845H99.8466L96.282 15.2019L92.7332 5.73845H90.6828ZM104.864 11.1326V7.00025H107.797C108.649 7.00025 109.27 7.17901 109.659 7.53652C110.058 7.88351 110.258 8.39349 110.258 9.06645C110.258 9.7394 110.058 10.2546 109.659 10.6121C109.27 10.9697 108.649 11.1432 107.797 11.1326H104.864ZM103.365 5.73845V17H104.864V12.3944H108.302C109.438 12.405 110.295 12.1158 110.873 11.527C111.462 10.9381 111.756 10.1179 111.756 9.06645C111.756 8.01495 111.462 7.20004 110.873 6.62171C110.295 6.03287 109.438 5.73845 108.302 5.73845H103.365ZM113.435 11.3692C113.435 10.8014 113.509 10.2441 113.656 9.69734C113.803 9.14005 114.034 8.64059 114.35 8.19896C114.665 7.75733 115.07 7.40508 115.564 7.1422C116.059 6.86881 116.647 6.73212 117.331 6.73212C118.014 6.73212 118.603 6.86881 119.097 7.1422C119.592 7.40508 119.996 7.75733 120.312 8.19896C120.627 8.64059 120.859 9.14005 121.006 9.69734C121.153 10.2441 121.227 10.8014 121.227 11.3692C121.227 11.937 121.153 12.4996 121.006 13.0569C120.859 13.6037 120.627 14.0979 120.312 14.5395C119.996 14.9811 119.592 15.3386 119.097 15.612C118.603 15.8749 118.014 16.0063 117.331 16.0063C116.647 16.0063 116.059 15.8749 115.564 15.612C115.07 15.3386 114.665 14.9811 114.35 14.5395C114.034 14.0979 113.803 13.6037 113.656 13.0569C113.509 12.4996 113.435 11.937 113.435 11.3692ZM111.937 11.3692C111.937 12.1368 112.047 12.8781 112.268 13.5931C112.499 14.2976 112.841 14.9233 113.293 15.4701C113.745 16.0168 114.308 16.4532 114.981 16.7792C115.654 17.0946 116.437 17.2524 117.331 17.2524C118.225 17.2524 119.008 17.0946 119.681 16.7792C120.354 16.4532 120.916 16.0168 121.369 15.4701C121.821 14.9233 122.157 14.2976 122.378 13.5931C122.609 12.8781 122.725 12.1368 122.725 11.3692C122.725 10.6016 122.609 9.86558 122.378 9.16108C122.157 8.44606 121.821 7.81516 121.369 7.26838C120.916 6.7216 120.354 6.28523 119.681 5.95927C119.008 5.6333 118.225 5.47032 117.331 5.47032C116.437 5.47032 115.654 5.6333 114.981 5.95927C114.308 6.28523 113.745 6.7216 113.293 7.26838C112.841 7.81516 112.499 8.44606 112.268 9.16108C112.047 9.86558 111.937 10.6016 111.937 11.3692ZM130.04 9.0349H131.459C131.438 8.41452 131.317 7.88351 131.097 7.44188C130.886 6.98974 130.592 6.61645 130.213 6.32203C129.845 6.02762 129.414 5.81206 128.92 5.67536C128.426 5.53867 127.889 5.47032 127.311 5.47032C126.796 5.47032 126.291 5.53867 125.797 5.67536C125.313 5.80154 124.877 6.00133 124.488 6.27472C124.109 6.53759 123.804 6.87933 123.573 7.29993C123.342 7.71001 123.226 8.19896 123.226 8.76677C123.226 9.282 123.326 9.71312 123.526 10.0601C123.736 10.3966 124.009 10.6752 124.346 10.8961C124.693 11.1064 125.082 11.2798 125.513 11.4165C125.944 11.5427 126.381 11.6584 126.822 11.7635C127.274 11.8582 127.716 11.9528 128.147 12.0474C128.578 12.1421 128.962 12.2683 129.298 12.426C129.645 12.5732 129.919 12.7677 130.119 13.0096C130.329 13.2514 130.434 13.5669 130.434 13.9559C130.434 14.366 130.35 14.7025 130.182 14.9654C130.014 15.2282 129.793 15.4385 129.519 15.5962C129.246 15.7435 128.936 15.8486 128.589 15.9117C128.252 15.9748 127.916 16.0063 127.579 16.0063C127.159 16.0063 126.749 15.9538 126.349 15.8486C125.949 15.7435 125.597 15.5805 125.292 15.3597C124.998 15.1388 124.756 14.8602 124.567 14.5237C124.388 14.1767 124.299 13.7666 124.299 13.2935H122.879C122.879 13.9769 123 14.571 123.242 15.0758C123.494 15.57 123.831 15.98 124.251 16.306C124.682 16.6215 125.177 16.858 125.734 17.0158C126.302 17.1735 126.901 17.2524 127.532 17.2524C128.047 17.2524 128.562 17.1893 129.078 17.0631C129.603 16.9474 130.077 16.7582 130.497 16.4953C130.918 16.2219 131.26 15.8749 131.522 15.4543C131.796 15.0232 131.932 14.5079 131.932 13.9086C131.932 13.3513 131.827 12.8886 131.617 12.5206C131.417 12.1526 131.144 11.8477 130.797 11.6058C130.46 11.364 130.077 11.1747 129.645 11.038C129.214 10.8908 128.773 10.7646 128.321 10.6595C127.879 10.5543 127.443 10.4597 127.011 10.3756C126.58 10.2809 126.191 10.1653 125.844 10.0286C125.508 9.89187 125.234 9.71837 125.024 9.50807C124.824 9.28726 124.724 9.00336 124.724 8.65636C124.724 8.28834 124.793 7.9834 124.93 7.74156C125.077 7.4892 125.266 7.28941 125.497 7.1422C125.739 6.99499 126.013 6.88984 126.317 6.82675C126.622 6.76366 126.933 6.73212 127.248 6.73212C128.026 6.73212 128.662 6.91613 129.157 7.28416C129.661 7.64167 129.956 8.22525 130.04 9.0349ZM132.791 5.73845V17H134.289V5.73845H132.791ZM138.34 7.00025V17H139.838V7.00025H143.592V5.73845H134.586V7.00025H138.34ZM143.879 5.73845V17H145.378V5.73845H143.879ZM147.74 11.3692C147.74 10.8014 147.814 10.2441 147.961 9.69734C148.108 9.14005 148.34 8.64059 148.655 8.19896C148.97 7.75733 149.375 7.40508 149.869 7.1422C150.364 6.86881 150.953 6.73212 151.636 6.73212C152.319 6.73212 152.908 6.86881 153.403 7.1422C153.897 7.40508 154.302 7.75733 154.617 8.19896C154.932 8.64059 155.164 9.14005 155.311 9.69734C155.458 10.2441 155.532 10.8014 155.532 11.3692C155.532 11.937 155.458 12.4996 155.311 13.0569C155.164 13.6037 154.932 14.0979 154.617 14.5395C154.302 14.9811 153.897 15.3386 153.403 15.612C152.908 15.8749 152.319 16.0063 151.636 16.0063C150.953 16.0063 150.364 15.8749 149.869 15.612C149.375 15.3386 148.97 14.9811 148.655 14.5395C148.34 14.0979 148.108 13.6037 147.961 13.0569C147.814 12.4996 147.74 11.937 147.74 11.3692ZM146.242 11.3692C146.242 12.1368 146.352 12.8781 146.573 13.5931C146.804 14.2976 147.146 14.9233 147.598 15.4701C148.05 16.0168 148.613 16.4532 149.286 16.7792C149.959 17.0946 150.742 17.2524 151.636 17.2524C152.53 17.2524 153.313 17.0946 153.986 16.7792C154.659 16.4532 155.222 16.0168 155.674 15.4701C156.126 14.9233 156.462 14.2976 156.683 13.5931C156.915 12.8781 157.03 12.1368 157.03 11.3692C157.03 10.6016 156.915 9.86558 156.683 9.16108C156.462 8.44606 156.126 7.81516 155.674 7.26838C155.222 6.7216 154.659 6.28523 153.986 5.95927C153.313 5.6333 152.53 5.47032 151.636 5.47032C150.742 5.47032 149.959 5.6333 149.286 5.95927C148.613 6.28523 148.05 6.7216 147.598 7.26838C147.146 7.81516 146.804 8.44606 146.573 9.16108C146.352 9.86558 146.242 10.6016 146.242 11.3692ZM157.815 5.73845V17H159.235V7.96237H159.266L165.149 17H166.79V5.73845H165.37V14.8707H165.339L159.408 5.73845H157.815Z" fill="white" fill-opacity="0.8"/>
</svg>
