<svg width="420" height="452" viewBox="0 0 420 452" fill="none" xmlns="http://www.w3.org/2000/svg">
<rect x="0.766602" y="37.6328" width="418.914" height="414.338" rx="1.70145" fill="#F3F3F3"/>
<rect x="0.766602" y="37.6328" width="418.914" height="414.338" rx="1.70145" fill="#F3F3F3"/>
<path d="M386.403 175.934L187.521 306.877" stroke="#231F20" stroke-width="0.906812" stroke-miterlimit="10"/>
<path d="M185.889 301.727L181.246 311.014L191.693 310.349L185.889 301.727Z" fill="#231F20"/>
<path d="M347.421 267.09L115.146 372.644" stroke="#231F20" stroke-width="0.906812" stroke-miterlimit="10"/>
<path d="M114.347 367.305L108.29 375.754L118.723 376.717L114.347 367.305Z" fill="#231F20"/>
<path d="M33.9404 313.279L291.669 373.81" stroke="#231F20" stroke-width="0.906812" stroke-miterlimit="10"/>
<path d="M288.968 378.497L299.002 375.533L291.391 368.42L288.968 378.497Z" fill="#231F20"/>
<path d="M151.626 111.32V304.394" stroke="#231F20" stroke-width="0.906812" stroke-miterlimit="10"/>
<path d="M146.39 302.875L151.627 311.851L156.865 302.875H146.39Z" fill="#231F20"/>
<path d="M312.278 255.609C281.076 210.904 238.755 182.668 204.585 165.43" stroke="#231F20" stroke-width="0.340055" stroke-miterlimit="10" stroke-dasharray="9.07 4.53"/>
<path d="M313.993 253.547L314.413 258.707L309.687 256.49L313.993 253.547Z" fill="#231F20"/>
<path d="M206.454 163.496L201.224 163.759L204.073 168.109L206.454 163.496Z" fill="#231F20"/>
<path d="M355.215 380.208C353.079 350.483 346.595 324.298 337.163 301.256" stroke="#231F20" stroke-width="0.340055" stroke-miterlimit="10" stroke-dasharray="9.07 4.53"/>
<path d="M357.778 379.273L355.482 383.928L352.548 379.641L357.778 379.273Z" fill="#231F20"/>
<path d="M339.88 300.998L335.749 297.812L335.027 302.944L339.88 300.998Z" fill="#231F20"/>
<path d="M188.395 269.971C196.4 269.971 202.889 263.553 202.889 255.635C202.889 247.717 196.4 241.299 188.395 241.299C180.39 241.299 173.9 247.717 173.9 255.635C173.9 263.553 180.39 269.971 188.395 269.971Z" fill="#231F20"/>
<path d="M151.626 106.013C153.931 106.013 155.8 104.165 155.8 101.886C155.8 99.6058 153.931 97.7578 151.626 97.7578C149.322 97.7578 147.453 99.6058 147.453 101.886C147.453 104.165 149.322 106.013 151.626 106.013Z" fill="#231F20"/>
<path d="M25.518 315.433C27.8228 315.433 29.6913 313.585 29.6913 311.305C29.6913 309.026 27.8228 307.178 25.518 307.178C23.2132 307.178 21.3447 309.026 21.3447 311.305C21.3447 313.585 23.2132 315.433 25.518 315.433Z" fill="#231F20"/>
<path d="M394.895 174.466C397.2 174.466 399.068 172.618 399.068 170.339C399.068 168.059 397.2 166.211 394.895 166.211C392.59 166.211 390.722 168.059 390.722 170.339C390.722 172.618 392.59 174.466 394.895 174.466Z" fill="#231F20"/>
<path d="M357.19 266.777C359.495 266.777 361.363 264.929 361.363 262.649C361.363 260.37 359.495 258.521 357.19 258.521C354.885 258.521 353.017 260.37 353.017 262.649C353.017 264.929 354.885 266.777 357.19 266.777Z" fill="#231F20"/>
<path d="M0.936 8.432V17H2.076V13.076H6.012V12.116H2.076V9.392H6.564V8.432H0.936ZM7.09463 8.432V17H8.23463V8.432H7.09463ZM15.7801 15.932L16.0801 17H16.8001V12.488H13.0441V13.448H15.7801C15.7961 13.84 15.7441 14.208 15.6241 14.552C15.5041 14.888 15.3241 15.184 15.0841 15.44C14.8521 15.688 14.5641 15.884 14.2201 16.028C13.8761 16.172 13.4801 16.244 13.0321 16.244C12.5521 16.244 12.1281 16.152 11.7601 15.968C11.4001 15.776 11.0961 15.524 10.8481 15.212C10.6001 14.892 10.4121 14.528 10.2841 14.12C10.1561 13.704 10.0921 13.272 10.0921 12.824C10.0921 12.368 10.1481 11.924 10.2601 11.492C10.3721 11.052 10.5441 10.664 10.7761 10.328C11.0161 9.984 11.3201 9.708 11.6881 9.5C12.0641 9.292 12.5121 9.188 13.0321 9.188C13.3521 9.188 13.6521 9.228 13.9321 9.308C14.2201 9.38 14.4761 9.492 14.7001 9.644C14.9241 9.796 15.1121 9.992 15.2641 10.232C15.4161 10.464 15.5201 10.744 15.5761 11.072H16.7161C16.6361 10.568 16.4841 10.14 16.2601 9.788C16.0441 9.428 15.7721 9.132 15.4441 8.9C15.1241 8.668 14.7561 8.5 14.3401 8.396C13.9321 8.284 13.4961 8.228 13.0321 8.228C12.3521 8.228 11.7561 8.356 11.2441 8.612C10.7401 8.86 10.3161 9.196 9.97209 9.62C9.63609 10.044 9.38009 10.54 9.20409 11.108C9.03609 11.668 8.95209 12.26 8.95209 12.884C8.95209 13.444 9.04409 13.984 9.22809 14.504C9.41209 15.024 9.68009 15.484 10.0321 15.884C10.3841 16.284 10.8121 16.604 11.3161 16.844C11.8201 17.076 12.3921 17.192 13.0321 17.192C13.5361 17.192 14.0361 17.096 14.5321 16.904C15.0281 16.704 15.4441 16.38 15.7801 15.932ZM24.5376 13.904V8.432H23.3976V13.904C23.3976 14.672 23.2056 15.256 22.8216 15.656C22.4456 16.048 21.8936 16.244 21.1656 16.244C20.3976 16.244 19.8096 16.048 19.4016 15.656C18.9936 15.256 18.7896 14.672 18.7896 13.904V8.432H17.6496V13.904C17.6496 15.048 17.9576 15.884 18.5736 16.412C19.1976 16.932 20.0616 17.192 21.1656 17.192C22.2456 17.192 23.0776 16.92 23.6616 16.376C24.2456 15.824 24.5376 15 24.5376 13.904ZM25.5777 8.432V17H26.7177V13.34H29.5017C29.7817 13.34 30.0057 13.384 30.1737 13.472C30.3417 13.552 30.4777 13.664 30.5817 13.808C30.6857 13.944 30.7617 14.108 30.8097 14.3C30.8577 14.484 30.8977 14.68 30.9297 14.888C30.9697 15.096 30.9937 15.308 31.0017 15.524C31.0097 15.74 31.0177 15.944 31.0257 16.136C31.0337 16.32 31.0497 16.488 31.0737 16.64C31.1057 16.792 31.1617 16.912 31.2417 17H32.5137C32.3937 16.856 32.3017 16.692 32.2377 16.508C32.1817 16.316 32.1377 16.116 32.1057 15.908C32.0737 15.7 32.0537 15.488 32.0457 15.272C32.0377 15.056 32.0257 14.844 32.0097 14.636C31.9857 14.428 31.9497 14.228 31.9017 14.036C31.8617 13.844 31.7937 13.672 31.6977 13.52C31.6097 13.36 31.4857 13.224 31.3257 13.112C31.1737 13 30.9737 12.92 30.7257 12.872V12.848C31.2457 12.704 31.6217 12.436 31.8537 12.044C32.0937 11.652 32.2137 11.196 32.2137 10.676C32.2137 9.98 31.9817 9.432 31.5177 9.032C31.0617 8.632 30.4257 8.432 29.6097 8.432H25.5777ZM29.0937 12.38H26.7177V9.392H29.5497C30.0857 9.392 30.4737 9.528 30.7137 9.8C30.9537 10.072 31.0737 10.424 31.0737 10.856C31.0737 11.168 31.0177 11.424 30.9057 11.624C30.8017 11.816 30.6577 11.972 30.4737 12.092C30.2977 12.204 30.0897 12.28 29.8497 12.32C29.6097 12.36 29.3577 12.38 29.0937 12.38ZM33.0126 8.432V17H38.9646V16.04H34.1526V13.076H38.6046V12.116H34.1526V9.392H38.9286V8.432H33.0126ZM43.2683 12.116V9.392H45.5483C45.7963 9.392 46.0283 9.408 46.2443 9.44C46.4683 9.464 46.6643 9.524 46.8323 9.62C47.0003 9.716 47.1323 9.852 47.2283 10.028C47.3243 10.204 47.3723 10.444 47.3723 10.748C47.3723 11.204 47.2283 11.548 46.9403 11.78C46.6603 12.004 46.1963 12.116 45.5483 12.116H43.2683ZM42.1283 8.432V17H46.2683C46.6923 17 47.0643 16.932 47.3843 16.796C47.7123 16.652 47.9843 16.468 48.2003 16.244C48.4243 16.012 48.5923 15.748 48.7043 15.452C48.8163 15.156 48.8723 14.852 48.8723 14.54C48.8723 14.012 48.7323 13.564 48.4523 13.196C48.1723 12.828 47.7683 12.588 47.2403 12.476V12.452C47.6483 12.292 47.9603 12.048 48.1763 11.72C48.4003 11.384 48.5123 10.988 48.5123 10.532C48.5123 10.1 48.4123 9.736 48.2123 9.44C48.0203 9.144 47.7843 8.912 47.5043 8.744C47.3763 8.664 47.2203 8.604 47.0363 8.564C46.8603 8.524 46.6683 8.496 46.4603 8.48C46.2523 8.456 46.0403 8.444 45.8243 8.444C45.6163 8.436 45.4203 8.432 45.2363 8.432H42.1283ZM43.2683 16.04V13.076H45.8723C46.1123 13.076 46.3443 13.1 46.5683 13.148C46.7923 13.188 46.9883 13.264 47.1563 13.376C47.3323 13.48 47.4723 13.624 47.5763 13.808C47.6803 13.992 47.7323 14.224 47.7323 14.504C47.7323 14.984 47.5883 15.36 47.3003 15.632C47.0203 15.904 46.6283 16.04 46.1243 16.04H43.2683ZM49.1552 11.504H50.1752C50.1672 11.248 50.1912 10.996 50.2472 10.748C50.3112 10.492 50.4112 10.264 50.5472 10.064C50.6832 9.864 50.8552 9.704 51.0632 9.584C51.2792 9.456 51.5352 9.392 51.8312 9.392C52.0552 9.392 52.2672 9.428 52.4672 9.5C52.6672 9.572 52.8392 9.676 52.9832 9.812C53.1352 9.948 53.2552 10.112 53.3432 10.304C53.4312 10.488 53.4752 10.696 53.4752 10.928C53.4752 11.224 53.4272 11.484 53.3312 11.708C53.2432 11.932 53.1072 12.14 52.9232 12.332C52.7472 12.524 52.5232 12.716 52.2512 12.908C51.9792 13.092 51.6632 13.296 51.3032 13.52C51.0072 13.696 50.7232 13.884 50.4512 14.084C50.1792 14.284 49.9352 14.516 49.7192 14.78C49.5032 15.044 49.3232 15.356 49.1792 15.716C49.0432 16.068 48.9552 16.496 48.9152 17H54.4712V16.1H50.1032C50.1512 15.836 50.2512 15.604 50.4032 15.404C50.5632 15.196 50.7512 15.004 50.9672 14.828C51.1912 14.652 51.4352 14.488 51.6992 14.336C51.9632 14.176 52.2272 14.016 52.4912 13.856C52.7552 13.688 53.0112 13.512 53.2592 13.328C53.5072 13.144 53.7272 12.94 53.9192 12.716C54.1112 12.484 54.2632 12.224 54.3752 11.936C54.4952 11.648 54.5552 11.316 54.5552 10.94C54.5552 10.54 54.4832 10.188 54.3392 9.884C54.2032 9.58 54.0152 9.328 53.7752 9.128C53.5352 8.92 53.2512 8.764 52.9232 8.66C52.6032 8.548 52.2592 8.492 51.8912 8.492C51.4432 8.492 51.0432 8.568 50.6912 8.72C50.3392 8.872 50.0432 9.084 49.8032 9.356C49.5712 9.62 49.3992 9.936 49.2872 10.304C49.1752 10.672 49.1312 11.072 49.1552 11.504ZM57.8797 11.9844V13.2462H65.766V11.9844H57.8797ZM70.834 11.1326V7.00025H73.7677C74.6194 7.00025 75.2398 7.17901 75.6288 7.53652C76.0284 7.88351 76.2282 8.39349 76.2282 9.06645C76.2282 9.7394 76.0284 10.2546 75.6288 10.6121C75.2398 10.9697 74.6194 11.1432 73.7677 11.1326H70.834ZM69.3356 5.73845V17H70.834V12.3944H74.2724C75.408 12.405 76.265 12.1158 76.8433 11.527C77.4322 10.9381 77.7266 10.1179 77.7266 9.06645C77.7266 8.01495 77.4322 7.20004 76.8433 6.62171C76.265 6.03287 75.408 5.73845 74.2724 5.73845H69.3356ZM79.4053 11.3692C79.4053 10.8014 79.479 10.2441 79.6262 9.69734C79.7734 9.14005 80.0047 8.64059 80.3202 8.19896C80.6356 7.75733 81.0404 7.40508 81.5346 7.1422C82.0288 6.86881 82.6177 6.73212 83.3011 6.73212C83.9846 6.73212 84.5735 6.86881 85.0677 7.1422C85.5619 7.40508 85.9667 7.75733 86.2821 8.19896C86.5976 8.64059 86.8289 9.14005 86.9761 9.69734C87.1233 10.2441 87.197 10.8014 87.197 11.3692C87.197 11.937 87.1233 12.4996 86.9761 13.0569C86.8289 13.6037 86.5976 14.0979 86.2821 14.5395C85.9667 14.9811 85.5619 15.3386 85.0677 15.612C84.5735 15.8749 83.9846 16.0063 83.3011 16.0063C82.6177 16.0063 82.0288 15.8749 81.5346 15.612C81.0404 15.3386 80.6356 14.9811 80.3202 14.5395C80.0047 14.0979 79.7734 13.6037 79.6262 13.0569C79.479 12.4996 79.4053 11.937 79.4053 11.3692ZM77.907 11.3692C77.907 12.1368 78.0174 12.8781 78.2382 13.5931C78.4695 14.2976 78.8113 14.9233 79.2634 15.4701C79.7155 16.0168 80.2781 16.4532 80.9511 16.7792C81.624 17.0946 82.4074 17.2524 83.3011 17.2524C84.1949 17.2524 84.9783 17.0946 85.6512 16.7792C86.3242 16.4532 86.8868 16.0168 87.3389 15.4701C87.791 14.9233 88.1275 14.2976 88.3483 13.5931C88.5797 12.8781 88.6953 12.1368 88.6953 11.3692C88.6953 10.6016 88.5797 9.86558 88.3483 9.16108C88.1275 8.44606 87.791 7.81516 87.3389 7.26838C86.8868 6.7216 86.3242 6.28523 85.6512 5.95927C84.9783 5.6333 84.1949 5.47032 83.3011 5.47032C82.4074 5.47032 81.624 5.6333 80.9511 5.95927C80.2781 6.28523 79.7155 6.7216 79.2634 7.26838C78.8113 7.81516 78.4695 8.44606 78.2382 9.16108C78.0174 9.86558 77.907 10.6016 77.907 11.3692ZM96.0101 9.0349H97.4296C97.4086 8.41452 97.2876 7.88351 97.0668 7.44188C96.8565 6.98974 96.5621 6.61645 96.1836 6.32203C95.8155 6.02762 95.3844 5.81206 94.8902 5.67536C94.396 5.53867 93.8598 5.47032 93.2814 5.47032C92.7662 5.47032 92.2615 5.53867 91.7673 5.67536C91.2836 5.80154 90.8472 6.00133 90.4582 6.27472C90.0796 6.53759 89.7747 6.87933 89.5434 7.29993C89.312 7.71001 89.1964 8.19896 89.1964 8.76677C89.1964 9.282 89.2963 9.71312 89.496 10.0601C89.7063 10.3966 89.9797 10.6752 90.3162 10.8961C90.6632 11.1064 91.0523 11.2798 91.4834 11.4165C91.9145 11.5427 92.3509 11.6584 92.7925 11.7635C93.2446 11.8582 93.6863 11.9528 94.1174 12.0474C94.5485 12.1421 94.9323 12.2683 95.2688 12.426C95.6158 12.5732 95.8891 12.7677 96.0889 13.0096C96.2992 13.2514 96.4044 13.5669 96.4044 13.9559C96.4044 14.366 96.3203 14.7025 96.152 14.9654C95.9838 15.2282 95.763 15.4385 95.4896 15.5962C95.2162 15.7435 94.906 15.8486 94.559 15.9117C94.2225 15.9748 93.886 16.0063 93.5496 16.0063C93.129 16.0063 92.7189 15.9538 92.3193 15.8486C91.9197 15.7435 91.5675 15.5805 91.2626 15.3597C90.9681 15.1388 90.7263 14.8602 90.537 14.5237C90.3583 14.1767 90.2689 13.7666 90.2689 13.2935H88.8494C88.8494 13.9769 88.9703 14.571 89.2121 15.0758C89.4645 15.57 89.801 15.98 90.2216 16.306C90.6527 16.6215 91.1469 16.858 91.7042 17.0158C92.272 17.1735 92.8713 17.2524 93.5022 17.2524C94.0175 17.2524 94.5327 17.1893 95.0479 17.0631C95.5737 16.9474 96.0469 16.7582 96.4675 16.4953C96.8881 16.2219 97.2298 15.8749 97.4927 15.4543C97.7661 15.0232 97.9028 14.5079 97.9028 13.9086C97.9028 13.3513 97.7976 12.8886 97.5873 12.5206C97.3875 12.1526 97.1141 11.8477 96.7671 11.6058C96.4307 11.364 96.0469 11.1747 95.6158 11.038C95.1846 10.8908 94.743 10.7646 94.2909 10.6595C93.8492 10.5543 93.4129 10.4597 92.9818 10.3756C92.5506 10.2809 92.1616 10.1653 91.8146 10.0286C91.4781 9.89187 91.2047 9.71837 90.9944 9.50807C90.7946 9.28726 90.6947 9.00336 90.6947 8.65636C90.6947 8.28834 90.7631 7.9834 90.8998 7.74156C91.047 7.4892 91.2363 7.28941 91.4676 7.1422C91.7094 6.99499 91.9828 6.88984 92.2878 6.82675C92.5927 6.76366 92.9029 6.73212 93.2183 6.73212C93.9965 6.73212 94.6326 6.91613 95.1268 7.28416C95.6315 7.64167 95.926 8.22525 96.0101 9.0349ZM98.6983 5.73845V17H106.521V15.7382H100.197V11.8424H106.048V10.5806H100.197V7.00025H106.474V5.73845H98.6983Z" fill="white" fill-opacity="0.8"/>
</svg>
