<svg width="104" height="48" viewBox="0 0 104 48" fill="none" xmlns="http://www.w3.org/2000/svg">
<path d="M34.763 11.7098V7.51776H37.739C38.603 7.51776 39.2323 7.69909 39.627 8.06176C40.0323 8.41376 40.235 8.93109 40.235 9.61376C40.235 10.2964 40.0323 10.8191 39.627 11.1818C39.2323 11.5444 38.603 11.7204 37.739 11.7098H34.763ZM33.243 6.23776V17.6618H34.763V12.9898H38.251C39.403 13.0004 40.2723 12.7071 40.859 12.1098C41.4563 11.5124 41.755 10.6804 41.755 9.61376C41.755 8.54709 41.4563 7.72042 40.859 7.13376C40.2723 6.53642 39.403 6.23776 38.251 6.23776H33.243ZM49.682 17.6298C49.4473 17.7684 49.122 17.8378 48.706 17.8378C48.354 17.8378 48.0713 17.7418 47.858 17.5498C47.6553 17.3471 47.554 17.0218 47.554 16.5738C47.1807 17.0218 46.7433 17.3471 46.242 17.5498C45.7513 17.7418 45.218 17.8378 44.642 17.8378C44.2687 17.8378 43.9113 17.7951 43.57 17.7098C43.2393 17.6244 42.9513 17.4911 42.706 17.3098C42.4607 17.1284 42.2633 16.8938 42.114 16.6058C41.9753 16.3071 41.906 15.9498 41.906 15.5338C41.906 15.0644 41.986 14.6804 42.146 14.3818C42.306 14.0831 42.514 13.8431 42.77 13.6618C43.0367 13.4698 43.3353 13.3258 43.666 13.2298C44.0073 13.1338 44.354 13.0538 44.706 12.9898C45.0793 12.9151 45.4313 12.8618 45.762 12.8298C46.1033 12.7871 46.402 12.7338 46.658 12.6698C46.914 12.5951 47.1167 12.4938 47.266 12.3658C47.4153 12.2271 47.49 12.0298 47.49 11.7738C47.49 11.4751 47.4313 11.2351 47.314 11.0538C47.2073 10.8724 47.0633 10.7338 46.882 10.6378C46.7113 10.5418 46.514 10.4778 46.29 10.4458C46.0767 10.4138 45.8633 10.3978 45.65 10.3978C45.074 10.3978 44.594 10.5098 44.21 10.7338C43.826 10.9471 43.618 11.3578 43.586 11.9658H42.226C42.2473 11.4538 42.354 11.0218 42.546 10.6698C42.738 10.3178 42.994 10.0351 43.314 9.82176C43.634 9.59776 43.9967 9.43776 44.402 9.34176C44.818 9.24576 45.2607 9.19776 45.73 9.19776C46.1033 9.19776 46.4713 9.22442 46.834 9.27776C47.2073 9.33109 47.5433 9.44309 47.842 9.61376C48.1407 9.77376 48.3807 10.0031 48.562 10.3018C48.7433 10.6004 48.834 10.9898 48.834 11.4698V15.7258C48.834 16.0458 48.85 16.2804 48.882 16.4298C48.9247 16.5791 49.0527 16.6538 49.266 16.6538C49.3833 16.6538 49.522 16.6271 49.682 16.5738V17.6298ZM47.474 13.3898C47.3033 13.5178 47.0793 13.6138 46.802 13.6778C46.5247 13.7311 46.2313 13.7791 45.922 13.8218C45.6233 13.8538 45.3193 13.8964 45.01 13.9498C44.7007 13.9924 44.4233 14.0671 44.178 14.1738C43.9327 14.2804 43.73 14.4351 43.57 14.6378C43.4207 14.8298 43.346 15.0964 43.346 15.4378C43.346 15.6618 43.3887 15.8538 43.474 16.0138C43.57 16.1631 43.6873 16.2858 43.826 16.3818C43.9753 16.4778 44.146 16.5471 44.338 16.5898C44.53 16.6324 44.7327 16.6538 44.946 16.6538C45.394 16.6538 45.778 16.5951 46.098 16.4778C46.418 16.3498 46.6793 16.1951 46.882 16.0138C47.0847 15.8218 47.234 15.6191 47.33 15.4058C47.426 15.1818 47.474 14.9738 47.474 14.7818V13.3898ZM51.7957 9.38976V6.90976H50.4357V9.38976H49.0277V10.5898H50.4357V15.8538C50.4357 16.2378 50.4731 16.5471 50.5477 16.7818C50.6224 17.0164 50.7344 17.1978 50.8837 17.3258C51.0437 17.4538 51.2464 17.5444 51.4917 17.5978C51.7477 17.6404 52.0517 17.6618 52.4037 17.6618H53.4437V16.4618H52.8197C52.6064 16.4618 52.4304 16.4564 52.2917 16.4458C52.1637 16.4244 52.0624 16.3871 51.9877 16.3338C51.9131 16.2804 51.8597 16.2058 51.8277 16.1098C51.8064 16.0138 51.7957 15.8858 51.7957 15.7258V10.5898H53.4437V9.38976H51.7957ZM53.9146 6.23776V17.6618H55.2746V12.9898C55.2746 12.6164 55.3226 12.2751 55.4186 11.9658C55.5253 11.6458 55.68 11.3684 55.8826 11.1338C56.0853 10.8991 56.336 10.7178 56.6346 10.5898C56.944 10.4618 57.3066 10.3978 57.7226 10.3978C58.2453 10.3978 58.656 10.5471 58.9546 10.8458C59.2533 11.1444 59.4026 11.5498 59.4026 12.0618V17.6618H60.7626V12.2218C60.7626 11.7738 60.7146 11.3684 60.6186 11.0058C60.5333 10.6324 60.3786 10.3124 60.1546 10.0458C59.9306 9.77909 59.6373 9.57109 59.2746 9.42176C58.912 9.27242 58.4586 9.19776 57.9146 9.19776C57.6693 9.19776 57.4133 9.22442 57.1466 9.27776C56.8906 9.33109 56.64 9.41642 56.3946 9.53376C56.16 9.64042 55.9466 9.78442 55.7546 9.96576C55.5626 10.1364 55.4133 10.3498 55.3066 10.6058H55.2746V6.23776H53.9146ZM69.8504 17.6618V6.31776H68.8104C68.7357 6.74442 68.597 7.09642 68.3944 7.37376C68.1917 7.65109 67.941 7.86976 67.6424 8.02976C67.3544 8.18976 67.029 8.30176 66.6664 8.36576C66.3037 8.41909 65.9304 8.44576 65.5464 8.44576V9.53376H68.4904V17.6618H69.8504Z" fill="white"/>
<path d="M102.306 40.0175H99.9613" stroke="white" stroke-width="0.75" stroke-miterlimit="10"/>
<path d="M95.3957 40.0175H6.31854" stroke="white" stroke-width="0.75" stroke-miterlimit="10" stroke-dasharray="7.79 7.79"/>
<path d="M4.03841 40.0175H1.69397" stroke="white" stroke-width="0.75" stroke-miterlimit="10"/>
<path d="M9.06139 32.6618L1.69397 40.0176H5.02308" stroke="white" stroke-width="0.75" stroke-miterlimit="10"/>
<path d="M94.9678 47.3382L102.306 40.0175H98.9124" stroke="white" stroke-width="0.75" stroke-miterlimit="10"/>
<path d="M51.2909 42.6841C52.767 42.6841 53.9635 41.4903 53.9635 40.0178C53.9635 38.5452 52.767 37.3514 51.2909 37.3514C49.8148 37.3514 48.6182 38.5452 48.6182 40.0178C48.6182 41.4903 49.8148 42.6841 51.2909 42.6841Z" fill="white"/>
</svg>
