<svg width="76" height="93" viewBox="0 0 76 93" fill="none" xmlns="http://www.w3.org/2000/svg">
<path d="M20.243 11.2643V7.07234H23.219C24.083 7.07234 24.7123 7.25367 25.107 7.61634C25.5123 7.96834 25.715 8.48567 25.715 9.16834C25.715 9.85101 25.5123 10.3737 25.107 10.7363C24.7123 11.099 24.083 11.275 23.219 11.2643H20.243ZM18.723 5.79234V17.2163H20.243V12.5443H23.731C24.883 12.555 25.7523 12.2617 26.339 11.6643C26.9363 11.067 27.235 10.235 27.235 9.16834C27.235 8.10167 26.9363 7.27501 26.339 6.68834C25.7523 6.09101 24.883 5.79234 23.731 5.79234H18.723ZM35.162 17.1843C34.9273 17.323 34.602 17.3923 34.186 17.3923C33.834 17.3923 33.5513 17.2963 33.338 17.1043C33.1353 16.9017 33.034 16.5763 33.034 16.1283C32.6607 16.5763 32.2233 16.9017 31.722 17.1043C31.2313 17.2963 30.698 17.3923 30.122 17.3923C29.7487 17.3923 29.3913 17.3497 29.05 17.2643C28.7193 17.179 28.4313 17.0457 28.186 16.8643C27.9407 16.683 27.7433 16.4483 27.594 16.1603C27.4553 15.8617 27.386 15.5043 27.386 15.0883C27.386 14.619 27.466 14.235 27.626 13.9363C27.786 13.6377 27.994 13.3977 28.25 13.2163C28.5167 13.0243 28.8153 12.8803 29.146 12.7843C29.4873 12.6883 29.834 12.6083 30.186 12.5443C30.5593 12.4697 30.9113 12.4163 31.242 12.3843C31.5833 12.3417 31.882 12.2883 32.138 12.2243C32.394 12.1497 32.5967 12.0483 32.746 11.9203C32.8953 11.7817 32.97 11.5843 32.97 11.3283C32.97 11.0297 32.9113 10.7897 32.794 10.6083C32.6873 10.427 32.5433 10.2883 32.362 10.1923C32.1913 10.0963 31.994 10.0323 31.77 10.0003C31.5567 9.96834 31.3433 9.95234 31.13 9.95234C30.554 9.95234 30.074 10.0643 29.69 10.2883C29.306 10.5017 29.098 10.9123 29.066 11.5203H27.706C27.7273 11.0083 27.834 10.5763 28.026 10.2243C28.218 9.87234 28.474 9.58967 28.794 9.37634C29.114 9.15234 29.4767 8.99234 29.882 8.89634C30.298 8.80034 30.7407 8.75234 31.21 8.75234C31.5833 8.75234 31.9513 8.77901 32.314 8.83234C32.6873 8.88567 33.0233 8.99767 33.322 9.16834C33.6207 9.32834 33.8607 9.55767 34.042 9.85634C34.2233 10.155 34.314 10.5443 34.314 11.0243V15.2803C34.314 15.6003 34.33 15.835 34.362 15.9843C34.4047 16.1337 34.5327 16.2083 34.746 16.2083C34.8633 16.2083 35.002 16.1817 35.162 16.1283V17.1843ZM32.954 12.9443C32.7833 13.0723 32.5593 13.1683 32.282 13.2323C32.0047 13.2857 31.7113 13.3337 31.402 13.3763C31.1033 13.4083 30.7993 13.451 30.49 13.5043C30.1807 13.547 29.9033 13.6217 29.658 13.7283C29.4127 13.835 29.21 13.9897 29.05 14.1923C28.9007 14.3843 28.826 14.651 28.826 14.9923C28.826 15.2163 28.8687 15.4083 28.954 15.5683C29.05 15.7177 29.1673 15.8403 29.306 15.9363C29.4553 16.0323 29.626 16.1017 29.818 16.1443C30.01 16.187 30.2127 16.2083 30.426 16.2083C30.874 16.2083 31.258 16.1497 31.578 16.0323C31.898 15.9043 32.1593 15.7497 32.362 15.5683C32.5647 15.3763 32.714 15.1737 32.81 14.9603C32.906 14.7363 32.954 14.5283 32.954 14.3363V12.9443ZM37.2758 8.94434V6.46434H35.9158V8.94434H34.5078V10.1443H35.9158V15.4083C35.9158 15.7923 35.9531 16.1017 36.0278 16.3363C36.1024 16.571 36.2144 16.7523 36.3638 16.8803C36.5238 17.0083 36.7264 17.099 36.9718 17.1523C37.2278 17.195 37.5318 17.2163 37.8838 17.2163H38.9238V16.0163H38.2998C38.0864 16.0163 37.9104 16.011 37.7718 16.0003C37.6438 15.979 37.5424 15.9417 37.4678 15.8883C37.3931 15.835 37.3398 15.7603 37.3078 15.6643C37.2864 15.5683 37.2758 15.4403 37.2758 15.2803V10.1443H38.9238V8.94434H37.2758ZM39.3946 5.79234V17.2163H40.7546V12.5443C40.7546 12.171 40.8026 11.8297 40.8986 11.5203C41.0053 11.2003 41.16 10.923 41.3626 10.6883C41.5653 10.4537 41.816 10.2723 42.1146 10.1443C42.424 10.0163 42.7866 9.95234 43.2026 9.95234C43.7253 9.95234 44.136 10.1017 44.4346 10.4003C44.7333 10.699 44.8826 11.1043 44.8826 11.6163V17.2163H46.2426V11.7763C46.2426 11.3283 46.1946 10.923 46.0986 10.5603C46.0133 10.187 45.8586 9.86701 45.6346 9.60034C45.4106 9.33367 45.1173 9.12567 44.7546 8.97634C44.392 8.82701 43.9386 8.75234 43.3946 8.75234C43.1493 8.75234 42.8933 8.77901 42.6266 8.83234C42.3706 8.88567 42.12 8.97101 41.8746 9.08834C41.64 9.19501 41.4266 9.33901 41.2346 9.52034C41.0426 9.69101 40.8933 9.90434 40.7866 10.1603H40.7546V5.79234H39.3946ZM50.3384 9.88834H51.6984C51.6877 9.54701 51.7197 9.21101 51.7944 8.88034C51.8797 8.53901 52.013 8.23501 52.1944 7.96834C52.3757 7.70167 52.605 7.48834 52.8824 7.32834C53.1704 7.15767 53.5117 7.07234 53.9064 7.07234C54.205 7.07234 54.4877 7.12034 54.7544 7.21634C55.021 7.31234 55.2504 7.451 55.4424 7.63234C55.645 7.81367 55.805 8.03234 55.9224 8.28834C56.0397 8.53367 56.0984 8.81101 56.0984 9.12034C56.0984 9.51501 56.0344 9.86167 55.9064 10.1603C55.789 10.459 55.6077 10.7363 55.3624 10.9923C55.1277 11.2483 54.829 11.5043 54.4664 11.7603C54.1037 12.0057 53.6824 12.2777 53.2024 12.5763C52.8077 12.811 52.429 13.0617 52.0664 13.3283C51.7037 13.595 51.3784 13.9043 51.0904 14.2563C50.8024 14.6083 50.5624 15.0243 50.3704 15.5043C50.189 15.9737 50.0717 16.5443 50.0184 17.2163H57.4264V16.0163H51.6024C51.6664 15.6643 51.7997 15.355 52.0024 15.0883C52.2157 14.811 52.4664 14.555 52.7544 14.3203C53.053 14.0857 53.3784 13.867 53.7304 13.6643C54.0824 13.451 54.4344 13.2377 54.7864 13.0243C55.1384 12.8003 55.4797 12.5657 55.8104 12.3203C56.141 12.075 56.4344 11.803 56.6904 11.5043C56.9464 11.195 57.149 10.8483 57.2984 10.4643C57.4584 10.0803 57.5384 9.63767 57.5384 9.13634C57.5384 8.60301 57.4424 8.13367 57.2504 7.72834C57.069 7.32301 56.8184 6.98701 56.4984 6.72034C56.1784 6.44301 55.7997 6.23501 55.3624 6.09634C54.9357 5.947 54.477 5.87234 53.9864 5.87234C53.389 5.87234 52.8557 5.97367 52.3864 6.17634C51.917 6.37901 51.5224 6.66167 51.2024 7.02434C50.893 7.37634 50.6637 7.79767 50.5144 8.28834C50.365 8.77901 50.3064 9.31234 50.3384 9.88834Z" fill="white"/>
<path d="M10.4133 80.9012C24.8556 95.1492 48.1135 94.9912 62.3615 80.549C67.835 75.0003 70.8803 67.5046 70.8274 59.7108C70.7746 51.9169 67.628 44.4632 62.0797 38.9893C59.8819 36.8211 57.2785 35.1071 54.4182 33.9451C51.5579 32.7831 48.4967 32.1958 45.4095 32.2169C42.3223 32.2379 39.2694 32.8668 36.4252 34.0677C33.581 35.2686 31.0012 37.0179 28.8331 39.2158C21.5368 46.6093 22.1232 59.0389 29.5167 66.3333" stroke="white" stroke-width="0.38081" stroke-miterlimit="10" stroke-linecap="round"/>
<path d="M75.0638 58.7257C74.86 50.4545 71.945 42.2576 66.328 35.9875" stroke="white" stroke-width="0.142804" stroke-miterlimit="10" stroke-linecap="round"/>
<path d="M75.7651 58.5032L75.0758 59.7485L74.3408 58.5299L75.7651 58.5032Z" fill="white"/>
<path d="M54.4908 92.237C59.1315 90.0412 63.2596 86.8958 66.6082 83.0043" stroke="white" stroke-width="0.142804" stroke-miterlimit="10" stroke-linecap="round"/>
<path d="M54.975 92.7836L53.5565 92.6599L54.3753 91.4927L54.975 92.7836Z" fill="white"/>
<path d="M46.0591 66.3048H45.2975" stroke="white" stroke-width="0.142804" stroke-miterlimit="10"/>
<path d="M43.8143 66.3048H14.8765" stroke="white" stroke-width="0.142804" stroke-miterlimit="10" stroke-dasharray="1.48 1.48"/>
<path d="M14.1361 66.3048H13.3745" stroke="white" stroke-width="0.142804" stroke-miterlimit="10"/>
<path d="M15.7679 63.9073L13.3745 66.3026H14.456" stroke="white" stroke-width="0.142804" stroke-miterlimit="10"/>
<path d="M43.6762 68.6886L46.0601 66.3048H44.9576" stroke="white" stroke-width="0.142804" stroke-miterlimit="10"/>
<path d="M32.9195 85.8061H32.1579" stroke="white" stroke-width="0.142804" stroke-miterlimit="10"/>
<path d="M30.6748 85.8061H1.737" stroke="white" stroke-width="0.142804" stroke-miterlimit="10" stroke-dasharray="1.48 1.48"/>
<path d="M0.996606 85.8061H0.234985" stroke="white" stroke-width="0.142804" stroke-miterlimit="10"/>
<path d="M2.62838 83.4138L0.234985 85.8072H1.31648" stroke="white" stroke-width="0.142804" stroke-miterlimit="10"/>
<path d="M30.5354 88.19L32.9193 85.8061H31.8168" stroke="white" stroke-width="0.142804" stroke-miterlimit="10"/>
<path d="M29.487 67.1704C29.9665 67.1704 30.3552 66.7817 30.3552 66.3021C30.3552 65.8226 29.9665 65.4339 29.487 65.4339C29.0074 65.4339 28.6187 65.8226 28.6187 66.3021C28.6187 66.7817 29.0074 67.1704 29.487 67.1704Z" fill="white"/>
</svg>
