<svg width="99" height="152" viewBox="0 0 99 152" fill="none" xmlns="http://www.w3.org/2000/svg">
<path d="M32.263 11.9762V7.78421H35.239C36.103 7.78421 36.7323 7.96554 37.127 8.32821C37.5323 8.68021 37.735 9.19754 37.735 9.88021C37.735 10.5629 37.5323 11.0855 37.127 11.4482C36.7323 11.8109 36.103 11.9869 35.239 11.9762H32.263ZM30.743 6.50421V17.9282H32.263V13.2562H35.751C36.903 13.2669 37.7723 12.9735 38.359 12.3762C38.9563 11.7789 39.255 10.9469 39.255 9.88021C39.255 8.81354 38.9563 7.98687 38.359 7.40021C37.7723 6.80287 36.903 6.50421 35.751 6.50421H30.743ZM47.182 17.8962C46.9473 18.0349 46.622 18.1042 46.206 18.1042C45.854 18.1042 45.5713 18.0082 45.358 17.8162C45.1553 17.6135 45.054 17.2882 45.054 16.8402C44.6807 17.2882 44.2433 17.6135 43.742 17.8162C43.2513 18.0082 42.718 18.1042 42.142 18.1042C41.7687 18.1042 41.4113 18.0615 41.07 17.9762C40.7393 17.8909 40.4513 17.7575 40.206 17.5762C39.9607 17.3949 39.7633 17.1602 39.614 16.8722C39.4753 16.5735 39.406 16.2162 39.406 15.8002C39.406 15.3309 39.486 14.9469 39.646 14.6482C39.806 14.3495 40.014 14.1095 40.27 13.9282C40.5367 13.7362 40.8353 13.5922 41.166 13.4962C41.5073 13.4002 41.854 13.3202 42.206 13.2562C42.5793 13.1815 42.9313 13.1282 43.262 13.0962C43.6033 13.0535 43.902 13.0002 44.158 12.9362C44.414 12.8615 44.6167 12.7602 44.766 12.6322C44.9153 12.4935 44.99 12.2962 44.99 12.0402C44.99 11.7415 44.9313 11.5015 44.814 11.3202C44.7073 11.1389 44.5633 11.0002 44.382 10.9042C44.2113 10.8082 44.014 10.7442 43.79 10.7122C43.5767 10.6802 43.3633 10.6642 43.15 10.6642C42.574 10.6642 42.094 10.7762 41.71 11.0002C41.326 11.2135 41.118 11.6242 41.086 12.2322H39.726C39.7473 11.7202 39.854 11.2882 40.046 10.9362C40.238 10.5842 40.494 10.3015 40.814 10.0882C41.134 9.86421 41.4967 9.70421 41.902 9.60821C42.318 9.51221 42.7607 9.46421 43.23 9.46421C43.6033 9.46421 43.9713 9.49087 44.334 9.54421C44.7073 9.59754 45.0433 9.70954 45.342 9.88021C45.6407 10.0402 45.8807 10.2695 46.062 10.5682C46.2433 10.8669 46.334 11.2562 46.334 11.7362V15.9922C46.334 16.3122 46.35 16.5469 46.382 16.6962C46.4247 16.8455 46.5527 16.9202 46.766 16.9202C46.8833 16.9202 47.022 16.8935 47.182 16.8402V17.8962ZM44.974 13.6562C44.8033 13.7842 44.5793 13.8802 44.302 13.9442C44.0247 13.9975 43.7313 14.0455 43.422 14.0882C43.1233 14.1202 42.8193 14.1629 42.51 14.2162C42.2007 14.2589 41.9233 14.3335 41.678 14.4402C41.4327 14.5469 41.23 14.7015 41.07 14.9042C40.9207 15.0962 40.846 15.3629 40.846 15.7042C40.846 15.9282 40.8887 16.1202 40.974 16.2802C41.07 16.4295 41.1873 16.5522 41.326 16.6482C41.4753 16.7442 41.646 16.8135 41.838 16.8562C42.03 16.8989 42.2327 16.9202 42.446 16.9202C42.894 16.9202 43.278 16.8615 43.598 16.7442C43.918 16.6162 44.1793 16.4615 44.382 16.2802C44.5847 16.0882 44.734 15.8855 44.83 15.6722C44.926 15.4482 44.974 15.2402 44.974 15.0482V13.6562ZM49.2957 9.65621V7.17621H47.9357V9.65621H46.5277V10.8562H47.9357V16.1202C47.9357 16.5042 47.9731 16.8135 48.0477 17.0482C48.1224 17.2829 48.2344 17.4642 48.3837 17.5922C48.5437 17.7202 48.7464 17.8109 48.9917 17.8642C49.2477 17.9069 49.5517 17.9282 49.9037 17.9282H50.9437V16.7282H50.3197C50.1064 16.7282 49.9304 16.7229 49.7917 16.7122C49.6637 16.6909 49.5624 16.6535 49.4877 16.6002C49.4131 16.5469 49.3597 16.4722 49.3277 16.3762C49.3064 16.2802 49.2957 16.1522 49.2957 15.9922V10.8562H50.9437V9.65621H49.2957ZM51.4146 6.50421V17.9282H52.7746V13.2562C52.7746 12.8829 52.8226 12.5415 52.9186 12.2322C53.0253 11.9122 53.18 11.6349 53.3826 11.4002C53.5853 11.1655 53.836 10.9842 54.1346 10.8562C54.444 10.7282 54.8066 10.6642 55.2226 10.6642C55.7453 10.6642 56.156 10.8135 56.4546 11.1122C56.7533 11.4109 56.9026 11.8162 56.9026 12.3282V17.9282H58.2626V12.4882C58.2626 12.0402 58.2146 11.6349 58.1186 11.2722C58.0333 10.8989 57.8786 10.5789 57.6546 10.3122C57.4306 10.0455 57.1373 9.83754 56.7746 9.68821C56.412 9.53887 55.9586 9.46421 55.4146 9.46421C55.1693 9.46421 54.9133 9.49087 54.6466 9.54421C54.3906 9.59754 54.14 9.68287 53.8946 9.80021C53.66 9.90687 53.4466 10.0509 53.2546 10.2322C53.0626 10.4029 52.9133 10.6162 52.8066 10.8722H52.7746V6.50421H51.4146ZM67.0784 14.0722H63.2704L67.0464 8.52021H67.0784V14.0722ZM68.3584 14.0722V6.58421H67.2704L62.1024 13.9602V15.2722H67.0784V17.9282H68.3584V15.2722H69.8944V14.0722H68.3584Z" fill="white"/>
<path d="M13.6637 120.257C32.4251 138.766 62.6387 138.561 81.1478 119.8C88.2582 112.592 92.2142 102.854 92.1455 92.7295C92.0769 82.6047 87.9892 72.9219 80.7817 65.8109C77.9265 62.9943 74.5445 60.7677 70.8289 59.2582C67.1132 57.7487 63.1365 56.9858 59.126 57.0132C55.1155 57.0405 51.1496 57.8575 47.4548 59.4175C43.76 60.9775 40.4087 63.25 37.5922 66.1053C28.1138 75.7098 28.8756 91.8567 38.4802 101.333" stroke="white" stroke-width="0.846038" stroke-miterlimit="10" stroke-linecap="round"/>
<path d="M97.6487 91.4479C97.384 80.7031 93.5971 70.0547 86.3004 61.9096" stroke="white" stroke-width="0.317264" stroke-miterlimit="10" stroke-linecap="round"/>
<path d="M98.5592 91.1612L97.6638 92.7789L96.709 91.1959L98.5592 91.1612Z" fill="white"/>
<path d="M70.9225 134.984C76.951 132.131 82.3136 128.045 86.6637 122.99" stroke="white" stroke-width="0.317264" stroke-miterlimit="10" stroke-linecap="round"/>
<path d="M71.5505 135.692L69.7078 135.531L70.7714 134.015L71.5505 135.692Z" fill="white"/>
<path d="M82.7331 34.6944L5.45154 151.072" stroke="white" stroke-width="0.846038" stroke-miterlimit="10" stroke-linecap="round"/>
<path d="M81.5377 33.604L81.264 34.0161L83.9426 35.7951L84.2163 35.383L81.5377 33.604Z" fill="white"/>
<path d="M90.6069 33.1803C91.6946 34.8718 92.4131 36.7738 92.7153 38.762C93.0174 40.7502 92.8965 42.7798 92.3605 44.718C91.8244 46.6563 90.8853 48.4596 89.6045 50.01C88.3237 51.5604 86.73 52.823 84.9277 53.7152C83.1254 54.6074 81.1551 55.1091 79.1456 55.1876C77.1361 55.266 75.1327 54.9194 73.2663 54.1705C71.4 53.4215 69.7128 52.287 68.3149 50.8412C66.9171 49.3954 65.8403 47.6708 65.1547 45.7802" stroke="white" stroke-width="0.317264" stroke-miterlimit="10" stroke-dasharray="14.81 8.46"/>
<path d="M90.1312 34.5706L90.4032 34.6225L90.6654 33.2745L91.9888 33.6331L92.0605 33.3635L90.4478 32.9282L90.1312 34.5706Z" fill="white"/>
<path d="M66.5638 46.2306L66.4402 46.4805L65.2084 45.8769L64.6939 47.1483L64.4366 47.0444L65.0624 45.4935L66.5638 46.2306Z" fill="white"/>
<path d="M59.9701 101.292H58.9807" stroke="white" stroke-width="0.317264" stroke-miterlimit="10"/>
<path d="M57.0542 101.292H19.4622" stroke="white" stroke-width="0.317264" stroke-miterlimit="10" stroke-dasharray="3.3 3.3"/>
<path d="M18.4996 101.292H17.5103" stroke="white" stroke-width="0.317264" stroke-miterlimit="10"/>
<path d="M20.6194 98.181L17.5103 101.293H18.9152" stroke="white" stroke-width="0.317264" stroke-miterlimit="10"/>
<path d="M56.8737 104.389L59.9705 101.292H58.5384" stroke="white" stroke-width="0.317264" stroke-miterlimit="10"/>
<path d="M42.9007 126.628H41.9113" stroke="white" stroke-width="0.317264" stroke-miterlimit="10"/>
<path d="M39.9848 126.628H2.39276" stroke="white" stroke-width="0.317264" stroke-miterlimit="10" stroke-dasharray="3.3 3.3"/>
<path d="M1.43025 126.628H0.440857" stroke="white" stroke-width="0.317264" stroke-miterlimit="10"/>
<path d="M3.55002 123.519L0.440857 126.628H1.84579" stroke="white" stroke-width="0.317264" stroke-miterlimit="10"/>
<path d="M39.8035 129.725L42.9003 126.628H41.4681" stroke="white" stroke-width="0.317264" stroke-miterlimit="10"/>
<path d="M38.4405 102.42C39.0635 102.42 39.5684 101.915 39.5684 101.292C39.5684 100.669 39.0635 100.164 38.4405 100.164C37.8176 100.164 37.3126 100.669 37.3126 101.292C37.3126 101.915 37.8176 102.42 38.4405 102.42Z" fill="white"/>
</svg>
