<svg width="133" height="151" viewBox="0 0 133 151" fill="none" xmlns="http://www.w3.org/2000/svg">
<path d="M3.273 11.34V7.14796H6.249C7.113 7.14796 7.74233 7.32929 8.137 7.69196C8.54233 8.04396 8.745 8.56129 8.745 9.24396C8.745 9.92663 8.54233 10.4493 8.137 10.812C7.74233 11.1746 7.113 11.3506 6.249 11.34H3.273ZM1.753 5.86796V17.292H3.273V12.62H6.761C7.913 12.6306 8.78233 12.3373 9.369 11.74C9.96633 11.1426 10.265 10.3106 10.265 9.24396C10.265 8.17729 9.96633 7.35063 9.369 6.76396C8.78233 6.16663 7.913 5.86796 6.761 5.86796H1.753ZM18.192 17.26C17.9573 17.3986 17.632 17.468 17.216 17.468C16.864 17.468 16.5813 17.372 16.368 17.18C16.1653 16.9773 16.064 16.652 16.064 16.204C15.6907 16.652 15.2533 16.9773 14.752 17.18C14.2613 17.372 13.728 17.468 13.152 17.468C12.7787 17.468 12.4213 17.4253 12.08 17.34C11.7493 17.2546 11.4613 17.1213 11.216 16.94C10.9707 16.7586 10.7733 16.524 10.624 16.236C10.4853 15.9373 10.416 15.58 10.416 15.164C10.416 14.6946 10.496 14.3106 10.656 14.012C10.816 13.7133 11.024 13.4733 11.28 13.292C11.5467 13.1 11.8453 12.956 12.176 12.86C12.5173 12.764 12.864 12.684 13.216 12.62C13.5893 12.5453 13.9413 12.492 14.272 12.46C14.6133 12.4173 14.912 12.364 15.168 12.3C15.424 12.2253 15.6267 12.124 15.776 11.996C15.9253 11.8573 16 11.66 16 11.404C16 11.1053 15.9413 10.8653 15.824 10.684C15.7173 10.5026 15.5733 10.364 15.392 10.268C15.2213 10.172 15.024 10.108 14.8 10.076C14.5867 10.044 14.3733 10.028 14.16 10.028C13.584 10.028 13.104 10.14 12.72 10.364C12.336 10.5773 12.128 10.988 12.096 11.596H10.736C10.7573 11.084 10.864 10.652 11.056 10.3C11.248 9.94796 11.504 9.66529 11.824 9.45196C12.144 9.22796 12.5067 9.06796 12.912 8.97196C13.328 8.87596 13.7707 8.82796 14.24 8.82796C14.6133 8.82796 14.9813 8.85463 15.344 8.90796C15.7173 8.96129 16.0533 9.07329 16.352 9.24396C16.6507 9.40396 16.8907 9.63329 17.072 9.93196C17.2533 10.2306 17.344 10.62 17.344 11.1V15.356C17.344 15.676 17.36 15.9106 17.392 16.06C17.4347 16.2093 17.5627 16.284 17.776 16.284C17.8933 16.284 18.032 16.2573 18.192 16.204V17.26ZM15.984 13.02C15.8133 13.148 15.5893 13.244 15.312 13.308C15.0347 13.3613 14.7413 13.4093 14.432 13.452C14.1333 13.484 13.8293 13.5266 13.52 13.58C13.2107 13.6226 12.9333 13.6973 12.688 13.804C12.4427 13.9106 12.24 14.0653 12.08 14.268C11.9307 14.46 11.856 14.7266 11.856 15.068C11.856 15.292 11.8987 15.484 11.984 15.644C12.08 15.7933 12.1973 15.916 12.336 16.012C12.4853 16.108 12.656 16.1773 12.848 16.22C13.04 16.2626 13.2427 16.284 13.456 16.284C13.904 16.284 14.288 16.2253 14.608 16.108C14.928 15.98 15.1893 15.8253 15.392 15.644C15.5947 15.452 15.744 15.2493 15.84 15.036C15.936 14.812 15.984 14.604 15.984 14.412V13.02ZM20.3057 9.01996V6.53996H18.9457V9.01996H17.5377V10.22H18.9457V15.484C18.9457 15.868 18.9831 16.1773 19.0577 16.412C19.1324 16.6466 19.2444 16.828 19.3937 16.956C19.5537 17.084 19.7564 17.1746 20.0017 17.228C20.2577 17.2706 20.5617 17.292 20.9137 17.292H21.9537V16.092H21.3297C21.1164 16.092 20.9404 16.0866 20.8017 16.076C20.6737 16.0546 20.5724 16.0173 20.4977 15.964C20.4231 15.9106 20.3697 15.836 20.3377 15.74C20.3164 15.644 20.3057 15.516 20.3057 15.356V10.22H21.9537V9.01996H20.3057ZM22.4246 5.86796V17.292H23.7846V12.62C23.7846 12.2466 23.8326 11.9053 23.9286 11.596C24.0353 11.276 24.19 10.9986 24.3926 10.764C24.5953 10.5293 24.846 10.348 25.1446 10.22C25.454 10.092 25.8166 10.028 26.2326 10.028C26.7553 10.028 27.166 10.1773 27.4646 10.476C27.7633 10.7746 27.9126 11.18 27.9126 11.692V17.292H29.2726V11.852C29.2726 11.404 29.2246 10.9986 29.1286 10.636C29.0433 10.2626 28.8886 9.94263 28.6646 9.67596C28.4406 9.40929 28.1473 9.20129 27.7846 9.05196C27.422 8.90263 26.9686 8.82796 26.4246 8.82796C26.1793 8.82796 25.9233 8.85463 25.6566 8.90796C25.4006 8.96129 25.15 9.04663 24.9046 9.16396C24.67 9.27063 24.4566 9.41463 24.2646 9.59596C24.0726 9.76663 23.9233 9.97996 23.8166 10.236H23.7846V5.86796H22.4246ZM36.1524 10.812V11.964C36.4084 11.932 36.6804 11.916 36.9684 11.916C37.3097 11.916 37.6244 11.964 37.9124 12.06C38.211 12.1453 38.467 12.284 38.6804 12.476C38.8937 12.6573 39.0644 12.8866 39.1924 13.164C39.3204 13.4306 39.3844 13.74 39.3844 14.092C39.3844 14.4333 39.315 14.7426 39.1764 15.02C39.0484 15.2866 38.8724 15.516 38.6484 15.708C38.4244 15.8893 38.163 16.0333 37.8644 16.14C37.5657 16.236 37.251 16.284 36.9204 16.284C36.1417 16.284 35.5497 16.0546 35.1444 15.596C34.739 15.1266 34.5257 14.524 34.5044 13.788H33.1444C33.1337 14.3746 33.2137 14.8973 33.3844 15.356C33.5657 15.8146 33.8217 16.204 34.1524 16.524C34.483 16.8333 34.883 17.068 35.3524 17.228C35.8217 17.388 36.3444 17.468 36.9204 17.468C37.4537 17.468 37.955 17.3986 38.4244 17.26C38.9044 17.1106 39.3204 16.892 39.6724 16.604C40.0244 16.316 40.3017 15.9586 40.5044 15.532C40.7177 15.0946 40.8244 14.5933 40.8244 14.028C40.8244 13.3453 40.6537 12.7533 40.3124 12.252C39.9817 11.7506 39.4697 11.4253 38.7764 11.276V11.244C39.2244 11.0413 39.5977 10.7426 39.8964 10.348C40.195 9.95329 40.3444 9.49996 40.3444 8.98796C40.3444 8.46529 40.2537 8.01196 40.0724 7.62796C39.9017 7.24396 39.6617 6.92929 39.3524 6.68396C39.043 6.43863 38.675 6.25729 38.2484 6.13996C37.8324 6.01196 37.379 5.94796 36.8884 5.94796C36.323 5.94796 35.8217 6.03863 35.3844 6.21996C34.9577 6.40129 34.6004 6.65196 34.3124 6.97196C34.0244 7.29196 33.8004 7.67596 33.6404 8.12396C33.491 8.57196 33.4057 9.06796 33.3844 9.61196H34.7444C34.7444 9.28129 34.787 8.96663 34.8724 8.66796C34.9577 8.36929 35.0857 8.10796 35.2564 7.88396C35.4377 7.65996 35.6617 7.48396 35.9284 7.35596C36.2057 7.21729 36.5257 7.14796 36.8884 7.14796C37.4644 7.14796 37.9444 7.30263 38.3284 7.61196C38.7124 7.91063 38.9044 8.36396 38.9044 8.97196C38.9044 9.27063 38.8457 9.53729 38.7284 9.77196C38.611 10.0066 38.451 10.204 38.2484 10.364C38.0564 10.5133 37.827 10.6306 37.5604 10.716C37.3044 10.7906 37.0324 10.828 36.7444 10.828H36.4564C36.403 10.828 36.3497 10.828 36.2964 10.828C36.2537 10.828 36.2057 10.8226 36.1524 10.812ZM48.3761 5.59596L43.6561 17.548H44.8081L49.5441 5.59596H48.3761ZM60.9094 9.30796H62.4294C62.344 8.69996 62.1627 8.16663 61.8854 7.70796C61.608 7.23863 61.2614 6.84929 60.8454 6.53996C60.4294 6.23063 59.9547 5.99596 59.4214 5.83596C58.888 5.67596 58.3227 5.59596 57.7254 5.59596C56.8507 5.59596 56.072 5.75596 55.3894 6.07596C54.7174 6.38529 54.152 6.81196 53.6934 7.35596C53.2454 7.89996 52.904 8.53996 52.6694 9.27596C52.4347 10.0013 52.3174 10.78 52.3174 11.612C52.3174 12.444 52.424 13.2226 52.6374 13.948C52.8614 14.6733 53.192 15.3026 53.6294 15.836C54.0667 16.3693 54.616 16.7906 55.2774 17.1C55.9387 17.3986 56.712 17.548 57.5974 17.548C59.0587 17.548 60.2107 17.148 61.0534 16.348C61.896 15.548 62.392 14.428 62.5414 12.988H61.0214C60.9894 13.4573 60.8934 13.8946 60.7334 14.3C60.5734 14.7053 60.3494 15.0573 60.0614 15.356C59.784 15.644 59.448 15.8733 59.0534 16.044C58.6694 16.204 58.2267 16.284 57.7254 16.284C57.0427 16.284 56.456 16.156 55.9654 15.9C55.4747 15.644 55.0694 15.3026 54.7494 14.876C54.44 14.4386 54.2107 13.932 54.0614 13.356C53.912 12.7693 53.8374 12.1506 53.8374 11.5C53.8374 10.9026 53.912 10.3266 54.0614 9.77196C54.2107 9.21729 54.44 8.72663 54.7494 8.29996C55.0694 7.86263 55.4694 7.51596 55.9494 7.25996C56.44 7.00396 57.0267 6.87596 57.7094 6.87596C58.5094 6.87596 59.1974 7.07863 59.7734 7.48396C60.36 7.88929 60.7387 8.49729 60.9094 9.30796ZM64.1522 13.164C64.1522 12.6626 64.2162 12.22 64.3442 11.836C64.4829 11.4413 64.6696 11.1106 64.9042 10.844C65.1389 10.5773 65.4109 10.3746 65.7202 10.236C66.0402 10.0973 66.3762 10.028 66.7282 10.028C67.0802 10.028 67.4109 10.0973 67.7202 10.236C68.0402 10.3746 68.3176 10.5773 68.5522 10.844C68.7869 11.1106 68.9682 11.4413 69.0962 11.836C69.2349 12.22 69.3042 12.6626 69.3042 13.164C69.3042 13.6653 69.2349 14.1133 69.0962 14.508C68.9682 14.892 68.7869 15.2173 68.5522 15.484C68.3176 15.74 68.0402 15.9373 67.7202 16.076C67.4109 16.2146 67.0802 16.284 66.7282 16.284C66.3762 16.284 66.0402 16.2146 65.7202 16.076C65.4109 15.9373 65.1389 15.74 64.9042 15.484C64.6696 15.2173 64.4829 14.892 64.3442 14.508C64.2162 14.1133 64.1522 13.6653 64.1522 13.164ZM62.7122 13.164C62.7122 13.772 62.7976 14.3373 62.9682 14.86C63.1389 15.3826 63.3949 15.8413 63.7362 16.236C64.0776 16.62 64.4989 16.924 65.0002 17.148C65.5016 17.3613 66.0776 17.468 66.7282 17.468C67.3896 17.468 67.9656 17.3613 68.4562 17.148C68.9576 16.924 69.3789 16.62 69.7202 16.236C70.0616 15.8413 70.3176 15.3826 70.4882 14.86C70.6589 14.3373 70.7442 13.772 70.7442 13.164C70.7442 12.556 70.6589 11.9906 70.4882 11.468C70.3176 10.9346 70.0616 10.476 69.7202 10.092C69.3789 9.69729 68.9576 9.38796 68.4562 9.16396C67.9656 8.93996 67.3896 8.82796 66.7282 8.82796C66.0776 8.82796 65.5016 8.93996 65.0002 9.16396C64.4989 9.38796 64.0776 9.69729 63.7362 10.092C63.3949 10.476 63.1389 10.9346 62.9682 11.468C62.7976 11.9906 62.7122 12.556 62.7122 13.164ZM71.3077 9.01996V17.292H72.6677V12.14C72.6677 11.98 72.7051 11.7826 72.7797 11.548C72.8651 11.3026 72.9931 11.068 73.1637 10.844C73.3451 10.62 73.5744 10.428 73.8517 10.268C74.1397 10.108 74.4811 10.028 74.8757 10.028C75.1851 10.028 75.4357 10.076 75.6277 10.172C75.8304 10.2573 75.9904 10.3853 76.1077 10.556C76.2251 10.716 76.3051 10.908 76.3477 11.132C76.4011 11.356 76.4277 11.6013 76.4277 11.868V17.292H77.7877V12.14C77.7877 11.5 77.9797 10.988 78.3637 10.604C78.7477 10.22 79.2757 10.028 79.9477 10.028C80.2784 10.028 80.5451 10.076 80.7477 10.172C80.9611 10.268 81.1264 10.4013 81.2437 10.572C81.3611 10.732 81.4411 10.924 81.4837 11.148C81.5264 11.372 81.5477 11.612 81.5477 11.868V17.292H82.9077V11.228C82.9077 10.8013 82.8384 10.4386 82.6997 10.14C82.5717 9.83063 82.3851 9.57996 82.1397 9.38796C81.9051 9.19596 81.6171 9.05729 81.2757 8.97196C80.9451 8.87596 80.5717 8.82796 80.1557 8.82796C79.6117 8.82796 79.1104 8.95063 78.6517 9.19596C78.2037 9.44129 77.8411 9.78796 77.5637 10.236C77.3931 9.72396 77.0997 9.36129 76.6837 9.14796C76.2677 8.93463 75.8037 8.82796 75.2917 8.82796C74.1291 8.82796 73.2384 9.29729 72.6197 10.236H72.5877V9.01996H71.3077ZM83.9564 9.01996V20.444H85.3164V16.188H85.3484C85.4977 16.4333 85.679 16.6413 85.8924 16.812C86.1164 16.972 86.351 17.1 86.5964 17.196C86.8417 17.292 87.087 17.3613 87.3324 17.404C87.5884 17.4466 87.8177 17.468 88.0204 17.468C88.6497 17.468 89.199 17.356 89.6684 17.132C90.1484 16.908 90.543 16.604 90.8524 16.22C91.1724 15.8253 91.407 15.3666 91.5564 14.844C91.7164 14.3213 91.7964 13.7666 91.7964 13.18C91.7964 12.5933 91.7164 12.0386 91.5564 11.516C91.3964 10.9933 91.1564 10.5346 90.8364 10.14C90.527 9.73463 90.1324 9.41463 89.6524 9.17996C89.183 8.94529 88.6284 8.82796 87.9884 8.82796C87.4124 8.82796 86.8844 8.93463 86.4044 9.14796C85.9244 9.35063 85.5724 9.68129 85.3484 10.14H85.3164V9.01996H83.9564ZM90.3564 13.084C90.3564 13.4893 90.3137 13.884 90.2284 14.268C90.143 14.652 90.0044 14.9933 89.8124 15.292C89.6204 15.5906 89.3644 15.8306 89.0444 16.012C88.735 16.1933 88.3457 16.284 87.8764 16.284C87.407 16.284 87.007 16.1986 86.6764 16.028C86.3457 15.8466 86.0737 15.612 85.8604 15.324C85.6577 15.036 85.5084 14.7053 85.4124 14.332C85.3164 13.948 85.2684 13.5533 85.2684 13.148C85.2684 12.764 85.311 12.3853 85.3964 12.012C85.4924 11.6386 85.6417 11.308 85.8444 11.02C86.047 10.7213 86.3084 10.4813 86.6284 10.3C86.9484 10.1186 87.3377 10.028 87.7964 10.028C88.2337 10.028 88.6124 10.1133 88.9324 10.284C89.263 10.4546 89.5297 10.684 89.7324 10.972C89.9457 11.26 90.1004 11.5906 90.1964 11.964C90.303 12.3266 90.3564 12.7 90.3564 13.084ZM93.3448 13.164C93.3448 12.6626 93.4088 12.22 93.5368 11.836C93.6754 11.4413 93.8621 11.1106 94.0968 10.844C94.3314 10.5773 94.6034 10.3746 94.9128 10.236C95.2328 10.0973 95.5688 10.028 95.9208 10.028C96.2728 10.028 96.6034 10.0973 96.9128 10.236C97.2328 10.3746 97.5101 10.5773 97.7448 10.844C97.9794 11.1106 98.1608 11.4413 98.2888 11.836C98.4274 12.22 98.4968 12.6626 98.4968 13.164C98.4968 13.6653 98.4274 14.1133 98.2888 14.508C98.1608 14.892 97.9794 15.2173 97.7448 15.484C97.5101 15.74 97.2328 15.9373 96.9128 16.076C96.6034 16.2146 96.2728 16.284 95.9208 16.284C95.5688 16.284 95.2328 16.2146 94.9128 16.076C94.6034 15.9373 94.3314 15.74 94.0968 15.484C93.8621 15.2173 93.6754 14.892 93.5368 14.508C93.4088 14.1133 93.3448 13.6653 93.3448 13.164ZM91.9048 13.164C91.9048 13.772 91.9901 14.3373 92.1608 14.86C92.3314 15.3826 92.5874 15.8413 92.9288 16.236C93.2701 16.62 93.6914 16.924 94.1928 17.148C94.6941 17.3613 95.2701 17.468 95.9208 17.468C96.5821 17.468 97.1581 17.3613 97.6488 17.148C98.1501 16.924 98.5714 16.62 98.9128 16.236C99.2541 15.8413 99.5101 15.3826 99.6808 14.86C99.8514 14.3373 99.9368 13.772 99.9368 13.164C99.9368 12.556 99.8514 11.9906 99.6808 11.468C99.5101 10.9346 99.2541 10.476 98.9128 10.092C98.5714 9.69729 98.1501 9.38796 97.6488 9.16396C97.1581 8.93996 96.5821 8.82796 95.9208 8.82796C95.2701 8.82796 94.6941 8.93996 94.1928 9.16396C93.6914 9.38796 93.2701 9.69729 92.9288 10.092C92.5874 10.476 92.3314 10.9346 92.1608 11.468C91.9901 11.9906 91.9048 12.556 91.9048 13.164ZM101.332 14.684H99.9722C99.9936 15.196 100.1 15.6333 100.292 15.996C100.484 16.348 100.74 16.636 101.06 16.86C101.38 17.0733 101.748 17.228 102.164 17.324C102.58 17.42 103.018 17.468 103.476 17.468C103.892 17.468 104.308 17.4253 104.724 17.34C105.151 17.2653 105.53 17.1266 105.86 16.924C106.202 16.7213 106.474 16.4546 106.676 16.124C106.89 15.7933 106.996 15.3773 106.996 14.876C106.996 14.4813 106.916 14.1506 106.756 13.884C106.607 13.6173 106.404 13.3986 106.148 13.228C105.903 13.0466 105.615 12.9026 105.284 12.796C104.964 12.6893 104.634 12.5986 104.292 12.524C103.972 12.4493 103.652 12.38 103.332 12.316C103.012 12.2413 102.724 12.156 102.468 12.06C102.212 11.9533 101.999 11.8253 101.828 11.676C101.668 11.516 101.588 11.3186 101.588 11.084C101.588 10.8706 101.642 10.7 101.748 10.572C101.855 10.4333 101.994 10.3266 102.164 10.252C102.335 10.1666 102.522 10.108 102.724 10.076C102.938 10.044 103.146 10.028 103.348 10.028C103.572 10.028 103.791 10.0546 104.004 10.108C104.228 10.1506 104.431 10.2253 104.612 10.332C104.794 10.4386 104.943 10.5826 105.06 10.764C105.178 10.9346 105.247 11.1533 105.268 11.42H106.628C106.596 10.9186 106.49 10.5026 106.308 10.172C106.127 9.83063 105.882 9.56396 105.572 9.37196C105.274 9.16929 104.927 9.03063 104.532 8.95596C104.138 8.87063 103.706 8.82796 103.236 8.82796C102.874 8.82796 102.506 8.87596 102.132 8.97196C101.77 9.05729 101.439 9.19596 101.14 9.38796C100.852 9.56929 100.612 9.80929 100.42 10.108C100.239 10.4066 100.148 10.764 100.148 11.18C100.148 11.7133 100.282 12.1293 100.548 12.428C100.815 12.7266 101.146 12.9613 101.54 13.132C101.946 13.292 102.383 13.42 102.852 13.516C103.322 13.6013 103.754 13.7026 104.148 13.82C104.554 13.9266 104.89 14.0706 105.156 14.252C105.423 14.4333 105.556 14.7 105.556 15.052C105.556 15.308 105.492 15.5213 105.364 15.692C105.236 15.852 105.071 15.9746 104.868 16.06C104.676 16.1453 104.463 16.204 104.228 16.236C103.994 16.268 103.77 16.284 103.556 16.284C103.279 16.284 103.007 16.2573 102.74 16.204C102.484 16.1506 102.25 16.0653 102.036 15.948C101.834 15.82 101.668 15.6546 101.54 15.452C101.412 15.2386 101.343 14.9826 101.332 14.684ZM108.9 7.53196V5.86796H107.54V7.53196H108.9ZM107.54 9.01996V17.292H108.9V9.01996H107.54ZM111.855 9.01996V6.53996H110.495V9.01996H109.087V10.22H110.495V15.484C110.495 15.868 110.532 16.1773 110.607 16.412C110.682 16.6466 110.794 16.828 110.943 16.956C111.103 17.084 111.306 17.1746 111.551 17.228C111.807 17.2706 112.111 17.292 112.463 17.292H113.503V16.092H112.879C112.666 16.092 112.49 16.0866 112.351 16.076C112.223 16.0546 112.122 16.0173 112.047 15.964C111.972 15.9106 111.919 15.836 111.887 15.74C111.866 15.644 111.855 15.516 111.855 15.356V10.22H113.503V9.01996H111.855ZM115.414 7.53196V5.86796H114.054V7.53196H115.414ZM114.054 9.01996V17.292H115.414V9.01996H114.054ZM117.473 13.164C117.473 12.6626 117.537 12.22 117.665 11.836C117.804 11.4413 117.99 11.1106 118.225 10.844C118.46 10.5773 118.732 10.3746 119.041 10.236C119.361 10.0973 119.697 10.028 120.049 10.028C120.401 10.028 120.732 10.0973 121.041 10.236C121.361 10.3746 121.638 10.5773 121.873 10.844C122.108 11.1106 122.289 11.4413 122.417 11.836C122.556 12.22 122.625 12.6626 122.625 13.164C122.625 13.6653 122.556 14.1133 122.417 14.508C122.289 14.892 122.108 15.2173 121.873 15.484C121.638 15.74 121.361 15.9373 121.041 16.076C120.732 16.2146 120.401 16.284 120.049 16.284C119.697 16.284 119.361 16.2146 119.041 16.076C118.732 15.9373 118.46 15.74 118.225 15.484C117.99 15.2173 117.804 14.892 117.665 14.508C117.537 14.1133 117.473 13.6653 117.473 13.164ZM116.033 13.164C116.033 13.772 116.118 14.3373 116.289 14.86C116.46 15.3826 116.716 15.8413 117.057 16.236C117.398 16.62 117.82 16.924 118.321 17.148C118.822 17.3613 119.398 17.468 120.049 17.468C120.71 17.468 121.286 17.3613 121.777 17.148C122.278 16.924 122.7 16.62 123.041 16.236C123.382 15.8413 123.638 15.3826 123.809 14.86C123.98 14.3373 124.065 13.772 124.065 13.164C124.065 12.556 123.98 11.9906 123.809 11.468C123.638 10.9346 123.382 10.476 123.041 10.092C122.7 9.69729 122.278 9.38796 121.777 9.16396C121.286 8.93996 120.71 8.82796 120.049 8.82796C119.398 8.82796 118.822 8.93996 118.321 9.16396C117.82 9.38796 117.398 9.69729 117.057 10.092C116.716 10.476 116.46 10.9346 116.289 11.468C116.118 11.9906 116.033 12.556 116.033 13.164ZM124.628 9.01996V17.292H125.988V12.62C125.988 12.2466 126.036 11.9053 126.132 11.596C126.239 11.276 126.394 10.9986 126.596 10.764C126.799 10.5293 127.05 10.348 127.348 10.22C127.658 10.092 128.02 10.028 128.436 10.028C128.959 10.028 129.37 10.1773 129.668 10.476C129.967 10.7746 130.116 11.18 130.116 11.692V17.292H131.476V11.852C131.476 11.404 131.428 10.9986 131.332 10.636C131.247 10.2626 131.092 9.94263 130.868 9.67596C130.644 9.40929 130.351 9.20129 129.988 9.05196C129.626 8.90263 129.172 8.82796 128.628 8.82796C127.402 8.82796 126.506 9.32929 125.94 10.332H125.908V9.01996H124.628Z" fill="white"/>
<path d="M52.1203 101.303C66.9465 115.93 90.8228 115.768 105.45 100.942C111.069 95.2457 114.195 87.5507 114.141 79.5497C114.086 71.5486 110.856 63.8968 105.16 58.2773C100.604 53.783 94.449 51.2826 88.0492 51.3258C81.6495 51.3691 75.5289 53.9525 71.0337 58.5079C63.5434 66.0999 64.1454 78.858 71.7354 86.3483" stroke="white" stroke-width="0.390934" stroke-miterlimit="10" stroke-linecap="round"/>
<path d="M118.49 78.5374C118.28 70.0463 115.288 61.6315 109.521 55.2045" stroke="white" stroke-width="0.1466" stroke-miterlimit="10" stroke-linecap="round"/>
<path d="M119.209 78.3091L118.501 79.5894L117.746 78.3365L119.209 78.3091Z" fill="white"/>
<path d="M97.3694 112.941C102.134 110.687 106.372 107.458 109.811 103.463" stroke="white" stroke-width="0.1466" stroke-miterlimit="10" stroke-linecap="round"/>
<path d="M97.8657 113.501L96.4095 113.372L97.25 112.176L97.8657 113.501Z" fill="white"/>
<path d="M106.703 33.6858L45.6309 125.653" stroke="white" stroke-width="0.390934" stroke-miterlimit="10" stroke-linecap="round"/>
<path d="M105.753 32.8211L105.537 33.1468L107.654 34.5526L107.87 34.227L105.753 32.8211Z" fill="white"/>
<path d="M112.93 32.4913C113.79 33.828 114.359 35.3313 114.598 36.9027C114.837 38.4742 114.741 40.0784 114.318 41.6105C113.894 43.1426 113.152 44.5679 112.14 45.7934C111.127 47.0189 109.868 48.0168 108.443 48.7219C107.018 49.427 105.461 49.8234 103.873 49.8851C102.284 49.9469 100.701 49.6726 99.2259 49.0802C97.7508 48.4879 96.4175 47.5908 95.313 46.4476C94.2085 45.3044 93.3579 43.941 92.8167 42.4464" stroke="white" stroke-width="0.1466" stroke-miterlimit="10" stroke-dasharray="6.84 3.91"/>
<path d="M112.549 33.5879L112.766 33.6309L112.971 32.5656L114.017 32.849L114.076 32.636L112.799 32.292L112.549 33.5879Z" fill="white"/>
<path d="M93.9253 42.8045L93.8275 43.0019L92.8541 42.523L92.4495 43.5297L92.2443 43.4456L92.7388 42.222L93.9253 42.8045Z" fill="white"/>
<path d="M88.7138 86.3151H87.9319" stroke="white" stroke-width="0.1466" stroke-miterlimit="10"/>
<path d="M86.4093 86.3151H56.7022" stroke="white" stroke-width="0.1466" stroke-miterlimit="10" stroke-dasharray="1.52 1.52"/>
<path d="M55.9417 86.3151H55.1598" stroke="white" stroke-width="0.1466" stroke-miterlimit="10"/>
<path d="M57.6168 83.8585L55.1598 86.3174H56.272" stroke="white" stroke-width="0.1466" stroke-miterlimit="10"/>
<path d="M86.2668 88.7645L88.714 86.3172H87.5823" stroke="white" stroke-width="0.1466" stroke-miterlimit="10"/>
<path d="M75.2247 106.339H74.4428" stroke="white" stroke-width="0.1466" stroke-miterlimit="10"/>
<path d="M72.9202 106.339H43.2131" stroke="white" stroke-width="0.1466" stroke-miterlimit="10" stroke-dasharray="1.52 1.52"/>
<path d="M42.4526 106.339H41.6707" stroke="white" stroke-width="0.1466" stroke-miterlimit="10"/>
<path d="M44.1277 103.88L41.6707 106.339H42.781" stroke="white" stroke-width="0.1466" stroke-miterlimit="10"/>
<path d="M72.7773 108.786L75.2246 106.339H74.0928" stroke="white" stroke-width="0.1466" stroke-miterlimit="10"/>
<path d="M71.7003 87.2062C72.1926 87.2062 72.5916 86.8071 72.5916 86.3149C72.5916 85.8226 72.1926 85.4235 71.7003 85.4235C71.208 85.4235 70.809 85.8226 70.809 86.3149C70.809 86.8071 71.208 87.2062 71.7003 87.2062Z" fill="white"/>
<path d="M83.3679 110.295L45.4629 135.528" stroke="white" stroke-width="0.390934" stroke-miterlimit="10"/>
<path d="M45.0093 134.074L43.7114 136.693L46.6297 136.507L45.0093 134.074Z" fill="white"/>
<path d="M75.9381 127.862L31.6687 148.2" stroke="white" stroke-width="0.390934" stroke-miterlimit="10"/>
<path d="M31.448 146.693L29.7572 149.077L32.6677 149.349L31.448 146.693Z" fill="white"/>
<path d="M16.1937 136.761L65.3126 148.425" stroke="white" stroke-width="0.390934" stroke-miterlimit="10"/>
<path d="M64.5581 149.748L67.3592 148.912L65.2344 146.904L64.5581 149.748Z" fill="white"/>
<path d="M38.6216 97.8455V135.049" stroke="white" stroke-width="0.390934" stroke-miterlimit="10"/>
<path d="M37.1594 134.621L38.6215 137.153L40.0836 134.621H37.1594Z" fill="white"/>
<path d="M69.2394 125.653C63.2933 117.038 55.2283 111.599 48.7153 108.276" stroke="white" stroke-width="0.1466" stroke-miterlimit="10" stroke-dasharray="3.91 1.95"/>
<path d="M69.7204 125.062L69.8377 126.519L68.5182 125.893L69.7204 125.062Z" fill="white"/>
<path d="M49.2375 107.723L47.7773 107.799L48.5729 109.025L49.2375 107.723Z" fill="white"/>
<path d="M77.4239 149.658C77.087 144.438 75.9259 139.304 73.9837 134.447" stroke="white" stroke-width="0.1466" stroke-miterlimit="10" stroke-dasharray="3.91 1.95"/>
<path d="M78.1393 149.393L77.4982 150.708L76.6792 149.496L78.1393 149.393Z" fill="white"/>
<path d="M74.7418 134.371L73.5885 133.472L73.3872 134.92L74.7418 134.371Z" fill="white"/>
<path d="M45.6311 128.415C47.1565 128.415 48.3931 127.178 48.3931 125.653C48.3931 124.127 47.1565 122.891 45.6311 122.891C44.1058 122.891 42.8692 124.127 42.8692 125.653C42.8692 127.178 44.1058 128.415 45.6311 128.415Z" fill="white"/>
<path d="M38.6216 96.8238C39.061 96.8238 39.4172 96.4676 39.4172 96.0282C39.4172 95.5889 39.061 95.2327 38.6216 95.2327C38.1822 95.2327 37.826 95.5889 37.826 96.0282C37.826 96.4676 38.1822 96.8238 38.6216 96.8238Z" fill="white"/>
<path d="M14.5869 137.176C15.0263 137.176 15.3825 136.82 15.3825 136.38C15.3825 135.941 15.0263 135.585 14.5869 135.585C14.1476 135.585 13.7914 135.941 13.7914 136.38C13.7914 136.82 14.1476 137.176 14.5869 137.176Z" fill="white"/>
<path d="M84.9863 110.013C85.4257 110.013 85.7819 109.657 85.7819 109.218C85.7819 108.779 85.4257 108.422 84.9863 108.422C84.547 108.422 84.1908 108.779 84.1908 109.218C84.1908 109.657 84.547 110.013 84.9863 110.013Z" fill="white"/>
<path d="M77.8011 127.801C78.2405 127.801 78.5967 127.445 78.5967 127.006C78.5967 126.566 78.2405 126.21 77.8011 126.21C77.3617 126.21 77.0056 126.566 77.0056 127.006C77.0056 127.445 77.3617 127.801 77.8011 127.801Z" fill="white"/>
</svg>
