<svg width="15" height="14" viewBox="0 0 15 14" fill="none" xmlns="http://www.w3.org/2000/svg">
<path d="M3.88838 1.82422H3.90519C3.9136 1.82422 3.92201 1.82842 3.93042 1.83263C3.93462 1.83683 3.93883 1.84524 3.93883 1.85785C3.93883 1.86626 3.89678 1.96717 3.80849 2.16477C3.7202 2.35818 3.64032 2.55999 3.56884 2.766L3.0517 4.22493C3.01807 4.32584 2.98863 4.41833 2.96761 4.50662C2.94659 4.59492 2.93398 4.65798 2.93398 4.69162C2.93398 4.74628 2.94659 4.78832 2.97182 4.81775C2.99704 4.84718 3.03909 4.8682 3.10215 4.88502C3.11897 4.88923 3.13999 4.89343 3.16942 4.89763C3.23249 4.90604 3.26192 4.92286 3.26192 4.94388C3.26192 4.94809 3.26192 4.95229 3.25772 4.9565C3.25772 4.9607 3.25351 4.9649 3.24931 4.96911L3.18204 5.02377C3.16942 5.03217 3.15681 5.04058 3.13579 5.04479C3.11477 5.04899 3.08954 5.0532 3.06431 5.0532C3.0475 5.0532 2.98023 5.04899 2.86671 5.03638C2.75319 5.02377 2.65228 5.01956 2.55979 5.01956C2.46729 5.01956 2.36638 5.02377 2.24866 5.03638C2.13094 5.04899 2.06367 5.0532 2.03844 5.0532C2.01321 5.0532 1.99219 5.04899 1.97958 5.04479C1.96697 5.04058 1.95856 5.02797 1.95856 5.01536C1.95856 5.00695 1.95856 5.00274 1.96276 4.99854C1.96697 4.99433 1.96697 4.99013 1.96697 4.99013L2.02583 4.92706C2.03844 4.91025 2.07628 4.89763 2.13094 4.88923C2.18559 4.87661 2.22764 4.8682 2.25286 4.85559C2.31593 4.82616 2.37479 4.78412 2.42525 4.72105C2.4757 4.65798 2.51774 4.5781 2.55558 4.47719L3.11477 2.93838C3.13579 2.88373 3.1484 2.82907 3.16101 2.77862C3.16942 2.72816 3.17783 2.68612 3.17783 2.64408C3.17783 2.58521 3.16522 2.53897 3.13999 2.50954C3.11477 2.4801 3.07693 2.46329 3.02647 2.46329C2.9592 2.46329 2.89193 2.4717 2.81625 2.48851C2.79523 2.49272 2.78262 2.49692 2.77841 2.49692C2.7658 2.49692 2.75739 2.49272 2.74898 2.48851C2.74057 2.48431 2.74058 2.4759 2.74058 2.46749C2.74058 2.46329 2.74058 2.46329 2.74058 2.45908C2.74058 2.45488 2.74058 2.45488 2.74478 2.44647L2.78262 2.37499C2.80785 2.33295 2.87932 2.30352 2.99704 2.27829C3.11897 2.25307 3.21567 2.22784 3.29556 2.19841C3.41748 2.15216 3.531 2.08069 3.63611 1.98819C3.74122 1.89569 3.80849 1.84524 3.83792 1.84104L3.88838 1.82422Z" fill="black"/>
<path d="M3.01389 1.03784C4.35088 1.03784 5.43562 2.12258 5.43562 3.45958" stroke="black" stroke-width="0.3"/>
<path d="M11.553 1C12.89 1 13.9748 2.08473 13.9748 3.42173C13.9748 4.75873 12.89 5.84347 11.553 5.84347" stroke="black" stroke-width="0.3"/>
<path d="M10.6029 4.57376H11.4984C11.6666 4.57376 11.8011 4.55694 11.902 4.5191C12.0029 4.48126 12.0912 4.41819 12.1711 4.3257C12.1921 4.30047 12.2173 4.27104 12.2468 4.229C12.3014 4.15332 12.3519 4.11127 12.3939 4.10286L12.4738 4.09025H12.4822C12.4948 4.09025 12.5032 4.09445 12.5117 4.09866C12.5201 4.10286 12.5243 4.11127 12.5243 4.11968C12.5243 4.12809 12.4906 4.18695 12.4234 4.29627C12.3561 4.40558 12.2972 4.5149 12.2468 4.62421C12.2426 4.63262 12.2342 4.64944 12.23 4.66625C12.1753 4.78818 12.1248 4.85966 12.0786 4.88909C12.0576 4.9017 12.0281 4.91431 11.9903 4.92272C11.9525 4.93113 11.8978 4.93533 11.8221 4.93533H11.6876H10.6155C10.4725 4.93533 10.3338 4.93954 10.2034 4.95215C10.1824 4.95215 10.1698 4.95636 10.1656 4.95636C10.1362 4.95636 10.1151 4.95215 10.1025 4.94374C10.0857 4.93533 10.0815 4.91852 10.0815 4.9017C10.0815 4.83022 10.1488 4.71671 10.2791 4.55273C10.4095 4.38876 10.5776 4.2332 10.7752 4.07343C10.9518 3.93889 11.2125 3.76651 11.5657 3.55629C11.7212 3.4638 11.8347 3.39653 11.9104 3.35028C12.0996 3.22835 12.2384 3.10222 12.3309 2.97188C12.4234 2.84154 12.4696 2.69859 12.4696 2.55144C12.4696 2.40849 12.4234 2.29077 12.3351 2.20668C12.2468 2.12259 12.1248 2.07634 11.9735 2.07634C11.86 2.07634 11.7591 2.09737 11.6708 2.13941C11.5825 2.18145 11.5068 2.24872 11.4353 2.34122C11.4185 2.36224 11.3975 2.38747 11.3765 2.42531C11.3218 2.50519 11.2756 2.54724 11.2377 2.55565L11.1494 2.58087H11.141C11.1326 2.58087 11.1284 2.58087 11.1242 2.57667C11.12 2.57246 11.12 2.56826 11.12 2.56405C11.12 2.54724 11.1452 2.49678 11.1915 2.4127C11.2377 2.32861 11.2756 2.25713 11.3092 2.19407C11.3428 2.1268 11.3723 2.05112 11.4059 1.96283C11.4353 1.87453 11.4606 1.82828 11.4732 1.81988L11.511 1.79465C11.5194 1.79044 11.5278 1.79044 11.5362 1.78624C11.5446 1.78204 11.5488 1.78204 11.5488 1.78204C11.5488 1.78204 11.5573 1.78624 11.5699 1.79044C11.6245 1.81567 11.6792 1.82828 11.7422 1.82828C11.7885 1.82828 11.8642 1.81987 11.9693 1.80306C12.0702 1.78624 12.1501 1.77783 12.2005 1.77783C12.4192 1.77783 12.5915 1.8451 12.7261 1.97964C12.8606 2.11418 12.9279 2.28656 12.9279 2.50099C12.9279 2.59348 12.9153 2.68178 12.8858 2.76587C12.8606 2.84995 12.8186 2.93404 12.7639 3.00972C12.6084 3.24096 12.2173 3.52266 11.5909 3.86321C11.4984 3.91367 11.4269 3.95151 11.3765 3.98094C11.1957 4.08184 11.0401 4.18695 10.9098 4.29206C10.7626 4.37615 10.6659 4.47706 10.6029 4.57376Z" fill="black"/>
<path d="M3.42173 8.44189C4.75873 8.44189 5.84347 9.52663 5.84347 10.8636C5.84347 12.2006 4.75873 13.2854 3.42173 13.2854C2.08473 13.2854 1 12.2006 1 10.8636" stroke="black" stroke-width="0.3"/>
<path d="M3.49323 9.44667H4.50229C4.55694 9.44667 4.6158 9.44246 4.68308 9.43826C4.75035 9.43405 4.79239 9.42985 4.80921 9.42985C4.83023 9.42985 4.84284 9.43405 4.84705 9.43826C4.85125 9.44246 4.85546 9.45508 4.85546 9.46769C4.85125 9.4761 4.85125 9.48871 4.84705 9.50553L4.83023 9.58121C4.81762 9.62746 4.77137 9.69052 4.68728 9.762C4.65785 9.78722 4.63262 9.80825 4.6158 9.82506L3.80015 10.6029C3.97674 10.6071 4.11128 10.6617 4.21218 10.7626C4.31309 10.8635 4.35934 10.9981 4.35934 11.1705C4.35934 11.305 4.3257 11.4396 4.25843 11.5783C4.19116 11.717 4.09446 11.8516 3.96833 11.9777C3.77913 12.1669 3.57311 12.3141 3.35449 12.4192C3.13586 12.5243 2.92143 12.5789 2.71542 12.5789C2.49679 12.5789 2.30759 12.5243 2.14782 12.4108C1.98806 12.2972 1.90817 12.1753 1.90817 12.0366C1.90817 11.9651 1.95442 11.902 2.04692 11.839C2.07635 11.8222 2.09737 11.8053 2.10998 11.7969L2.36225 11.6077L2.37066 11.6035C2.42952 11.5615 2.47156 11.5405 2.49679 11.5405H2.51361L2.57667 11.5531C2.58929 11.5573 2.6019 11.5615 2.61031 11.5657C2.61872 11.5699 2.62292 11.5783 2.62292 11.5867C2.62292 11.5993 2.58508 11.6456 2.5052 11.7212C2.42531 11.7969 2.38747 11.8726 2.38747 11.9441C2.38747 12.0408 2.43793 12.1249 2.53463 12.1921C2.63133 12.2594 2.75326 12.293 2.90041 12.293C3.04336 12.293 3.18631 12.2594 3.32085 12.1963C3.45539 12.1333 3.58152 12.0366 3.69504 11.9146C3.77493 11.8306 3.83379 11.7339 3.87583 11.633C3.91788 11.532 3.9389 11.4269 3.9389 11.3218C3.9389 11.1915 3.90526 11.0906 3.83799 11.0191C3.77072 10.9476 3.67402 10.914 3.54789 10.914C3.54789 10.914 3.53527 10.914 3.51005 10.9182C3.48482 10.9224 3.4638 10.9224 3.44278 10.9224C3.43016 10.9224 3.41335 10.9182 3.40073 10.914C3.38812 10.9098 3.37551 10.9014 3.36289 10.8972L3.29983 10.8509C3.29142 10.8425 3.28301 10.8341 3.27881 10.8299C3.2746 10.8215 3.2704 10.8173 3.2704 10.8089C3.2704 10.7963 3.27881 10.7837 3.29562 10.7626C3.31244 10.7416 3.34187 10.7122 3.38812 10.6744L4.32991 9.79563H3.64038C3.47641 9.79563 3.35028 9.80825 3.2704 9.83768C3.19051 9.86711 3.11904 9.91756 3.05177 9.98483C3.03916 10.0016 3.02234 10.0227 2.99711 10.0521C2.95927 10.111 2.92143 10.1446 2.8878 10.1572L2.80371 10.1866C2.79951 10.1908 2.7911 10.1908 2.7911 10.1908C2.7911 10.1908 2.78269 10.1908 2.77428 10.1908C2.76587 10.1908 2.76167 10.1908 2.75746 10.1866C2.75326 10.1824 2.75326 10.1782 2.75326 10.1698C2.75326 10.1614 2.77428 10.1152 2.81632 10.0353C2.85837 9.9554 2.89621 9.87131 2.92984 9.79563C2.95086 9.74097 2.98029 9.67371 3.00972 9.59382C3.03916 9.50973 3.06018 9.46349 3.077 9.45508L3.11483 9.42985C3.11904 9.42564 3.12324 9.42565 3.13165 9.42144C3.14006 9.41724 3.14427 9.41724 3.15267 9.41724L3.16949 9.42144C3.26619 9.43406 3.3713 9.44667 3.49323 9.44667Z" fill="black"/>
<path d="M11.5783 13.2854C12.9158 13.2854 14 12.2011 14 10.8636C14 9.52614 12.9158 8.44189 11.5783 8.44189C10.2408 8.44189 9.15656 9.52614 9.15656 10.8636C9.15656 12.2011 10.2408 13.2854 11.5783 13.2854Z" stroke="black" stroke-width="0.3"/>
<path d="M12.2972 10.1192L11.9272 11.1577H11.9398C12.087 11.1577 12.2215 11.1283 12.3435 11.0694C12.4654 11.0106 12.5285 10.9811 12.5327 10.9811L12.5915 10.9853C12.6041 10.9853 12.6125 10.9895 12.6125 10.9937C12.6168 10.9979 12.621 11.0021 12.621 11.0148C12.621 11.04 12.5789 11.0862 12.499 11.1619C12.4486 11.204 12.4065 11.2376 12.3771 11.267L12.3729 11.2712C12.2299 11.4058 12.0912 11.4772 11.944 11.4772C11.9188 11.4772 11.8852 11.473 11.8347 11.4688C11.8263 11.4688 11.8221 11.4646 11.8221 11.4646L11.7506 11.6749L11.7338 11.7253C11.6624 11.9313 11.6287 12.0701 11.6287 12.1415C11.6287 12.1962 11.6371 12.2382 11.6581 12.2635C11.675 12.2929 11.7086 12.3181 11.7591 12.3349C11.7927 12.3476 11.8389 12.3602 11.8936 12.3686C11.9483 12.377 11.9777 12.3854 11.9777 12.4022C11.9777 12.4148 11.9777 12.419 11.9777 12.4232C11.9777 12.4274 11.9735 12.4274 11.9735 12.4316L11.902 12.4905C11.8894 12.4989 11.8726 12.5073 11.8516 12.5115C11.8305 12.5157 11.8053 12.5199 11.7759 12.5199C11.7717 12.5199 11.7044 12.5157 11.5825 12.5031C11.4605 12.4905 11.3344 12.4863 11.2167 12.4863C11.1326 12.4863 11.0317 12.4947 10.9224 12.5073C10.8089 12.5199 10.7416 12.5283 10.7122 12.5283C10.6869 12.5283 10.6659 12.5241 10.6533 12.5199C10.6407 12.5115 10.6323 12.5031 10.6323 12.4905C10.6323 12.4821 10.6323 12.4779 10.6365 12.4737C10.6365 12.4695 10.6407 12.4653 10.6449 12.4611L10.7037 12.3896C10.7164 12.3728 10.7542 12.3602 10.8131 12.3518C10.8719 12.3433 10.914 12.3349 10.9392 12.3223C11.0107 12.2929 11.0737 12.2509 11.1242 12.1878C11.1746 12.1247 11.2209 12.0364 11.2629 11.9271L11.4311 11.4646H10.1151C10.0815 11.4646 10.0605 11.4604 10.0479 11.452C10.0353 11.4436 10.0226 11.4268 10.01 11.4016L9.97639 11.3259C9.97218 11.3175 9.97218 11.3091 9.96798 11.3007C9.96798 11.2922 9.96378 11.2796 9.96378 11.267C9.96378 11.225 10.0437 11.1451 10.2034 11.0274C10.3506 10.9181 10.4683 10.8214 10.565 10.7415C11.1536 10.2369 11.6413 9.79128 12.0281 9.39606C12.0407 9.38345 12.045 9.37925 12.0492 9.37504C12.1122 9.31198 12.2047 9.27414 12.3309 9.25732C12.3435 9.25732 12.3519 9.25311 12.3561 9.25311C12.4065 9.2447 12.457 9.22789 12.5158 9.21107C12.5705 9.19425 12.6041 9.18164 12.6125 9.18164C12.621 9.18164 12.6294 9.19005 12.6378 9.20266C12.6462 9.21528 12.6504 9.23209 12.6504 9.24891C12.6504 9.25732 12.6083 9.35823 12.5243 9.55163C12.4486 9.73242 12.3687 9.92582 12.2972 10.1192ZM12.108 9.59788C11.8516 9.84594 11.5825 10.1024 11.305 10.3631C11.0275 10.6237 10.7374 10.8886 10.4431 11.1619H11.5404L12.108 9.59788Z" fill="black"/>
</svg>
